<?xml version="1.0" encoding="utf-8"?>
<!-- Generator: Adobe Illustrator 26.0.3, SVG Export Plug-In . SVG Version: 6.00 Build 0)  -->
<svg version="1.1" id="Calque_1" xmlns="http://www.w3.org/2000/svg" xmlns:xlink="http://www.w3.org/1999/xlink" x="0px" y="0px"
	 viewBox="0 0 595.3 841.9" style="enable-background:new 0 0 595.3 841.9;" xml:space="preserve">
<style type="text/css">
	.st0{fill:#E5E4E4;}
	.st1{fill:#FFFFFF;}
	.st2{font-family:'IKANSEEYOUALL-AllOfYou';}
	.st3{font-size:181.1px;}
	.st4{letter-spacing:-2.9;}
	.st5{font-size:110.75px;}
	.st6{letter-spacing:-1;}
	.st7{letter-spacing:-1.9;}
	.st8{clip-path:url(#SVGID_00000126321695998565450530000003460056033468656772_);}
	.st9{fill:#00A456;stroke:#010101;stroke-width:12.34;}
	.st10{fill:#3993D1;stroke:#010101;stroke-width:12.34;}
	.st11{fill:#AA62A4;stroke:#010101;stroke-width:12.34;}
	.st12{fill:#D83786;stroke:#010101;stroke-width:12.34;}
	.st13{fill:#D53231;stroke:#010101;stroke-width:12.34;}
	.st14{fill:#F2AE1F;stroke:#010101;stroke-width:12.34;}
	.st15{letter-spacing:-4.8;}
	.st16{font-family:'Lato-Bold';}
	.st17{font-size:22px;}
	.st18{fill:#F2AE1F;}
	.st19{font-size:20.168px;}
	.st20{font-size:20.24px;}
	.st21{font-size:20.2855px;}
	.st22{font-size:20.244px;}
	.st23{font-size:20.167px;}
	.st24{font-size:20.1924px;}
	.st25{font-size:20.2127px;}
	.st26{font-size:20.2208px;}
	.st27{font-size:71.15px;}
	.st28{font-size:42.61px;}
	.st29{font-size:38.7px;}
	.st30{font-size:20px;}
	.st31{font-size:14px;}
</style>
<rect x="9.1" y="9.1" width="577.1" height="823.7"/>
<path class="st0" d="M577.1,18.2v805.5H18.2V18.2H577.1 M595.3,0H0v841.9h595.3V0z"/>
<text transform="matrix(1.04 0 0 1 210.9103 372.1299)" class="st1 st2 st3 st4">O</text>
<text transform="matrix(1.04 0 0 1 370.2487 372.1299)" class="st1 st2 st3">U</text>
<text transform="matrix(1.04 0 0 1 74.9304 214.2197)" class="st1 st2 st5">A</text>
<text transform="matrix(1.04 0 0 1 164.3078 214.2197)" class="st1 st2 st5 st6">L</text>
<text transform="matrix(1.04 0 0 1 248.1628 214.2197)" class="st1 st2 st5 st7">L</text>
<text transform="matrix(1.04 0 0 1 330.2917 214.2197)" class="st1 st2 st5"> </text>
<text transform="matrix(1.04 0 0 1 350.1037 214.2197)" class="st1 st2 st5 st7">O</text>
<text transform="matrix(1.04 0 0 1 447.8947 214.2197)" class="st1 st2 st5 st7">F</text>
<g>
	<defs>
		<rect id="SVGID_1_" x="27.9" y="44" width="455.3" height="656.2"/>
	</defs>
	<clipPath id="SVGID_00000015317394405693402110000008119543502346710707_">
		<use xlink:href="#SVGID_1_"  style="overflow:visible;"/>
	</clipPath>
	<g style="clip-path:url(#SVGID_00000015317394405693402110000008119543502346710707_);">
		<g>
			<path class="st9" d="M68.4,999.7c109.8-45.4,196.1-131.4,239.7-239.1s41.1-228.2-7.1-335s-138-191.2-249.7-234.6
				s-236.2-42.3-346.1,3.1l28.7,63.7c92.5-38.2,197.3-39.2,291.4-2.6S195,362.7,235.6,452.7s42.7,191.4,5.9,282
				S132.2,897.8,39.7,936L68.4,999.7z"/>
		</g>
		<g>
			<path class="st10" d="M49.8,958.4c98.6-40.8,176-118,215.1-214.6s36.9-204.8-6.3-300.7S134.8,271.5,34.5,232.5s-212-38-310.6,2.8
				l25.8,57.2c83-34.3,177.1-35.2,261.5-2.4s152.3,96.6,188.7,177.3s38.3,171.8,5.3,253.1S107.1,866.9,24.1,901.2L49.8,958.4z"/>
		</g>
		<g>
			<path class="st11" d="M31.2,917.2C118.6,881,187.1,812.7,221.8,727s32.7-181.4-5.6-266.4s-109.7-152-198.6-186.5
				s-187.8-33.6-275.2,2.5l22.8,50.6c73.5-30.4,156.9-31.2,231.7-2.1s134.9,85.6,167.1,157.1s33.9,152.2,4.7,224.2
				S82,836.1,8.4,866.5L31.2,917.2z"/>
		</g>
		<g>
			<path class="st12" d="M14.5,880c77.2-31.9,137.8-92.4,168.5-168s28.9-160.4-5-235.5S81,342,2.5,311.5s-166-29.7-243.3,2.2
				l20.2,44.8c65.5-26.9,138.8-27.5,204.8-1.9c66.1,25.7,119.3,75.6,147.8,138.9c28.5,62.7,30,134.4,4.2,198.2
				C110.4,757.5,59.3,808.4-5.7,835.3L14.5,880z"/>
		</g>
		<g>
			<path class="st13" d="M-3.7,841c66.7-27.6,119-79.8,145.5-145.1c26.5-65.5,24.9-139-4.3-203.3c-29.2-64.8-83.7-116-151.5-142.4
				c-67.7-26.3-142.8-25.7-210,1.9l21,46.6c54.4-22.3,115.2-22.9,170-1.5c54.9,21.3,99,62.8,122.6,115.3
				C113.2,564.5,114.4,624,93,677c-21.4,52.9-63.8,95.1-117.7,117.4L-3.7,841z"/>
		</g>
		<g>
			<path class="st14" d="M-21.8,799.6c55.3-22.9,98.7-66.1,120.6-120.3c21.9-54.3,20.7-115.2-3.6-168.6
				c-24.2-53.8-69.4-96.2-125.7-118.1c-56.1-21.9-118.5-21.3-174.1,1.6l23.1,51.3c41.6-17.1,88.2-17.5,130.1-1.2
				c42,16.3,75.8,48,93.9,88.2c18.1,39.8,19.1,85.3,2.7,125.9c-16.4,40.5-48.8,72.8-90.1,89.9L-21.8,799.6z"/>
		</g>
	</g>
</g>
<text transform="matrix(1.04 0 0 1 76.1804 372.1299)" class="st1 st2 st3 st15">Y</text>
<text transform="matrix(1.04 0 0 1 208.6003 77.7998)" class="st1 st16 st17">MUSIC FESTI</text>
<text transform="matrix(1.04 0 0 1 344.7673 77.7998)" class="st1 st16 st17 st6">V</text>
<text transform="matrix(1.04 0 0 1 359.0778 77.7998)" class="st1 st16 st17">AL</text>
<circle class="st18" cx="456.5" cy="540.5" r="65.3"/>
<text transform="matrix(0.8831 -0.5419 0.5219 0.853 410.2498 477.0795)" class="st1 st16 st19">4</text>
<text transform="matrix(0.9566 -0.408 0.3923 0.9198 420.2202 470.9301)" class="st1 st16 st20">È</text>
<text transform="matrix(1.0077 -0.2195 0.2095 0.9778 430.5794 466.0494)" class="st1 st16 st21">M</text>
<text transform="matrix(1.0398 -1.999600e-02 1.999600e-02 0.9998 449.1102 462.3808)" class="st1 st16 st22">E</text>
<text transform="matrix(1.0237 0.1907 -0.1807 0.9835 464.5202 462.4497)" class="st1 st16 st23">E</text>
<text transform="matrix(0.977 0.3564 -0.3427 0.9395 475.8598 464.3197)" class="st1 st16 st20">D</text>
<text transform="matrix(0.9222 0.4811 -0.4711 0.8821 490.0912 469.8099)" class="st1 st16 st24">I</text>
<text transform="matrix(0.8511 0.5908 -0.5708 0.8211 495.66 472.5295)" class="st1 st16 st25">T</text>
<text transform="matrix(0.7807 0.6806 -0.6606 0.7507 505.5512 479.5)" class="st1 st16 st26">I</text>
<text transform="matrix(0.6758 0.7905 -0.7601 0.6498 510.4502 483.2602)" class="st1 st16 st20">O</text>
<text transform="matrix(0.5042 0.9096 -0.8746 0.4848 520.9608 495.5304)" class="st1 st16 st20">N</text>
<rect x="376.9" y="673.7" width="203.8" height="153.2"/>
<path class="st0" d="M578.4,676v148.6H379.2V676H578.4 M583,671.4H374.6v157.8H583L583,671.4L583,671.4z"/>
<rect x="14.7" y="673.9" width="361.1" height="152.8"/>
<path class="st0" d="M373.3,676.4v147.8H17.1V676.4H373.3 M378.3,671.4H12.2v157.8h366.1L378.3,671.4L378.3,671.4z"/>
<text transform="matrix(1.04 0 0 1 417.1906 757.1797)" class="st1 st2 st27 st6">1</text>
<text transform="matrix(1.04 0 0 1 451.4474 757.1797)" class="st1 st2 st27">5</text>
<text transform="matrix(5.878305e-17 -0.96 1 6.123234e-17 540.3596 795.0605)" class="st1 st16 st28">2022</text>
<text transform="matrix(1.04 0 0 1 419.4299 793.3398)" class="st1 st2 st29">J</text>
<text transform="matrix(1.04 0 0 1 435.5295 793.3398)" class="st1 st2 st29">AN</text>
<text transform="matrix(1.04 0 0 1 57.0099 728.4297)" class="st1 st16 st30">S</text>
<text transform="matrix(1.0429 0 0 1 68.1398 728.4297)" class="st1 st16 st31">YLESTRE</text>
<text transform="matrix(1.04 0 0 1 127.7199 728.4297)" class="st1 st16 st30"> T</text>
<text transform="matrix(1.0429 0 0 1 144.0705 728.4297)" class="st1 st16 st31">HI</text>
<text transform="matrix(1.0429 0 0 1 159.6921 728.4297)" class="st1 st16 st31">A</text>
<text transform="matrix(1.0429 0 0 1 169.3137 728.4297)" class="st1 st16 st31">W</text>
<text transform="matrix(1.04 0 0 1 210.7199 727.6201)" class="st1 st16 st30">I</text>
<text transform="matrix(1.0429 0 0 1 217.2302 727.6201)" class="st1 st16 st31">BRAHIM</text>
<text transform="matrix(1.0429 0 0 1 279.5602 727.6201)" class="st1 st16 st31">G</text>
<text transform="matrix(1.0429 0 0 1 290.1159 727.6201)" class="st1 st16 st31">U</text>
<text transform="matrix(1.0429 0 0 1 300.3654 727.6201)" class="st1 st16 st31 st6">A</text>
<text transform="matrix(1.0429 0 0 1 309.4025 727.6201)" class="st1 st16 st31">YE</text>
<text transform="matrix(1.04 0 0 1 193.1501 787.54)" class="st1 st16 st30">I</text>
<text transform="matrix(1.0429 0 0 1 199.6701 787.54)" class="st1 st16 st31">KANSEE</text>
<text transform="matrix(1.0429 0 0 1 255.8146 787.54)" class="st1 st16 st31">Y</text>
<text transform="matrix(1.0429 0 0 1 264.7863 787.54)" class="st1 st16 st31">O</text>
<text transform="matrix(1.0429 0 0 1 276.4592 787.54)" class="st1 st16 st31">U</text>
<text transform="matrix(1.0429 0 0 1 286.7082 787.54)" class="st1 st16 st31">ALL</text>
<text transform="matrix(1.04 0 0 1 67.1301 787.54)" class="st1 st16 st30">T</text>
<text transform="matrix(1.0429 0 0 1 79.4699 787.54)" class="st1 st16 st31">YPOGRAPHY</text>
<text transform="matrix(1.04 0 0 1 62.61 758.0098)" class="st1 st16 st30">E</text>
<text transform="matrix(1.0429 0 0 1 74.4904 758.0098)" class="st1 st16 st31">STEBAN</text>
<text transform="matrix(1.04 0 0 1 129.9802 758.0098)" class="st1 st16 st30"> Q</text>
<text transform="matrix(1.0429 0 0 1 150.5705 758.0098)" class="st1 st16 st31">UINONES</text>
<text transform="matrix(1.04 0 0 1 240.7101 758.0098)" class="st1 st16 st30">T</text>
<text transform="matrix(1.0429 0 0 1 253.05 758.0098)" class="st1 st16 st31">AM</text>
<text transform="matrix(1.0429 0 0 1 280.8703 758.0098)" class="st1 st16 st31">NGO</text>
<path class="st1" d="M183.5,783c-0.2-0.2-0.3-0.4-0.5-0.6c0.2,0,0.5-0.1,0.7-0.2c1.3-0.4,2.2-1.2,2-1.8s-1.4-0.8-2.7-0.4
	c-0.2,0.1-0.4,0.1-0.5,0.2c0.1-0.1,0.1-0.3,0.2-0.4c0.4-1.1,0.2-2.2-0.4-2.4s-1.4,0.6-1.8,1.7c-0.1,0.2-0.1,0.4-0.1,0.6
	c-0.1-0.2-0.3-0.4-0.4-0.6c-0.8-0.9-1.9-1.3-2.4-0.9s-0.2,1.5,0.7,2.4l0.4,0.3c-0.2,0-0.3,0.1-0.5,0.2c-1.2,0.5-1.9,1.3-1.7,1.9
	s1.4,0.7,2.6,0.2c0.1-0.1,0.2-0.1,0.4-0.2c0,0.1-0.1,0.2-0.1,0.4c-0.3,1.3-0.1,2.5,0.5,2.7s1.3-0.8,1.6-2.2l0,0
	c0.1,0.1,0.2,0.3,0.3,0.4c0.8,1.1,1.9,1.7,2.4,1.4S184.3,784.1,183.5,783z"/>
<path class="st1" d="M232.7,753.9c-0.2-0.2-0.3-0.4-0.5-0.6c0.2,0,0.5-0.1,0.7-0.2c1.3-0.4,2.2-1.2,2-1.8s-1.4-0.8-2.7-0.4
	c-0.2,0.1-0.4,0.1-0.5,0.2c0.1-0.1,0.1-0.3,0.2-0.4c0.4-1.1,0.2-2.2-0.4-2.4s-1.4,0.6-1.8,1.7c-0.1,0.2-0.1,0.4-0.2,0.6
	c-0.1-0.2-0.3-0.4-0.4-0.6c-0.8-0.9-1.9-1.3-2.4-0.9s-0.1,1.5,0.7,2.4c0.1,0.1,0.2,0.2,0.4,0.3c-0.2,0-0.3,0.1-0.5,0.2
	c-1.2,0.5-2,1.3-1.7,1.9s1.4,0.7,2.6,0.2l0.4-0.2l-0.1,0.4c-0.3,1.3-0.1,2.5,0.5,2.7s1.3-0.8,1.6-2.2l0,0c0.1,0.1,0.2,0.3,0.3,0.4
	c0.8,1.1,1.9,1.7,2.4,1.4S233.5,755,232.7,753.9z"/>
<path class="st1" d="M200.2,723.9c-0.2-0.2-0.3-0.4-0.5-0.6c0.2,0,0.5-0.1,0.7-0.2c1.3-0.4,2.2-1.2,2-1.8s-1.4-0.8-2.7-0.4
	c-0.2,0.1-0.4,0.1-0.5,0.2c0.1-0.1,0.1-0.3,0.2-0.4c0.4-1.1,0.2-2.2-0.4-2.4s-1.4,0.6-1.8,1.7c-0.1,0.2-0.1,0.4-0.1,0.6
	c-0.1-0.2-0.3-0.4-0.4-0.6c-0.8-0.9-1.9-1.3-2.4-0.9s-0.2,1.5,0.7,2.4l0.4,0.3c-0.2,0-0.3,0.1-0.5,0.2c-1.2,0.5-1.9,1.3-1.7,1.9
	s1.4,0.7,2.6,0.2c0.1-0.1,0.2-0.1,0.4-0.2c0,0.1-0.1,0.2-0.1,0.4c-0.3,1.3-0.1,2.5,0.5,2.7s1.3-0.8,1.6-2.2l0,0
	c0.1,0.1,0.2,0.3,0.3,0.4c0.8,1.1,1.9,1.7,2.4,1.4S201.1,725,200.2,723.9z"/>
<image style="overflow:visible;enable-background:new    ;" width="647" height="647" xlink:href="../OneDrive/Documents/MEGAsync/Cours Ican/Culture Digitale/Ikanseeyouall/Images SVG/Fichier 3.png"  transform="matrix(0.2034 5.229587e-02 -5.229587e-02 0.2034 410.3 457.94)">
</image>
</svg>
