<svg xmlns="http://www.w3.org/2000/svg" xmlns:xlink="http://www.w3.org/1999/xlink" viewBox="0 0 1366 767.3"><defs><style>.cls-1,.cls-154{fill:none;}.cls-2{font-size:30px;font-family:IKANSEEYOUALL-AllOfYou, IKANSEEYOUALL;}.cls-153,.cls-2{fill:#fff;}.cls-3{letter-spacing:-0.03em;}.cls-4{letter-spacing:0.28em;}.cls-5{letter-spacing:0.47em;}.cls-6{letter-spacing:0.47em;}.cls-7{letter-spacing:-0.03em;}.cls-8{letter-spacing:0.29em;}.cls-9{letter-spacing:0.21em;}.cls-10{letter-spacing:0.51em;}.cls-11{letter-spacing:0.51em;}.cls-12{letter-spacing:0.21em;}.cls-13{letter-spacing:0.18em;}.cls-14{letter-spacing:0.41em;}.cls-15{letter-spacing:0.23em;}.cls-16{letter-spacing:0.51em;}.cls-17{letter-spacing:0.51em;}.cls-18{letter-spacing:0.23em;}.cls-19{letter-spacing:0.18em;}.cls-20{letter-spacing:-0.02em;}.cls-21{letter-spacing:0.43em;}.cls-22{letter-spacing:-0.02em;}.cls-23{letter-spacing:0.1em;}.cls-24{letter-spacing:0.42em;}.cls-25{letter-spacing:0em;}.cls-26{letter-spacing:0.59em;}.cls-27{letter-spacing:0em;}.cls-28{letter-spacing:0.71em;}.cls-29{letter-spacing:0.59em;}.cls-30{letter-spacing:0.72em;}.cls-31{letter-spacing:0.61em;}.cls-32{letter-spacing:0.73em;}.cls-33{letter-spacing:-0.02em;}.cls-34{letter-spacing:0.4em;}.cls-35{letter-spacing:-0.02em;}.cls-36{letter-spacing:0.32em;}.cls-37{letter-spacing:0.72em;}.cls-38{letter-spacing:0.31em;}.cls-39{letter-spacing:0em;}.cls-40{letter-spacing:0.29em;}.cls-41{letter-spacing:0.07em;}.cls-42{letter-spacing:0.64em;}.cls-43{letter-spacing:-0.02em;}.cls-44{letter-spacing:0.68em;}.cls-45{letter-spacing:0em;}.cls-46{letter-spacing:0.29em;}.cls-47{letter-spacing:0.66em;}.cls-48{letter-spacing:0.2em;}.cls-49{letter-spacing:0.41em;}.cls-50{letter-spacing:0.41em;}.cls-51{letter-spacing:0.2em;}.cls-52{letter-spacing:0.42em;}.cls-53{letter-spacing:0.16em;}.cls-54{letter-spacing:0.41em;}.cls-55{letter-spacing:0.16em;}.cls-56{letter-spacing:0.41em;}.cls-57{letter-spacing:0.91em;}.cls-58{letter-spacing:0.13em;}.cls-59{letter-spacing:0.17em;}.cls-60{letter-spacing:-0.02em;}.cls-61{letter-spacing:0.59em;}.cls-62{letter-spacing:-0.02em;}.cls-63{letter-spacing:0.59em;}.cls-64{letter-spacing:0.34em;}.cls-65{letter-spacing:0.53em;}.cls-66{letter-spacing:0.34em;}.cls-67{letter-spacing:0.23em;}.cls-68{letter-spacing:0.01em;}.cls-69{letter-spacing:0.65em;}.cls-70{letter-spacing:-0.02em;}.cls-71{letter-spacing:0.02em;}.cls-72{letter-spacing:0.64em;}.cls-73{letter-spacing:0.23em;}.cls-74{letter-spacing:0.63em;}.cls-75{letter-spacing:0.21em;}.cls-76{letter-spacing:0.41em;}.cls-77{letter-spacing:0.41em;}.cls-78{letter-spacing:0.04em;}.cls-79{letter-spacing:-0.1em;}.cls-80{letter-spacing:0.16em;}.cls-81{letter-spacing:-0.03em;}.cls-82{letter-spacing:0.28em;}.cls-83{letter-spacing:0.49em;}.cls-84{letter-spacing:0.27em;}.cls-85{letter-spacing:0.48em;}.cls-86{letter-spacing:0.27em;}.cls-87{letter-spacing:0.48em;}.cls-88{letter-spacing:0.73em;}.cls-89{letter-spacing:0.65em;}.cls-90{letter-spacing:-0.01em;}.cls-91{letter-spacing:0.39em;}.cls-92{letter-spacing:0.06em;}.cls-93{letter-spacing:-0.02em;}.cls-94{letter-spacing:0em;}.cls-95{letter-spacing:0.86em;}.cls-96{letter-spacing:0.69em;}.cls-97{letter-spacing:0.69em;}.cls-98{letter-spacing:0.45em;}.cls-99{letter-spacing:0.44em;}.cls-100{letter-spacing:0.76em;}.cls-101{letter-spacing:0.66em;}.cls-102{letter-spacing:0.75em;}.cls-103{letter-spacing:-0.04em;}.cls-104{letter-spacing:0.56em;}.cls-105{letter-spacing:1.03em;}.cls-106{letter-spacing:0.73em;}.cls-107{letter-spacing:0.74em;}.cls-108{letter-spacing:0.45em;}.cls-109{letter-spacing:0.44em;}.cls-110{letter-spacing:0.45em;}.cls-111{letter-spacing:-0.02em;}.cls-112{letter-spacing:-0.02em;}.cls-113{letter-spacing:0.76em;}.cls-114{letter-spacing:0.7em;}.cls-115{font-family:MyriadPro-Regular, Myriad Pro;}.cls-116{letter-spacing:0.43em;}.cls-117{letter-spacing:0.49em;}.cls-118{letter-spacing:0.74em;}.cls-119{letter-spacing:0.89em;}.cls-120{letter-spacing:0.3em;}.cls-121{letter-spacing:0.54em;}.cls-122{letter-spacing:0.34em;}.cls-123{letter-spacing:0.35em;}.cls-124{letter-spacing:0.31em;}.cls-125{letter-spacing:0.35em;}.cls-126{letter-spacing:0.34em;}.cls-127{letter-spacing:0.34em;}.cls-128{letter-spacing:0.38em;}.cls-129{letter-spacing:0.24em;}.cls-130{letter-spacing:-0.03em;}.cls-131{letter-spacing:0.33em;}.cls-132{letter-spacing:0.18em;}.cls-133{letter-spacing:0.06em;}.cls-134{letter-spacing:-0.03em;}.cls-135{letter-spacing:0.17em;}.cls-136{letter-spacing:0.24em;}.cls-137{letter-spacing:0.16em;}.cls-138{letter-spacing:0.42em;}.cls-139{letter-spacing:0.41em;}.cls-140{letter-spacing:0.03em;}.cls-141{letter-spacing:0.64em;}.cls-142{letter-spacing:0.73em;}.cls-143{letter-spacing:0.11em;}.cls-144{letter-spacing:0.42em;}.cls-145{letter-spacing:0.42em;}.cls-146{letter-spacing:0.53em;}.cls-147{letter-spacing:0.01em;}.cls-148{letter-spacing:-0.02em;}.cls-149{letter-spacing:0.15em;}.cls-150{letter-spacing:0.46em;}.cls-151{letter-spacing:0.5em;}.cls-152{fill:#e8ae4e;}.cls-154,.cls-155{stroke:#000;stroke-linecap:round;stroke-miterlimit:10;}.cls-154{stroke-width:8.39px;}.cls-155{stroke-width:3.91px;}.cls-156{clip-path:url(#clip-path);}.cls-157{fill:#c5403a;}.cls-158{fill:#5097d7;}</style><clipPath id="clip-path"><rect class="cls-1" x="599.39" y="624.91" width="60.49" height="74.43"/></clipPath></defs><g id="Calque_2" data-name="Calque 2"><g id="Calque_13" data-name="Calque 13"><rect width="1366" height="767.3"/><text class="cls-2"><tspan class="cls-3" x="732.1" y="482.12">Ā</tspan><tspan class="cls-4" x="754.39" y="482.12">	</tspan><tspan x="768.1" y="482.12">ā</tspan><tspan class="cls-5" x="784.72" y="482.12">	</tspan><tspan class="cls-3" x="804.1" y="482.12">Ă</tspan><tspan class="cls-4" x="826.39" y="482.12">	</tspan><tspan x="840.1" y="482.12">ă</tspan><tspan class="cls-6" x="856.72" y="482.12">	</tspan><tspan class="cls-7" x="876.1" y="482.12">Ą</tspan><tspan class="cls-8" x="898.39" y="482.12">	</tspan><tspan x="912.1" y="482.12">ą</tspan><tspan class="cls-6" x="928.72" y="482.12">	</tspan><tspan x="948.1" y="482.12">Ć</tspan><tspan class="cls-9" x="972.76" y="482.12">	</tspan><tspan x="984.1" y="482.12">ć</tspan><tspan class="cls-10" x="999.61" y="482.12">	</tspan><tspan x="1020.1" y="482.12">Ĉ</tspan><tspan class="cls-9" x="1044.76" y="482.12">	</tspan><tspan x="1056.1" y="482.12">ĉ</tspan><tspan class="cls-11" x="1071.61" y="482.12">	</tspan><tspan x="1092.1" y="482.12">Ċ</tspan><tspan class="cls-12" x="1116.76" y="482.12">	</tspan><tspan x="1128.1" y="482.12">ċ</tspan><tspan class="cls-11" x="1143.61" y="482.12">	</tspan><tspan x="1164.1" y="482.12">Č</tspan><tspan class="cls-12" x="1188.76" y="482.12">	</tspan><tspan x="1200.1" y="482.12">č</tspan><tspan class="cls-11" x="1215.61" y="482.12">	</tspan><tspan x="1236.1" y="482.12">Ď</tspan><tspan class="cls-13" x="1261.51" y="482.12">	</tspan><tspan x="732.1" y="518.12">đ</tspan><tspan class="cls-14" x="750.55" y="518.12">	</tspan><tspan x="768.1" y="518.12">Ē</tspan><tspan class="cls-15" x="792.01" y="518.12">	</tspan><tspan x="804.1" y="518.12">ē</tspan><tspan class="cls-16" x="819.64" y="518.12">	</tspan><tspan x="840.1" y="518.12">Ĕ</tspan><tspan class="cls-15" x="864.01" y="518.12">	</tspan><tspan x="876.1" y="518.12">ĕ</tspan><tspan class="cls-17" x="891.64" y="518.12">	</tspan><tspan x="912.1" y="518.12">Ė</tspan><tspan class="cls-15" x="936.01" y="518.12">	</tspan><tspan x="948.1" y="518.12">ė</tspan><tspan class="cls-16" x="963.64" y="518.12">	</tspan><tspan x="984.1" y="518.12">Ę</tspan><tspan class="cls-18" x="1008.01" y="518.12">	</tspan><tspan x="1020.1" y="518.12">ę</tspan><tspan class="cls-16" x="1035.64" y="518.12">	</tspan><tspan x="1056.1" y="518.12">Ě</tspan><tspan class="cls-15" x="1080.01" y="518.12">	</tspan><tspan x="1092.1" y="518.12">ě</tspan><tspan class="cls-16" x="1107.64" y="518.12">	</tspan><tspan x="1128.1" y="518.12">Ĝ</tspan><tspan class="cls-19" x="1153.54" y="518.12">	</tspan><tspan class="cls-20" x="1164.1" y="518.12">ĝ</tspan><tspan class="cls-21" x="1182.04" y="518.12">	</tspan><tspan x="1200.1" y="518.12">Ğ</tspan><tspan class="cls-19" x="1225.54" y="518.12">	</tspan><tspan class="cls-22" x="1236.1" y="518.12">ğ</tspan><tspan x="732.1" y="554.12">Ġ</tspan><tspan class="cls-19" x="757.54" y="554.12">	</tspan><tspan class="cls-20" x="768.1" y="554.12">ġ</tspan><tspan class="cls-21" x="786.04" y="554.12">	</tspan><tspan x="804.1" y="554.12">Ģ</tspan><tspan class="cls-19" x="829.54" y="554.12">	</tspan><tspan class="cls-20" x="840.1" y="554.12">ģ</tspan><tspan class="cls-21" x="858.04" y="554.12">	</tspan><tspan x="876.1" y="554.12">Ĥ</tspan><tspan class="cls-23" x="903.94" y="554.12">	</tspan><tspan x="912.1" y="554.12">ĥ</tspan><tspan class="cls-24" x="930.43" y="554.12">	</tspan><tspan x="948.1" y="554.12">Ħ</tspan><tspan class="cls-23" x="975.94" y="554.12">	</tspan><tspan x="984.1" y="554.12">ħ</tspan><tspan class="cls-24" x="1002.43" y="554.12">	</tspan><tspan class="cls-25" x="1020.1" y="554.12">Ĩ</tspan><tspan class="cls-26" x="1033.24" y="554.12">	</tspan><tspan class="cls-27" x="1056.1" y="554.12">ĩ</tspan><tspan class="cls-28" x="1065.49" y="554.12">	</tspan><tspan class="cls-25" x="1092.1" y="554.12">Ī</tspan><tspan class="cls-26" x="1105.24" y="554.12">	</tspan><tspan class="cls-27" x="1128.1" y="554.12">ī</tspan><tspan class="cls-28" x="1137.49" y="554.12">	</tspan><tspan class="cls-25" x="1164.1" y="554.12">Ĭ</tspan><tspan class="cls-26" x="1177.24" y="554.12">	</tspan><tspan class="cls-27" x="1200.1" y="554.12">ĭ</tspan><tspan class="cls-28" x="1209.49" y="554.12">	</tspan><tspan class="cls-25" x="1236.1" y="554.12">Į</tspan><tspan class="cls-26" x="1249.24" y="554.12">	</tspan><tspan class="cls-27" x="1272.1" y="554.12">į</tspan><tspan x="732.1" y="590.12">İ</tspan><tspan class="cls-29" x="745.24" y="590.12">	</tspan><tspan x="768.1" y="590.12">ı</tspan><tspan class="cls-30" x="777.49" y="590.12">	</tspan><tspan x="804.1" y="590.12">Ĵ</tspan><tspan class="cls-31" x="816.64" y="590.12">	</tspan><tspan x="840.1" y="590.12">ĵ</tspan><tspan class="cls-32" x="849.01" y="590.12">	</tspan><tspan class="cls-33" x="876.1" y="590.12">Ķ</tspan><tspan class="cls-19" x="901.54" y="590.12">	</tspan><tspan x="912.1" y="590.12">ķ</tspan><tspan class="cls-34" x="930.88" y="590.12">	</tspan><tspan class="cls-35" x="948.1" y="590.12">Ĺ</tspan><tspan class="cls-36" x="969.49" y="590.12">	</tspan><tspan x="984.1" y="590.12">ĺ</tspan><tspan class="cls-37" x="993.37" y="590.12">	</tspan><tspan class="cls-35" x="1020.1" y="590.12">Ļ</tspan><tspan class="cls-38" x="1041.49" y="590.12">	</tspan><tspan x="1056.1" y="590.12">ļ</tspan><tspan class="cls-37" x="1065.37" y="590.12">	</tspan><tspan class="cls-39" x="1092.1" y="590.12">Ľ</tspan><tspan class="cls-40" x="1114.36" y="590.12">	</tspan><tspan class="cls-41" x="1128.1" y="590.12">ľ</tspan><tspan class="cls-42" x="1139.86" y="590.12">	</tspan><tspan class="cls-43" x="1164.1" y="590.12">Ŀ</tspan><tspan class="cls-35" x="732.1" y="626.12">ŀ</tspan><tspan class="cls-44" x="742.66" y="626.12">	</tspan><tspan class="cls-45" x="768.1" y="626.12">Ł</tspan><tspan class="cls-46" x="790.27" y="626.12">	</tspan><tspan x="804.1" y="626.12">ł</tspan><tspan class="cls-47" x="815.02" y="626.12">	</tspan><tspan x="840.1" y="626.12">Ń</tspan><tspan class="cls-48" x="864.91" y="626.12">	</tspan><tspan x="876.1" y="626.12">ń</tspan><tspan class="cls-49" x="894.52" y="626.12">	</tspan><tspan x="912.1" y="626.12">Ņ</tspan><tspan class="cls-48" x="936.91" y="626.12">	</tspan><tspan x="948.1" y="626.12">ņ</tspan><tspan class="cls-50" x="966.52" y="626.12">	</tspan><tspan x="984.1" y="626.12">Ň</tspan><tspan class="cls-48" x="1008.91" y="626.12">	</tspan><tspan x="1020.1" y="626.12">ň</tspan><tspan class="cls-50" x="1038.52" y="626.12">	</tspan><tspan x="1056.1" y="626.12">Ŋ</tspan><tspan class="cls-51" x="1080.91" y="626.12">	</tspan><tspan x="1092.1" y="626.12">ŋ</tspan><tspan class="cls-52" x="1110.4" y="626.12">	</tspan><tspan x="1128.1" y="626.12">Ō</tspan><tspan class="cls-53" x="1154.08" y="626.12">	</tspan><tspan x="1164.1" y="626.12">ō</tspan><tspan class="cls-54" x="1182.7" y="626.12">	</tspan><tspan x="1200.1" y="626.12">Ŏ</tspan><tspan class="cls-55" x="1226.08" y="626.12">	</tspan><tspan x="1236.1" y="626.12">ŏ</tspan><tspan x="732.1" y="662.12">Ő</tspan><tspan class="cls-55" x="758.08" y="662.12">	</tspan><tspan x="768.1" y="662.12">ő</tspan><tspan class="cls-56" x="786.7" y="662.12">	</tspan><tspan x="804.1" y="662.12">Œ</tspan><tspan class="cls-57" x="843.52" y="662.12">	</tspan><tspan x="876.1" y="662.12">œ</tspan><tspan class="cls-58" x="903.07" y="662.12">	</tspan><tspan class="cls-22" x="912.1" y="662.12">Ŕ</tspan><tspan class="cls-59" x="937.9" y="662.12">	</tspan><tspan class="cls-60" x="948.1" y="662.12">ŕ</tspan><tspan class="cls-61" x="961.15" y="662.12">	</tspan><tspan class="cls-20" x="984.1" y="662.12">Ŗ</tspan><tspan class="cls-59" x="1009.9" y="662.12">	</tspan><tspan class="cls-62" x="1020.1" y="662.12">ŗ</tspan><tspan class="cls-61" x="1033.15" y="662.12">	</tspan><tspan class="cls-22" x="1056.1" y="662.12">Ř</tspan><tspan class="cls-59" x="1081.9" y="662.12">	</tspan><tspan class="cls-62" x="1092.1" y="662.12">ř</tspan><tspan class="cls-63" x="1105.15" y="662.12">	</tspan><tspan x="1128.1" y="662.12">Ś</tspan><tspan class="cls-64" x="1148.86" y="662.12">	</tspan><tspan x="1164.1" y="662.12">ś</tspan><tspan class="cls-65" x="1179.07" y="662.12">	</tspan><tspan x="1200.1" y="662.12">Ŝ</tspan><tspan class="cls-66" x="1220.86" y="662.12">	</tspan><tspan x="1236.1" y="662.12">ŝ</tspan><tspan class="cls-65" x="1251.07" y="662.12">	</tspan><tspan x="1272.1" y="662.12">Ş</tspan><tspan class="cls-66" x="1292.86" y="662.12">	</tspan><tspan x="1308.1" y="662.12">ş</tspan><tspan x="732.1" y="698.12">Š</tspan><tspan class="cls-66" x="752.86" y="698.12">	</tspan><tspan x="768.1" y="698.12">š</tspan><tspan class="cls-65" x="783.07" y="698.12">	</tspan><tspan class="cls-60" x="804.1" y="698.12">Ţ</tspan><tspan class="cls-67" x="827.98" y="698.12">	</tspan><tspan class="cls-68" x="840.1" y="698.12">ţ</tspan><tspan class="cls-69" x="851.47" y="698.12">	</tspan><tspan class="cls-70" x="876.1" y="698.12">Ť</tspan><tspan class="cls-67" x="899.98" y="698.12">	</tspan><tspan class="cls-71" x="912.1" y="698.12">ť</tspan><tspan class="cls-72" x="923.68" y="698.12">	</tspan><tspan class="cls-62" x="948.1" y="698.12">Ŧ</tspan><tspan class="cls-73" x="971.98" y="698.12">	</tspan><tspan class="cls-68" x="984.1" y="698.12">ŧ</tspan><tspan class="cls-74" x="995.95" y="698.12">	</tspan><tspan x="1020.1" y="698.12">Ũ</tspan><tspan class="cls-75" x="1044.7" y="698.12">	</tspan><tspan x="1056.1" y="698.12">ũ</tspan><tspan class="cls-76" x="1074.67" y="698.12">	</tspan><tspan x="1092.1" y="698.12">Ū</tspan><tspan class="cls-75" x="1116.7" y="698.12">	</tspan><tspan x="1128.1" y="698.12">ū</tspan><tspan class="cls-77" x="1146.67" y="698.12">	</tspan><tspan x="1164.1" y="698.12">Ŭ</tspan><tspan class="cls-75" x="1188.7" y="698.12">	</tspan><tspan x="1200.1" y="698.12">ŭ</tspan><tspan class="cls-76" x="1218.67" y="698.12">	</tspan><tspan x="1236.1" y="698.12">Ů</tspan><tspan class="cls-75" x="1260.7" y="698.12">	</tspan><tspan x="1272.1" y="698.12">ů</tspan><tspan x="732.1" y="734.12" xml:space="preserve"> Ű</tspan><tspan class="cls-78" x="761.86" y="734.12">	</tspan><tspan x="768.1" y="734.12">ű</tspan><tspan class="cls-77" x="786.67" y="734.12">	</tspan><tspan x="804.1" y="734.12">Ų</tspan><tspan class="cls-75" x="828.7" y="734.12">	</tspan><tspan x="840.1" y="734.12">ų</tspan><tspan class="cls-76" x="858.67" y="734.12">	</tspan><tspan class="cls-20" x="876.1" y="734.12">Ŵ</tspan><tspan class="cls-79" x="909.85" y="734.12">	</tspan><tspan class="cls-33" x="912.1" y="734.12">ŵ</tspan><tspan class="cls-80" x="938.29" y="734.12">	</tspan><tspan class="cls-81" x="948.1" y="734.12">Ŷ</tspan><tspan class="cls-82" x="970.63" y="734.12">	</tspan><tspan class="cls-35" x="984.1" y="734.12">ŷ</tspan><tspan class="cls-83" x="1000.09" y="734.12">	</tspan><tspan class="cls-81" x="1020.1" y="734.12">Ÿ</tspan><tspan class="cls-82" x="1042.63" y="734.12">	</tspan><tspan x="1056.1" y="734.12">Ź</tspan><tspan class="cls-84" x="1078.96" y="734.12">	</tspan><tspan x="1092.1" y="734.12">ź</tspan><tspan class="cls-85" x="1108.48" y="734.12">	</tspan><tspan x="1128.1" y="734.12">Ż</tspan><tspan class="cls-84" x="1150.96" y="734.12">	</tspan><tspan x="1164.1" y="734.12">ż</tspan><tspan class="cls-85" x="1180.48" y="734.12">	</tspan><tspan x="1200.1" y="734.12">Ž</tspan><tspan class="cls-86" x="1222.96" y="734.12">	</tspan><tspan x="1236.1" y="734.12">ž</tspan><tspan class="cls-87" x="1252.48" y="734.12">	</tspan></text><text class="cls-2" transform="translate(331.55 68.53)">!<tspan class="cls-88" x="9.06" y="0">	</tspan><tspan x="36" y="0">&quot;</tspan><tspan class="cls-89" x="47.25" y="0">	</tspan><tspan x="72" y="0">#</tspan><tspan class="cls-90" x="103.05" y="0">	</tspan><tspan x="108" y="0">$</tspan><tspan class="cls-91" x="127.23" y="0">	</tspan><tspan x="144" y="0">%</tspan><tspan class="cls-92" x="173.19" y="0">	</tspan><tspan class="cls-93" x="180" y="0">&amp;</tspan><tspan class="cls-94" x="210.75" y="0">	</tspan><tspan x="216" y="0">&apos;</tspan><tspan class="cls-95" x="220.95" y="0">	</tspan><tspan x="252" y="0">(</tspan><tspan class="cls-96" x="262.26" y="0">	</tspan><tspan x="288" y="0">)</tspan><tspan class="cls-97" x="298.23" y="0">	</tspan><tspan x="324" y="0">*</tspan><tspan class="cls-98" x="341.25" y="0">	</tspan><tspan x="360" y="0">+</tspan><tspan class="cls-99" x="377.49" y="0">	</tspan><tspan x="396" y="0">,</tspan><tspan class="cls-100" x="404.07" y="0">	</tspan><tspan x="432" y="0">-</tspan><tspan class="cls-101" x="443.04" y="0">	</tspan><tspan x="468" y="0">.</tspan><tspan class="cls-102" x="476.34" y="0">	</tspan><tspan class="cls-103" x="0" y="36">/</tspan><tspan class="cls-104" x="14.01" y="36">	</tspan><tspan class="cls-105" x="36" y="36">	</tspan><tspan x="72" y="36">:</tspan><tspan class="cls-106" x="80.82" y="36">	</tspan><tspan class="cls-25" x="108" y="36">;</tspan><tspan class="cls-107" x="116.73" y="36">	</tspan><tspan x="144" y="36">&lt;</tspan><tspan class="cls-108" x="161.43" y="36">	</tspan><tspan x="180" y="36">=</tspan><tspan class="cls-109" x="197.67" y="36">	</tspan><tspan x="216" y="36">&gt;</tspan><tspan class="cls-110" x="233.43" y="36">	</tspan><tspan x="252" y="36">?</tspan><tspan class="cls-103" x="272.37" y="36"> </tspan><tspan class="cls-111" x="276.45" y="36">@</tspan><tspan x="317.67" y="36"> </tspan><tspan class="cls-112" x="322.83" y="36">[</tspan><tspan class="cls-113" x="332.19" y="36">	</tspan><tspan class="cls-103" x="360" y="36">\</tspan><tspan class="cls-104" x="374.01" y="36">	</tspan><tspan x="396" y="36">]</tspan><tspan class="cls-114" x="405.9" y="36">	</tspan><tspan class="cls-115" x="432" y="36">^</tspan><tspan class="cls-116" x="449.88" y="36">	</tspan><tspan x="468" y="36">_</tspan><tspan class="cls-117" x="484.02" y="36">	</tspan><tspan class="cls-115" x="504" y="36">{</tspan><tspan class="cls-118" x="512.52" y="36">	</tspan><tspan x="540" y="36">|</tspan><tspan class="cls-119" x="544.2" y="36">	</tspan><tspan class="cls-115" x="576" y="36">}</tspan><tspan class="cls-118" x="584.52" y="36">	</tspan><tspan class="cls-115" x="612" y="36">~</tspan><tspan class="cls-116" x="629.88" y="36">	</tspan><tspan x="648" y="36"></tspan></text><text class="cls-2" transform="translate(499.6 202.54)">0<tspan class="cls-120" x="21.96" y="0">	</tspan><tspan x="36" y="0">1</tspan><tspan class="cls-121" x="50.52" y="0">	</tspan><tspan x="72" y="0">2</tspan><tspan class="cls-122" x="92.58" y="0">	</tspan><tspan x="108" y="0">3</tspan><tspan class="cls-123" x="128.31" y="0">	</tspan><tspan x="144" y="0">4</tspan><tspan class="cls-124" x="165.51" y="0">	</tspan><tspan x="180" y="0">5</tspan><tspan class="cls-125" x="200.37" y="0">	</tspan><tspan x="216" y="0">6</tspan><tspan class="cls-126" x="236.52" y="0">	</tspan><tspan class="cls-25" x="252" y="0">7</tspan><tspan class="cls-127" x="272.79" y="0">	</tspan><tspan x="288" y="0">8</tspan><tspan class="cls-128" x="307.47" y="0">	</tspan><tspan x="324" y="0">9</tspan><tspan class="cls-3" x="0" y="36">A</tspan><tspan class="cls-4" x="22.29" y="36">	</tspan><tspan x="36" y="36">B</tspan><tspan class="cls-129" x="59.7" y="36">	</tspan><tspan x="72" y="36">C</tspan><tspan class="cls-12" x="96.66" y="36">	</tspan><tspan x="108" y="36">D</tspan><tspan class="cls-13" x="133.41" y="36">	</tspan><tspan x="144" y="36">E</tspan><tspan class="cls-15" x="167.91" y="36">	</tspan><tspan class="cls-130" x="180" y="36">F</tspan><tspan class="cls-131" x="201.09" y="36">	</tspan><tspan x="216" y="36">G</tspan><tspan class="cls-132" x="241.44" y="36">	</tspan><tspan x="252" y="36">H</tspan><tspan class="cls-23" x="279.84" y="36">	</tspan><tspan x="288" y="36">I</tspan><tspan class="cls-29" x="301.14" y="36">	</tspan><tspan x="324" y="36">J</tspan><tspan class="cls-31" x="336.54" y="36">	</tspan><tspan class="cls-33" x="360" y="36">K</tspan><tspan class="cls-19" x="385.44" y="36">	</tspan><tspan class="cls-35" x="396" y="36">L</tspan><tspan class="cls-38" x="417.39" y="36">	</tspan><tspan x="432" y="36">M</tspan><tspan class="cls-133" x="460.92" y="36">	</tspan><tspan x="468" y="36">N</tspan><tspan class="cls-51" x="492.81" y="36">	</tspan><tspan x="504" y="36">O</tspan><tspan class="cls-134" x="0" y="72">P</tspan><tspan class="cls-120" x="21.96" y="72">	</tspan><tspan x="36" y="72">Q</tspan><tspan class="cls-55" x="61.98" y="72">	</tspan><tspan class="cls-20" x="72" y="72">R</tspan><tspan class="cls-135" x="97.8" y="72">	</tspan><tspan x="108" y="72">S</tspan><tspan class="cls-64" x="128.76" y="72">	</tspan><tspan class="cls-62" x="144" y="72">T</tspan><tspan class="cls-73" x="167.88" y="72">	</tspan><tspan x="180" y="72">U</tspan><tspan class="cls-75" x="204.6" y="72">	</tspan><tspan x="216" y="72">V</tspan><tspan class="cls-136" x="239.52" y="72">	</tspan><tspan class="cls-20" x="252" y="72">W</tspan><tspan class="cls-79" x="285.75" y="72">	</tspan><tspan class="cls-93" x="288" y="72">X</tspan><tspan class="cls-137" x="313.92" y="72">	</tspan><tspan class="cls-81" x="324" y="72">Y</tspan><tspan class="cls-82" x="346.53" y="72">	</tspan><tspan x="360" y="72">Z</tspan><tspan class="cls-86" x="382.86" y="72">	</tspan></text><text class="cls-2" transform="translate(598.82 355.44)">a<tspan class="cls-5" x="16.62" y="0">	</tspan><tspan x="36" y="0">b</tspan><tspan class="cls-138" x="54.15" y="0">	</tspan><tspan x="72" y="0">c</tspan><tspan class="cls-11" x="87.51" y="0">	</tspan><tspan x="108" y="0">d</tspan><tspan class="cls-139" x="126.45" y="0">	</tspan><tspan x="144" y="0">e</tspan><tspan class="cls-17" x="159.54" y="0">	</tspan><tspan class="cls-140" x="180" y="0">f</tspan><tspan class="cls-141" x="191.7" y="0">	</tspan><tspan class="cls-20" x="216" y="0">g</tspan><tspan class="cls-21" x="233.94" y="0">	</tspan><tspan x="252" y="0">h</tspan><tspan class="cls-24" x="270.33" y="0">	</tspan><tspan class="cls-27" x="288" y="0">i</tspan><tspan class="cls-28" x="297.39" y="0">	</tspan><tspan x="324" y="0">j</tspan><tspan class="cls-142" x="332.91" y="0">	</tspan><tspan x="360" y="0">k</tspan><tspan class="cls-34" x="378.78" y="0">	</tspan><tspan x="396" y="0">l</tspan><tspan class="cls-37" x="405.27" y="0">	</tspan><tspan x="432" y="0">m</tspan><tspan class="cls-143" x="459.57" y="0">	</tspan><tspan x="468" y="0">n</tspan><tspan class="cls-50" x="486.42" y="0">	</tspan><tspan x="504" y="0">o</tspan><tspan x="0" y="36">p</tspan><tspan class="cls-144" x="18.21" y="36">	</tspan><tspan x="36" y="36">q</tspan><tspan class="cls-145" x="54.15" y="36">	</tspan><tspan class="cls-62" x="72" y="36">r</tspan><tspan class="cls-61" x="85.05" y="36">	</tspan><tspan x="108" y="36">s</tspan><tspan class="cls-146" x="122.97" y="36">	</tspan><tspan class="cls-147" x="144" y="36">t</tspan><tspan class="cls-69" x="155.37" y="36">	</tspan><tspan x="180" y="36">u</tspan><tspan class="cls-77" x="198.57" y="36">	</tspan><tspan class="cls-33" x="216" y="36">v</tspan><tspan class="cls-83" x="231.99" y="36">	</tspan><tspan class="cls-148" x="252" y="36">w</tspan><tspan class="cls-149" x="278.19" y="36">	</tspan><tspan x="288" y="36">x</tspan><tspan class="cls-150" x="305.07" y="36">	</tspan><tspan class="cls-35" x="324" y="36">y</tspan><tspan class="cls-151" x="339.99" y="36">	</tspan><tspan x="360" y="36">z</tspan></text><circle class="cls-152" cx="517.99" cy="483.95" r="78.42"/><path class="cls-153" d="M554.79,562A86.25,86.25,0,1,1,596,447.15,86.36,86.36,0,0,1,554.79,562ZM487.88,420.1a70.6,70.6,0,1,0,94,33.73A70.67,70.67,0,0,0,487.88,420.1Z"/><path class="cls-152" d="M518,558.19a74.58,74.58,0,0,1-67.18-42.58A74.26,74.26,0,0,1,517.94,409.7a74.24,74.24,0,0,1,31.72,141.38A73.58,73.58,0,0,1,518,558.19Z"/><path d="M518,413.89a70,70,0,0,1,29.92,133.4A69.46,69.46,0,0,1,518.05,554a70,70,0,0,1-29.93-133.4,69.43,69.43,0,0,1,29.82-6.71h0m0-8.38a78.44,78.44,0,1,0,71,45,78.08,78.08,0,0,0-71-45Z"/><path class="cls-154" d="M568.69,460a56.06,56.06,0,1,1-101.4,47.83"/><ellipse class="cls-155" cx="487.99" cy="476.69" rx="7.69" ry="19.36" transform="translate(-156.72 253.72) rotate(-25.25)"/><ellipse class="cls-155" cx="532.31" cy="455.79" rx="7.69" ry="19.36" transform="translate(-143.57 270.63) rotate(-25.25)"/><g class="cls-156"><path class="cls-157" d="M659.88,696.44l-8.94,2.89-23.3-29.87,8.94-2.9Z"/><path class="cls-157" d="M630.21,660.4l-9,2.9,5.4-15.9,8.94-2.9Z"/><path class="cls-157" d="M631.19,682.46l-8.94,2.9-22.86-57.55,8.94-2.9Z"/><path class="cls-152" d="M636.58,666.56l-5.39,15.9-2.44-6.14-.72-1.81-1.16-2.94-.91-2.29,0-.1-1.64-4.11-.41-1-1.16-2.93-2.07-5.21-.85-2.14-.9-2.24-1.08-2.73-.51-1.3-1-2.59-2-5-.46-1.16-.26-.65-1.35-3.38-.21-.54-.79-2-2.9-7.31,3.51,5.69.37.61,1,1.6,1.4,2.28,1.29,2.09,1,1.67,2.1,3.4,1,1.64.37.6.92,1.49,1.71,2.77,1,1.7,1.81,2.92,1,1.72.8,1.3.79,1.28,1.69,2.73,5.39-15.9,3.06,6.54,1.13,2.42,0,0L641,656l.82,1.73,2.8,6,.5,1.07,1.94,4.15,3.52,7.51.2.44.92,2,.16.34,8,17.17-11.7-15L647,679.93l-1.61-2.07-2.58-3.3Z"/></g><path class="cls-152" d="M1274.3,223.88a24.87,24.87,0,0,1-9.8-2.57,35.37,35.37,0,0,1-7.27-4.58c-4.36-3.55-7.08-7.34-8.09-11.27a27.61,27.61,0,0,1-6-1.75,31.07,31.07,0,0,1-7.53-4.59,27.4,27.4,0,0,1-6.86-7.92,15.57,15.57,0,0,1-2-10,38.5,38.5,0,0,1-13.43-2.5l-1.33-.53-1.36-.6a43.85,43.85,0,0,1-9.15-5.75,37,37,0,0,1-7.76-8.48l-.43-.69c-.21-.34-.39-.64-.56-.95a27.09,27.09,0,0,1-3.41-10.48l-.8.33-3.33-.13a25.17,25.17,0,0,1-9.8-2.57,35.42,35.42,0,0,1-7.27-4.59c-4.37-3.55-7.08-7.33-8.09-11.27a27.07,27.07,0,0,1-6-1.75,30.52,30.52,0,0,1-7.53-4.58,27.44,27.44,0,0,1-6.86-7.93,15,15,0,0,1-1.18-13.11l0-.11a51.5,51.5,0,0,1,4-7.46l.71-1.11,1.19-1.83c1.16-1.78,2.42-3.63,3.75-5.51,2-2.9,4.18-5.86,6.39-8.8s4.34-5.66,6.22-7.91l4-4.76,6.69-.18h.66a28.28,28.28,0,0,1,8.08,1.23,25.44,25.44,0,0,1,8.81,4.64,18.75,18.75,0,0,1,6.8,10.19,14.13,14.13,0,0,1,.32,1.93c.87.29,1.71.6,2.52.94a26.72,26.72,0,0,1,4.7,2.6l.24.17,4,3.37.22.22a22.51,22.51,0,0,1,3.55,4.68l2,.36a27.56,27.56,0,0,1,7.25,2.32,28.14,28.14,0,0,1,5.59,3.52A19.23,19.23,0,0,1,1233,114a13,13,0,0,1,.41,2.22,40,40,0,0,1,6.94,1.81c.88.32,1.77.67,2.63,1l1.38.65a42,42,0,0,1,8.11,5.2,37.07,37.07,0,0,1,6.86,7.2l.78,1.14c.43.66.8,1.29,1.14,1.91a29.05,29.05,0,0,1,2.28,5.36,29.31,29.31,0,0,1,5.76,1.13,25.11,25.11,0,0,1,8.81,4.64,18.68,18.68,0,0,1,6.8,10.19,14.13,14.13,0,0,1,.32,1.93c.87.28,1.71.6,2.52.94a26,26,0,0,1,4.7,2.59l.24.17,4,3.37.22.23a22.2,22.2,0,0,1,3.55,4.67l2,.36a28.28,28.28,0,0,1,12.83,5.84,19.19,19.19,0,0,1,6.78,9.89c1.47,5.44-.48,11.06-5.34,15.43a43.85,43.85,0,0,1-4.91,3.66c-1.71,1.12-3.67,2.36-5.83,3.66s-4.48,2.65-6.89,4-4.65,2.58-6.88,3.78-4.34,2.32-6.28,3.29c-2.16,1.1-3.91,1.91-5.34,2.49l-3,1.24Z"/><path class="cls-153" d="M1172.08,70.42a25.84,25.84,0,0,1,7.36,1.13,22.85,22.85,0,0,1,7.94,4.18,16.26,16.26,0,0,1,5.95,8.83,12.17,12.17,0,0,1,.31,3.23,32.77,32.77,0,0,1,4,1.36,23.35,23.35,0,0,1,4.25,2.36l.15.1,3.86,3.22.14.14a18.92,18.92,0,0,1,3.6,5,.61.61,0,0,1,.07.14l3.25.58a25.63,25.63,0,0,1,11.69,5.32,16.77,16.77,0,0,1,5.95,8.59,11.1,11.1,0,0,1,.35,3.75,37.57,37.57,0,0,1,8.56,2c.84.3,1.66.63,2.47,1l1.34.62a40,40,0,0,1,7.58,4.88,35,35,0,0,1,6.41,6.71l.74,1.09c.36.56.7,1.13,1,1.71a25.43,25.43,0,0,1,2.54,6.56,26.17,26.17,0,0,1,7,1.12,22.7,22.7,0,0,1,7.94,4.19,16.26,16.26,0,0,1,6,8.83,11.66,11.66,0,0,1,.31,3.22,31.15,31.15,0,0,1,4,1.37A23.9,23.9,0,0,1,1291,164l.15.11,3.86,3.21.14.14a18.92,18.92,0,0,1,3.6,5,1,1,0,0,1,.07.15l3.25.58a25.57,25.57,0,0,1,6.6,2.1,26.29,26.29,0,0,1,5.09,3.21,16.79,16.79,0,0,1,6,8.6c1.21,4.49-.47,9.2-4.6,12.92a39.77,39.77,0,0,1-4.62,3.43c-1.69,1.11-3.62,2.33-5.74,3.61s-4.44,2.63-6.81,4-4.64,2.57-6.85,3.76-4.33,2.3-6.23,3.26c-2.1,1.06-3.79,1.85-5.16,2.41l-2.53,1-2.8-.11a22.57,22.57,0,0,1-8.83-2.33,33.3,33.3,0,0,1-6.75-4.26c-5.22-4.24-7.18-8.23-7.55-11.59a23.58,23.58,0,0,1-7.19-1.8,28.16,28.16,0,0,1-6.91-4.22,24.92,24.92,0,0,1-6.25-7.19,12.6,12.6,0,0,1-1-11l0-.1.15-.35c-.94.08-1.88.13-2.83.14h-.3a36.16,36.16,0,0,1-12.76-2.34l-1.25-.5-1.31-.58a40.68,40.68,0,0,1-8.58-5.4,34.61,34.61,0,0,1-7.24-7.9l-.42-.66c-.17-.28-.33-.56-.49-.84a24.45,24.45,0,0,1-3.21-11c0-.63,0-1.27,0-1.91l-1.1.46-2.53,1-2.8-.11a22.53,22.53,0,0,1-8.83-2.33,33.35,33.35,0,0,1-6.75-4.27c-5.22-4.24-7.18-8.23-7.55-11.59a23.3,23.3,0,0,1-7.19-1.8,28.42,28.42,0,0,1-6.91-4.21,25.18,25.18,0,0,1-6.25-7.19,12.6,12.6,0,0,1-1-11l0-.1a49.31,49.31,0,0,1,3.83-7l.69-1.09,1.18-1.82c1.15-1.74,2.38-3.56,3.7-5.43,2-2.88,4.16-5.82,6.35-8.74s4.29-5.6,6.14-7.81l3.26-3.89,5.56-.15h.6m0-5h-.74l-5.56.15-2.25.06-1.45,1.73-3.25,3.9c-1.92,2.28-4,5-6.31,8s-4.39,6-6.44,8.86c-1.34,1.9-2.61,3.78-3.79,5.56l-1.19,1.85-.74,1.16a53.51,53.51,0,0,0-4.22,7.81v0l0,.1a17.78,17.78,0,0,0,1.31,15.25,30.08,30.08,0,0,0,7.47,8.66,33.43,33.43,0,0,0,8.15,4.95,29.45,29.45,0,0,0,5,1.61c1.39,3.9,4.23,7.6,8.46,11a38.12,38.12,0,0,0,7.78,4.91,27.55,27.55,0,0,0,10.77,2.81l2.13.08a30.18,30.18,0,0,0,3.33,8.93c.19.33.38.66.58,1l0,0,0,0,.42.66,0,0v0a39.22,39.22,0,0,0,8.29,9.06,46,46,0,0,0,9.63,6.06l0,0,0,0,1.32.57,0,0,0,0c.47.2.94.39,1.42.56a41,41,0,0,0,11.67,2.57,19,19,0,0,0,2.45,8.83,29.92,29.92,0,0,0,7.47,8.65,33.12,33.12,0,0,0,8.15,4.95,30.72,30.72,0,0,0,5,1.62c1.39,3.89,4.23,7.59,8.46,11a38.56,38.56,0,0,0,7.78,4.91,27.53,27.53,0,0,0,10.77,2.8l2.79.11,1.08,0,1-.41,2.54-1c1.5-.61,3.31-1.45,5.53-2.57,1.95-1,4.08-2.11,6.34-3.33s4.59-2.5,6.92-3.8,4.75-2.71,6.95-4,4.18-2.57,5.91-3.72a42.73,42.73,0,0,0,5.21-3.89c5.51-4.94,7.78-11.65,6.09-17.93a21.68,21.68,0,0,0-7.62-11.18,30.45,30.45,0,0,0-6.09-3.83,30.9,30.9,0,0,0-7.88-2.53l-.91-.16a24.93,24.93,0,0,0-3.32-4.16l-.14-.14-.18-.18-.19-.16-3.86-3.22-.17-.14L1294,160l-.15-.11a29.12,29.12,0,0,0-5.15-2.84l-1.23-.49c0-.22-.09-.43-.14-.65a21.22,21.22,0,0,0-7.66-11.55,27.87,27.87,0,0,0-9.68-5.1,33.5,33.5,0,0,0-4.61-1,33.29,33.29,0,0,0-2-4.27c-.37-.66-.77-1.34-1.2-2l0-.05,0,0-.74-1.09,0-.05,0,0a39.73,39.73,0,0,0-7.32-7.69,45.06,45.06,0,0,0-8.54-5.49l0,0,0,0-1.34-.62,0,0,0,0c-.91-.41-1.86-.79-2.8-1.12a42.3,42.3,0,0,0-5.59-1.59l-.18-.74a21.67,21.67,0,0,0-7.63-11.17,30.52,30.52,0,0,0-14-6.36l-.9-.16a25.56,25.56,0,0,0-3.32-4.16l-.14-.15-.18-.18-.19-.15-3.86-3.22-.17-.15-.19-.13-.16-.1a28.09,28.09,0,0,0-5.14-2.84l-1.24-.5c0-.21-.08-.43-.13-.64a21.25,21.25,0,0,0-7.66-11.56,27.85,27.85,0,0,0-9.68-5.09,30.66,30.66,0,0,0-8.78-1.34Z"/><path class="cls-158" d="M1277.87,216.77c1.26-.51,2.83-1.24,4.83-2.25s3.91-2,6.11-3.2,4.48-2.45,6.79-3.74,4.58-2.61,6.68-3.88,4-2.44,5.6-3.52a35.49,35.49,0,0,0,4.13-3.05c4.28-3.85,4-7.66,3.53-9.6a13.4,13.4,0,0,0-4.77-6.81,21.46,21.46,0,0,0-4.27-2.69,20.74,20.74,0,0,0-5.41-1.73l-3.33-.59-2,1.46a9.41,9.41,0,0,0-1-3.71,15.74,15.74,0,0,0-3-4.1l-3.57-3a19.37,19.37,0,0,0-3.49-1.94,29,29,0,0,0-5-1.54l-1.9-.42a8.86,8.86,0,0,0,.33-5.1,13,13,0,0,0-4.74-7,18.65,18.65,0,0,0-6.46-3.4,20.8,20.8,0,0,0-6.45-.93l-2.77.08a21.79,21.79,0,0,0-2.69-8.68,29,29,0,0,0-7.26-8.45,34.74,34.74,0,0,0-10.14-5.78,32.23,32.23,0,0,0-11.36-1.92l-.84,0a8.4,8.4,0,0,0,.85-6.32,13.46,13.46,0,0,0-4.77-6.82,21.93,21.93,0,0,0-4.27-2.69,21.11,21.11,0,0,0-5.41-1.72l-3.33-.6-2,1.47a9.46,9.46,0,0,0-1-3.72,15.76,15.76,0,0,0-3-4.09l-3.57-3a19.93,19.93,0,0,0-3.49-1.93,28.13,28.13,0,0,0-5-1.55l-1.9-.42a8.86,8.86,0,0,0,.33-5.1,12.93,12.93,0,0,0-4.75-7,18.38,18.38,0,0,0-6.45-3.41,20.48,20.48,0,0,0-6.45-.92l-3.45.09-2,2.42c-1.81,2.16-3.83,4.73-6,7.65s-4.28,5.8-6.28,8.65-3.87,5.65-5.46,8.19a44.61,44.61,0,0,0-3.55,6.49l0,.08a9.57,9.57,0,0,0,.86,8.32,21.34,21.34,0,0,0,5.36,6.13,23.84,23.84,0,0,0,5.87,3.6,18.4,18.4,0,0,0,6.38,1.5l2.11.08,1.51-.78c-1.2,3.19-.86,7.81,5.78,13.21a29,29,0,0,0,5.9,3.73,17.9,17.9,0,0,0,7,1.89l1.74.07,1.57-.64c1.26-.51,2.83-1.25,4.83-2.26,1.23-.62,2.55-1.3,3.93-2a20.63,20.63,0,0,0-1.68,8.84,21.26,21.26,0,0,0,2.8,9.6,29.67,29.67,0,0,0,7.27,8.37,35.88,35.88,0,0,0,10,5.8,30.77,30.77,0,0,0,21.78.1l-.24.39a44.61,44.61,0,0,0-3.55,6.5l0,.07a9.55,9.55,0,0,0,.85,8.33,21.48,21.48,0,0,0,5.36,6.13,23.89,23.89,0,0,0,5.88,3.6,18.5,18.5,0,0,0,6.37,1.49l2.11.09,1.51-.79c-1.2,3.2-.86,7.82,5.78,13.22a29.42,29.42,0,0,0,5.9,3.73,18.25,18.25,0,0,0,7,1.89l1.73.07ZM1165.51,98.41c1.93-2.75,4-5.56,6.07-8.36q1.5-2,2.87-3.75l.34.25a5.78,5.78,0,0,1,.54.51l-.1.12c-2.72,3.18-5,5.88-6.8,8l-4,4.83Zm-5,14.61a10.71,10.71,0,0,1-2.27-2.39l4.62,3.75-.17.08A11.2,11.2,0,0,1,1160.46,113Zm42.45,9.62c2.86-2,5.75-4.06,8.65-6.15a6.63,6.63,0,0,1,.73.57c-.39.3-1,.72-1.89,1.32-1.48,1-3.21,2.06-5.12,3.22-1.68,1-3.45,2.05-5.3,3.09Zm-20.8,8a11.27,11.27,0,0,1-1.84-1.77l.1-.18,4.84,3.93h0A15.19,15.19,0,0,1,1182.11,130.62Zm27.5,17.66a10.54,10.54,0,0,1,1.12-5,17.2,17.2,0,0,1,4.12-5.22,19.86,19.86,0,0,1,5.83-3.72,15.93,15.93,0,0,1,5.76-1.2,16.89,16.89,0,0,1,2.13.11c-.45,0-.91.1-1.37.18a22.3,22.3,0,0,0-11,5.75c-3.57,3.21-5.65,6.51-6.2,9.8a10.43,10.43,0,0,0-.13,1.24A10.07,10.07,0,0,1,1209.61,148.28Zm14.26,2.46-.18-.17a.2.2,0,0,1,0-.07c.09-.57.79-1.71,2.46-3.22,2.08-1.86,3.29-2.19,3.62-2.25h0c.08.06.26.2.33.27h0c0,.28-.37,1.34-2.44,3.2a9,9,0,0,1-3.69,2.32Zm3.36,12.08a14.46,14.46,0,0,1-2.55-.19,16.78,16.78,0,0,0,2.07-.27,22.72,22.72,0,0,0,10.86-5.77c3.5-3.15,5.58-6.4,6.16-9.67,0-.31.1-.62.12-.94a10.2,10.2,0,0,1,.2,1.64,10.48,10.48,0,0,1-1.11,5,16.81,16.81,0,0,1-4,5.11,21,21,0,0,1-6.07,3.93A15.15,15.15,0,0,1,1227.23,162.82Zm27.42,8.07c1.93-2.75,4-5.56,6.07-8.35q1.5-2,2.87-3.75a2.7,2.7,0,0,1,.34.25,4.79,4.79,0,0,1,.54.5l-.1.13c-2.72,3.17-5,5.87-6.8,8l-4,4.84Zm-5.05,14.61a10.5,10.5,0,0,1-2.27-2.39l4.62,3.76-.17.08A11.37,11.37,0,0,1,1249.6,185.5Zm42.46,9.63c2.85-2,5.74-4.06,8.64-6.15a6.63,6.63,0,0,1,.73.57c-.39.29-1,.72-1.89,1.31-1.48,1-3.21,2.07-5.12,3.22q-2.52,1.53-5.3,3.1Zm-20.81,8a12.12,12.12,0,0,1-1.84-1.78l.1-.18,4.84,3.93h0A15.13,15.13,0,0,1,1271.25,203.11Z"/><path d="M1234.94,154.9c3-2.65,4.67-5.31,5.14-7.91a7.86,7.86,0,0,0-3.17-7.73,11.14,11.14,0,0,0-9.19-2.31,18.35,18.35,0,0,0-9,4.78h0c-3,2.7-4.73,5.39-5.17,8a7.58,7.58,0,0,0,.5,4.31,9.26,9.26,0,0,0,2.7,3.42,11,11,0,0,0,9.25,2.25A18.81,18.81,0,0,0,1234.94,154.9Zm-13.31-1.79a2.56,2.56,0,0,1-1.13-2.6c.22-1.33,1.36-2.95,3.28-4.68h0a11.52,11.52,0,0,1,5.25-3,3.44,3.44,0,0,1,3,.81,2.46,2.46,0,0,1,1.11,2.54c-.24,1.33-1.37,2.93-3.26,4.63a11.69,11.69,0,0,1-5.3,3.08A3.29,3.29,0,0,1,1221.63,153.11Z"/><path d="M1246,163.87a25.18,25.18,0,0,0,6-7.75,17.9,17.9,0,0,0,1.85-8.48,18.55,18.55,0,0,0-2.37-8.27A25.35,25.35,0,0,0,1245,132a30.14,30.14,0,0,0-8.92-5.11,27.74,27.74,0,0,0-9.78-1.65,27.45,27.45,0,0,0-9.81,2,28.87,28.87,0,0,0-3.18,1.52c1.3-.8,2.49-1.56,3.57-2.27a31.39,31.39,0,0,0,3.65-2.7c3-2.65,3.06-5.16,2.62-6.8a10.51,10.51,0,0,0-3.74-5.28,17.57,17.57,0,0,0-3.53-2.22,17.05,17.05,0,0,0-4.37-1.4l-1.69-.3-1.33,1c-3.07,2.24-6.16,4.47-9.21,6.62,1.22-1.89,2.42-3.77,3.58-5.59l0-.08a6.14,6.14,0,0,0,.17-6,14.19,14.19,0,0,0-3.94-4.71,17.68,17.68,0,0,0-4.29-2.67,24.73,24.73,0,0,0-4.21-1.32l-1.49-.32-1.3.71L1181,99.2l-1,.53c1.36-1.61,2.93-3.45,4.68-5.5,1.94-2.27,2.66-4.54,2.14-6.74a10,10,0,0,0-3.7-5.36,14.55,14.55,0,0,0-5.14-2.72,16.41,16.41,0,0,0-5.13-.76l-1.75,0-1,1.23c-1.73,2.07-3.67,4.54-5.77,7.34s-4.14,5.61-6.08,8.36-3.72,5.43-5.24,7.87a42.09,42.09,0,0,0-3.26,5.92v0a6.61,6.61,0,0,0,.26,5.19c.12.29.27.58.43.88a18.13,18.13,0,0,0,4.54,5.17,20.71,20.71,0,0,0,4.94,3,14.46,14.46,0,0,0,5,1.18l1.06,0,.92-.47c.9-.47,2.15-1.09,3.72-1.85l5-2.44c-.73,1.23-1.41,2.42-2,3.53l-1.84,3.29,0,0c-1.74,3.33-.24,7,4.47,10.79a25.14,25.14,0,0,0,5.1,3.23,14.06,14.06,0,0,0,5.43,1.51l.88,0,.8-.32c1.13-.46,2.58-1.14,4.44-2.08s3.77-1.94,5.88-3.08,4.34-2.37,6.58-3.62,4.19-2.39,6.13-3.55a31,31,0,0,0-3.58,2.78,25.58,25.58,0,0,0-6.11,7.86,17.9,17.9,0,0,0-1.85,8.48,17.58,17.58,0,0,0,1.5,6.43c.27.62.58,1.23.92,1.84a26,26,0,0,0,6.41,7.36,31.88,31.88,0,0,0,8.8,5.14,26.35,26.35,0,0,0,19.57-.25A30.92,30.92,0,0,0,1246,163.87Zm-83-45.53a13.16,13.16,0,0,1-3.21-2,12.47,12.47,0,0,1-3.06-3.41,2.29,2.29,0,0,1-.4-1.62,35.4,35.4,0,0,1,2.79-5c1.47-2.35,3.18-4.9,5.08-7.6s3.91-5.47,6-8.22c1.56-2.09,3-4,4.39-5.65.32.07.67.16,1,.26a7.61,7.61,0,0,1,2.66,1.44,4.49,4.49,0,0,1,1.7,2.26c.15.62-.51,1.51-.91,2-2.64,3.08-4.87,5.71-6.62,7.79l-4.22,5-2.51,3c-.61.74-1.08,1.33-1.43,1.81l-1.54,2.08,4.41,3.59,2.36-1.47c.72-.45,1.85-1.09,3.35-1.92s3.38-1.85,5.33-2.9,4.22-2.3,6.54-3.58l5.54-3.08a14,14,0,0,1,1.47.53,9.37,9.37,0,0,1,1.87,1.1L1183.32,109c-1.64,1-3.43,2-5.32,3s-3.85,2-5.68,2.91-3.63,1.8-5.19,2.55l-2.75,1.36A8.11,8.11,0,0,1,1163,118.34Zm26.19,16.74c-1.13.58-2.11,1-2.91,1.41a11.22,11.22,0,0,1-1.7-.65,18.51,18.51,0,0,1-3.68-2.34c-2.43-2-3.23-3.44-3-4l1.8-3.22c.74-1.31,1.57-2.74,2.46-4.24s1.87-3.06,2.91-4.62,2.07-3,3.11-4.36l6.92-9a7.06,7.06,0,0,1,1.49,1.94c.28.59.18.84.09,1-1.2,1.9-2.46,3.86-3.73,5.82s-2.38,3.67-3.42,5.24-2,3-2.84,4.28-1.43,2.13-1.91,2.75l-1.59,2.09,4.59,3.74,2.4-1.63c3.62-2.45,7.39-5,11.18-7.71,3.35-2.34,6.76-4.78,10.16-7.25a7.12,7.12,0,0,1,.86.36,11.43,11.43,0,0,1,2.16,1.35,4.9,4.9,0,0,1,1.77,2.34c.11.39-.54,1-.82,1.29a26.89,26.89,0,0,1-2.85,2.06c-1.48,1-3.2,2.06-5.11,3.21s-4,2.39-6.2,3.6-4.38,2.44-6.48,3.57S1190.93,134.21,1189.2,135.08Zm37.93,30.56a18.89,18.89,0,0,1-6.85-1.25,24.66,24.66,0,0,1-6.84-4,20,20,0,0,1-5-5.64,13.11,13.11,0,0,1-1.75-5.9,12.74,12.74,0,0,1,1.33-6,19.62,19.62,0,0,1,4.68-6,22.73,22.73,0,0,1,6.68-4.24,19.22,19.22,0,0,1,6.93-1.43,19.53,19.53,0,0,1,7,1.19,23.43,23.43,0,0,1,6.84,3.94,19.57,19.57,0,0,1,4.91,5.65c.23.42.44.84.62,1.26a12.28,12.28,0,0,1-.22,10.69,19,19,0,0,1-4.56,5.85,23.7,23.7,0,0,1-6.9,4.44A18.82,18.82,0,0,1,1227.13,165.64Z"/><path d="M1275.17,213c1.13-.46,2.58-1.14,4.44-2.08s3.77-1.94,5.88-3.08,4.34-2.37,6.58-3.62,4.4-2.5,6.41-3.72,3.79-2.34,5.35-3.36a33.78,33.78,0,0,0,3.65-2.69c3-2.66,3.06-5.17,2.62-6.81a10.52,10.52,0,0,0-3.75-5.28,17.66,17.66,0,0,0-3.52-2.22,17.05,17.05,0,0,0-4.37-1.4l-1.69-.3-1.33,1c-3.07,2.25-6.16,4.47-9.21,6.62,1.22-1.89,2.42-3.77,3.58-5.59l0-.08a6.14,6.14,0,0,0,.17-6,14.31,14.31,0,0,0-3.94-4.71,17.87,17.87,0,0,0-4.29-2.67,24.73,24.73,0,0,0-4.21-1.32l-1.49-.32-1.3.72-6.93,3.84-1,.53c1.36-1.61,2.93-3.45,4.68-5.5,1.94-2.27,2.66-4.54,2.14-6.74a10,10,0,0,0-3.7-5.36,14.64,14.64,0,0,0-5.14-2.72,16.1,16.1,0,0,0-5.13-.75l-1.75,0-1,1.23c-1.73,2.07-3.67,4.54-5.77,7.34s-4.14,5.61-6.08,8.36-3.72,5.43-5.25,7.87a41.8,41.8,0,0,0-3.25,5.92v0a6.61,6.61,0,0,0,.26,5.19c.12.29.27.58.43.88a18.13,18.13,0,0,0,4.54,5.17,20.15,20.15,0,0,0,4.93,3,14.56,14.56,0,0,0,5,1.18l1.06,0,.92-.47c.91-.47,2.13-1.08,3.71-1.85l5-2.44c-.73,1.23-1.41,2.42-2,3.53l-1.84,3.29,0,.05c-1.74,3.33-.24,7,4.47,10.79a24.71,24.71,0,0,0,5.1,3.23,14.06,14.06,0,0,0,5.43,1.51l.88,0Zm-25.25-24a13.54,13.54,0,0,1-3.21-2,12.47,12.47,0,0,1-3.06-3.41,2.29,2.29,0,0,1-.4-1.62,35.4,35.4,0,0,1,2.79-5c1.47-2.35,3.18-4.9,5.08-7.6s3.91-5.47,6-8.22c1.56-2.09,3-4,4.39-5.65.32.07.67.16,1,.27a7.42,7.42,0,0,1,2.66,1.43,4.55,4.55,0,0,1,1.7,2.26c.15.62-.51,1.51-.91,2-2.64,3.09-4.87,5.71-6.62,7.79l-4.22,5.05-2.51,3c-.61.74-1.08,1.33-1.43,1.81l-1.54,2.09,4.4,3.58,2.37-1.47c.72-.45,1.85-1.09,3.35-1.92s3.38-1.85,5.33-2.9,4.23-2.3,6.53-3.58l5.55-3.08a13.08,13.08,0,0,1,1.46.53,9.14,9.14,0,0,1,1.88,1.1l-10.28,6.21c-1.64,1-3.44,2-5.32,3s-3.85,2-5.68,2.91-3.63,1.8-5.19,2.55l-2.75,1.36A8.92,8.92,0,0,1,1249.92,189Zm21.58,17.49a18.22,18.22,0,0,1-3.68-2.34c-2.43-2-3.23-3.44-3-4l1.8-3.22c.74-1.31,1.57-2.74,2.46-4.24s1.87-3.05,2.91-4.62,2.07-3,3.11-4.36l6.92-9a7.14,7.14,0,0,1,1.49,2c.28.58.18.83.09,1-1.2,1.9-2.46,3.86-3.73,5.82s-2.38,3.66-3.42,5.24l-2.84,4.29c-.79,1.19-1.43,2.12-1.91,2.74l-1.59,2.09,4.59,3.74,2.4-1.63c3.62-2.45,7.38-5,11.18-7.71,3.35-2.34,6.76-4.78,10.16-7.25a7.12,7.12,0,0,1,.86.36,11,11,0,0,1,2.15,1.35,4.87,4.87,0,0,1,1.78,2.34c.11.4-.54,1-.83,1.29a26.25,26.25,0,0,1-2.84,2.06c-1.48,1-3.2,2.06-5.11,3.21s-4,2.39-6.2,3.6-4.38,2.44-6.48,3.57-4,2.11-5.7,3q-1.71.87-2.91,1.41A11.22,11.22,0,0,1,1271.5,206.51Z"/><path class="cls-152" d="M1196.67,134.56c2.11-1.14,4.29-2.34,6.52-3.59s4.34-2.47,6.31-3.66,3.71-2.29,5.23-3.29a29.61,29.61,0,0,0,3.25-2.38q2.26-2,1.72-4a7.59,7.59,0,0,0-2.76-3.81,14.1,14.1,0,0,0-2.84-1.79,13.44,13.44,0,0,0-3.39-1.08q-5.82,4.26-11.57,8.28T1188,126.88l-.32-.25c.53-.69,1.2-1.66,2-2.91s1.77-2.68,2.84-4.29,2.21-3.36,3.43-5.26,2.49-3.86,3.77-5.88a3.53,3.53,0,0,0,0-3.52,11.3,11.3,0,0,0-3.13-3.7,14.62,14.62,0,0,0-3.44-2.17,21,21,0,0,0-3.54-1.1l-6.93,3.84c-2.32,1.29-4.48,2.48-6.5,3.56l-5.35,2.92q-2.34,1.29-3.51,2l-.26-.2c.33-.44.77-1,1.34-1.69l2.49-3,4.22-5q2.58-3.09,6.6-7.78,2-2.34,1.52-4.35a7.21,7.21,0,0,0-2.69-3.82,11.46,11.46,0,0,0-3.91-2.08,12.31,12.31,0,0,0-3.88-.58q-2.55,3-5.67,7.21t-6,8.29q-2.91,4.13-5.16,7.73a40.34,40.34,0,0,0-3,5.49,4.49,4.49,0,0,0,.55,3.85,15,15,0,0,0,3.8,4.29,16.53,16.53,0,0,0,4.07,2.53,10.74,10.74,0,0,0,3.6.89c.94-.49,2.21-1.12,3.79-1.89l5.21-2.57q2.83-1.41,5.76-3t5.51-3.11c-1.09,1.41-2.17,2.93-3.24,4.54s-2.06,3.19-3,4.74-1.75,3-2.49,4.3l-1.83,3.28q-1.62,3.07,3.71,7.41a21.37,21.37,0,0,0,4.38,2.78,10.74,10.74,0,0,0,3.92,1.15q1.55-.63,4.17-2T1196.67,134.56Z"/><path class="cls-152" d="M1243.37,161.76a21.81,21.81,0,0,0,5.28-6.8,15.34,15.34,0,0,0,1.59-7.24,16,16,0,0,0-2-7.11,22.52,22.52,0,0,0-5.65-6.53,26.8,26.8,0,0,0-7.89-4.53,23.62,23.62,0,0,0-8.37-1.42,23.16,23.16,0,0,0-8.38,1.72,26.1,26.1,0,0,0-7.74,4.9,22.37,22.37,0,0,0-5.4,6.91,15.34,15.34,0,0,0-1.59,7.24,15.6,15.6,0,0,0,2.08,7.08,23.17,23.17,0,0,0,5.68,6.51,28.42,28.42,0,0,0,7.83,4.58,22.34,22.34,0,0,0,16.65-.22A27,27,0,0,0,1243.37,161.76Zm-24.24-6.53a5.23,5.23,0,0,1-2.17-5.16q.49-3,4.23-6.35a14.68,14.68,0,0,1,7.11-3.9,7.26,7.26,0,0,1,6.11,1.57,5.15,5.15,0,0,1,2.13,5.13q-.52,3-4.2,6.27a15.07,15.07,0,0,1-7.11,4A7.12,7.12,0,0,1,1219.13,155.23Z"/><path class="cls-152" d="M1277.78,208.27q2.63-1.34,5.8-3c2.11-1.14,4.29-2.34,6.52-3.59s4.34-2.47,6.31-3.66,3.71-2.29,5.23-3.29a29.61,29.61,0,0,0,3.25-2.38c1.5-1.35,2.08-2.7,1.72-4a7.59,7.59,0,0,0-2.76-3.81,14.1,14.1,0,0,0-2.84-1.79,13.44,13.44,0,0,0-3.39-1.08q-5.83,4.26-11.57,8.28t-11.14,7.69l-.32-.26c.53-.69,1.2-1.66,2-2.91l2.83-4.28q1.6-2.42,3.44-5.27c1.23-1.89,2.49-3.86,3.77-5.88a3.53,3.53,0,0,0,0-3.52,11.3,11.3,0,0,0-3.13-3.7,14.62,14.62,0,0,0-3.44-2.17,21,21,0,0,0-3.54-1.1l-6.93,3.84q-3.48,1.94-6.5,3.56c-2,1.09-3.8,2.06-5.35,2.92s-2.73,1.53-3.51,2l-.26-.2c.33-.44.77-1,1.34-1.69s1.4-1.69,2.49-3l4.22-5q2.58-3.09,6.6-7.78,2-2.34,1.52-4.35a7.27,7.27,0,0,0-2.69-3.82,11.46,11.46,0,0,0-3.91-2.08,12.6,12.6,0,0,0-3.88-.58q-2.55,3-5.67,7.21t-6,8.29q-2.91,4.13-5.16,7.73a40.34,40.34,0,0,0-3,5.49,4.45,4.45,0,0,0,.55,3.85,15.15,15.15,0,0,0,3.79,4.29,16.76,16.76,0,0,0,4.08,2.53,10.74,10.74,0,0,0,3.6.89c.94-.49,2.21-1.12,3.79-1.89l5.21-2.57q2.83-1.41,5.76-3t5.51-3.11q-1.64,2.13-3.24,4.54c-1.06,1.61-2.06,3.19-3,4.74s-1.75,3-2.49,4.3l-1.83,3.28q-1.62,3.08,3.7,7.41a21.71,21.71,0,0,0,4.39,2.78,10.54,10.54,0,0,0,3.92,1.15Q1275.17,209.59,1277.78,208.27Z"/></g></g></svg>