<svg xmlns="http://www.w3.org/2000/svg" xmlns:xlink="http://www.w3.org/1999/xlink" viewBox="0 0 1216.36 753.94"><defs><style>.cls-1{fill:none;}.cls-2{fill:#edb34f;}.cls-2,.cls-3,.cls-4{stroke:#fff;stroke-width:22px;}.cls-3,.cls-6{fill:#c5403a;}.cls-4,.cls-7{fill:#4c96d9;}.cls-5{clip-path:url(#clip-path);}.cls-8{fill:#fff;opacity:0.8;}</style><clipPath id="clip-path"><rect class="cls-1" x="14.23" y="465.1" width="195.16" height="256.51"/></clipPath></defs><g id="Calque_2" data-name="Calque 2"><g id="Calque_11" data-name="Calque 11"><polygon class="cls-2" points="209.38 711.61 180.53 721.61 123.27 643.15 116.83 663.45 87.98 673.45 14.23 475.09 43.08 465.09 54.4 484.71 55.61 486.82 58.8 492.33 63.32 500.18 67.48 507.39 70.8 513.14 77.55 524.85 80.82 530.51 82.02 532.57 84.98 537.72 90.5 547.27 93.87 553.12 97.09 558.7 102.2 542.6 131.05 532.61 140.93 555.17 144.57 563.49 144.62 563.63 148.45 572.38 151.07 578.36 160.13 599.07 161.75 602.76 168 617.06 179.34 642.96 180 644.47 182.96 651.23 183.48 652.41 209.38 711.61"/><polygon class="cls-3" points="73.67 547.38 72 542.9 68.68 533.95 73.67 547.38"/><polygon class="cls-4" points="73.67 547.38 72 542.9 68.68 533.95 73.67 547.38"/><g class="cls-5"><path class="cls-6" d="M209.38,711.61l-28.85,10-75.16-103,28.85-10Z"/><path class="cls-6" d="M113.66,587.42l-28.85,10L102.2,542.6l28.85-10Z"/><path class="cls-6" d="M116.83,663.46,88,673.45,14.23,475.09l28.85-10Z"/><path class="cls-7" d="M134.22,608.64l-17.39,54.82L109,642.3l-2.33-6.25-3.76-10.13L99.94,618l-.12-.34L94.55,603.5l-1.33-3.57-3.76-10.12-6.67-17.92-2.74-7.39-2.89-7.74-3.49-9.38L72,542.91,68.68,534l-6.35-17.1-1.49-4L60,510.64,55.68,499,55,497.13l-2.55-6.85L43.08,465.1,54.4,484.71l1.21,2.11,3.19,5.51,4.52,7.85,4.16,7.21,3.32,5.76,6.75,11.7,3.27,5.66,1.2,2.06,3,5.15,5.52,9.55,3.37,5.85,5.82,10.08,3.41,5.91,2.58,4.48,2.55,4.42,5.43,9.41,17.39-54.81,9.88,22.56,3.64,8.33.05.13,3.83,8.75,2.62,6,9.07,20.7,1.61,3.7L168,617.06,179.34,643l.66,1.52,3,6.75.52,1.18,25.9,59.2-37.73-51.68-3.8-5.21-5.19-7.12-8.31-11.38Z"/></g><path class="cls-8" d="M659,26.75h-8.22l-.44,1.16c-4.17,11.18,2.9,16.72,8.55,17v.22H637.27V44.9c3.18-.27,7.9-4.44,11.24-13.27l6-15.84L650.87,7c5.65-.38,8.77-1.86,10.36-7h.17l16.83,41.06c1,2.58,2.41,3.4,5.21,3.84v.22H661.07V44.9c4-.38,5-1,3.4-5Zm-.22-.54-4.06-9.87L651,26.21Z"/><path class="cls-8" d="M682.67,45.12V44.9c2.19-.88,2.19-3.56,2.19-11v-2c0-6.64,0-7.79-2.19-9v-.22a37.1,37.1,0,0,0,13.21-7.07V24c2.25-5.7,6.14-7.62,9.49-7.62,4.77,0,7.29,3,7.24,11.07v6.53c0,7.4,0,10.08,2.19,11v.22H699.39V44.9c2.2-.88,2.2-3.56,2.2-11V32.46c0-6.25-.28-8.89-3.4-8.89a5,5,0,0,0-2.31.55v9.82c0,7.4,0,10.08,2.2,11v.22Z"/><path class="cls-8" d="M746,35.58c0,4.77.33,6.42,2.57,7.13v.22A43.37,43.37,0,0,0,735,46.11V38.32c-1.15,3.24-3.73,7.51-8.67,7.51-5.37,0-10.14-4.38-10.14-12.77,0-11.18,8.12-16.72,15.3-16.72a20.31,20.31,0,0,1,3.51.33v-.11c0-6.86-.72-7-2.8-8.06V8.28A36.79,36.79,0,0,0,746,1.21Zm-12.56,2.69a5.12,5.12,0,0,0,1.54-.22V23.85c0-5.54-2-7.18-4.17-7.18s-3.62,3.72-3.62,9.26S728.89,38.27,733.44,38.27Z"/><path class="cls-8" d="M754.83,17.65h6l10.8-8.77h.22v8.77h10.09v.55H771.82V35.58c0,4,1.15,5.87,3.84,5.87a3.89,3.89,0,0,0,3.45-1.87l.11.06c-1.64,3.78-4.55,6.19-9.92,6.19-4.72,0-8.5-2.79-8.5-8.55V18.2h-6Z"/><path class="cls-8" d="M778.57,45.12V44.9c2.19-.88,2.19-3.56,2.19-11V17.54c0-6.63,0-7.78-2.19-9V8.28a37.1,37.1,0,0,0,13.21-7.07V24c2.25-5.7,6.14-7.62,9.48-7.62,4.77,0,7.3,3,7.24,11.07v6.53c0,7.4,0,10.08,2.19,11v.22h-15.4V44.9c2.19-.88,2.19-3.56,2.19-11V32.46c0-6.25-.27-8.89-3.4-8.89a5,5,0,0,0-2.3.55v9.82c0,7.4,0,10.08,2.19,11v.22Z"/><path class="cls-8" d="M812.23,45.12V44.9c2.19-.88,2.19-3.56,2.19-11v-2c0-6.64,0-7.79-2.19-9v-.22a37.1,37.1,0,0,0,13.21-7.07v9.05c1.54-4.94,3.57-8.28,6.91-8.28s4.44,2.85,4.44,5.64-1.42,5.54-4.33,5.54c-2.41,0-4.44-3.4-5.81-3.4-.55,0-.88.44-1.21,1v8.78c0,7.4,0,10.08,2.2,11v.22Z"/><path class="cls-8" d="M853,45.83c-8,0-16.28-5-16.28-14.74S845,16.34,853,16.34s16.28,5,16.28,14.75S861,45.83,853,45.83Zm-4.17-14c1.43,7.78,2.91,13.65,6.14,13.65,2.14,0,3.29-1.75,3.29-5.7a55.85,55.85,0,0,0-1.09-9.38c-1.43-7.78-2.91-13.65-6.14-13.65-2.14,0-3.29,1.76-3.29,5.7A56.91,56.91,0,0,0,848.85,31.8Z"/><path class="cls-8" d="M900.72,35.58V16.45l-13.6,3.89v.22c2.25.71,2.58,2.35,2.58,7.12V38.05a5.07,5.07,0,0,1-2.3.54c-3.13,0-3.4-2.57-3.4-8.88V16.45l-13.6,3.89v.22c2.25.71,2.58,2.35,2.58,7.12v7.08c0,8.06,2.47,11.07,7.23,11.07,3.35,0,7.24-1.92,9.49-7.62v7.9a43.09,43.09,0,0,1,13.6-3.18v-.22C901.05,42,900.72,40.35,900.72,35.58Z"/><path class="cls-8" d="M929.61,19.35c1.37-1.1,3.57,2.14,6.25,2.14a3.74,3.74,0,0,0,3.68-3.84c0-1.92-1-3.89-3.79-3.89-2.3,0-4.77,2.25-6.63,5.65a17.6,17.6,0,0,0-9.92-3.07c-6.91,0-13.65,3.78-13.65,10.14,0,4.44,3.29,7.62,7.56,9.1-5,1.48-8.72,4.49-8.72,8.22s2.8,6.09,7.08,6.64c-2.85,0-6,1.15-6,3,0,3,4.94,4.71,12.78,4.71,8.71,0,18.58-5,18.58-13,0-6.14-5.15-8.72-13.87-6.91l-5.26,1.1a28.44,28.44,0,0,1-5.21.82c-1.32,0-2.14-.38-2.14-1.37,0-.82.55-1.76,3.13-3a19.26,19.26,0,0,0,5.7.88c6.91,0,13.65-3.78,13.65-10.14a8.49,8.49,0,0,0-3.46-6.91C929.45,19.52,929.5,19.41,929.61,19.35Zm-12.5,30.81L922.87,49c3.67-.71,5.65.71,5.65,3.4,0,3.29-3.29,5.15-9.71,5.15-4.77,0-8-1.64-8-4.55A3.19,3.19,0,0,1,912,50.49,18.09,18.09,0,0,0,917.11,50.16Zm4.23-14c-1.76,0-3.29-2.85-4.94-8.88a29.63,29.63,0,0,1-1.31-7.3c0-2.35.87-3.12,2-3.12,1.75,0,3.29,2.85,4.93,8.88A29.69,29.69,0,0,1,923.31,33C923.31,35.36,922.43,36.13,921.34,36.13Z"/><path class="cls-8" d="M968.71,33.93V27.41c0-8.06-2.47-11.07-7.24-11.07-3.34,0-7.24,1.91-9.49,7.62V1.2a37,37,0,0,1-13.21,7.08V8.5c2.19,1.26,2.19,2.41,2.19,9V33.93c0,7.41,0,10.09-2.19,11v.22h15.41V44.9c-2.2-.88-2.2-3.56-2.2-11V24.12a5,5,0,0,1,2.31-.55c3.12,0,3.4,2.63,3.4,8.88v1.48c0,7.41,0,10.09-2.2,11v.22H970.9V44.9C968.71,44,968.71,41.34,968.71,33.93Z"/><path class="cls-8" d="M988.5,16.34c-8,0-16.28,5-16.28,14.74s8.28,14.75,16.28,14.75,16.28-5,16.28-14.75S996.5,16.34,988.5,16.34Zm2,29.11c-3.23,0-4.71-5.87-6.14-13.65a55.85,55.85,0,0,1-1.09-9.38c0-4,1.15-5.7,3.29-5.7,3.23,0,4.71,5.87,6.14,13.65a56.8,56.8,0,0,1,1.09,9.38C993.76,43.69,992.61,45.45,990.47,45.45Z"/><path class="cls-8" d="M1036.2,35.58V16.45l-13.6,3.89v.22c2.25.71,2.58,2.35,2.58,7.12V38.05a5.07,5.07,0,0,1-2.3.54c-3.13,0-3.4-2.57-3.4-8.88V16.45l-13.6,3.89v.22c2.25.71,2.58,2.35,2.58,7.12v7.08c0,8.06,2.46,11.07,7.23,11.07,3.35,0,7.24-1.92,9.49-7.62v7.9a43.09,43.09,0,0,1,13.6-3.18v-.22C1036.53,42,1036.2,40.35,1036.2,35.58Z"/><path class="cls-8" d="M1063.72,18.2v-.55h-10.09V8.88h-.21l-10.81,8.77h-6v.55h6V37.28c0,5.75,3.79,8.55,8.5,8.55,5.38,0,8.28-2.41,9.93-6.19l-.11-.06a3.91,3.91,0,0,1-3.46,1.87c-2.68,0-3.84-1.87-3.84-5.87V18.2Z"/><path class="cls-8" d="M1117.23,33.93V27.41c.06-8.06-2.46-11.07-7.23-11.07-3.35,0-7.35,2-9.65,7.78-.61-5.59-3-7.78-7.08-7.78-3.34,0-7.23,1.91-9.48,7.62V15.57a37.1,37.1,0,0,1-13.21,7.07v.22c2.19,1.26,2.19,2.41,2.19,9.05v2c0,7.41,0,10.09-2.19,11v.22H1086V44.9c-2.19-.88-2.19-3.56-2.19-11V24.12a5,5,0,0,1,2.3-.55c3.13,0,3.4,2.63,3.4,8.88v1.48c0,7.41,0,10.09-2.19,11v.22h15.4V44.9c-2.19-.88-2.19-3.56-2.19-11V27.41a27.9,27.9,0,0,0-.16-3.18,4.6,4.6,0,0,1,2.46-.66c3.13,0,3.4,2.63,3.4,8.88v1.48c0,7.41,0,10.09-2.19,11v.22h15.41V44.9C1117.23,44,1117.23,41.34,1117.23,33.93Z"/><path class="cls-8" d="M1148.59,35.58c-1.26,1.64-3.56,2.63-6.46,2.63-5.54,0-11-4.22-11.46-12.61h17.38c-1.1-5-5.92-9.26-12.94-9.26a14.65,14.65,0,0,0-14.37,14.91c0,9.15,6.09,14.58,14.75,14.58,8,0,11.35-4.77,13.27-10.14Zm-18-11.24c0-5.92,1.65-7.62,3.84-7.62s3,1.86,3,3.78c0,2.47-1.75,4.72-5.59,4.72h-1.21Z"/><path class="cls-8" d="M662.17,137.89c-3.84.88-4.94,3.57-4.94,11v16.66c0,7.41,1.1,10.09,4.94,11v.22H640.24v-.22c3.83-.88,4.93-3.56,4.93-11V148.86c0-7.4-1.1-10.09-4.93-11v-.22h21.93Z"/><path class="cls-8" d="M691.66,173.36c0-2.9-3-3.94-6.52-4.55l-1-.16c-7-1.15-10.69-6.14-10.69-11,0-6.35,6.91-9.75,12.39-9.75,2.91,0,5,1.31,6.8,1.31,1.26,0,1.81-.66,2-2.79h.16l2.36,13.26h-.27c-4.83-8-7-11.46-11.08-11.46-2.91,0-4.93,1.43-4.93,3.62,0,2.53,2.24,4.22,6.52,4.94l1,.16c7.62,1.26,11,5.21,11,9.76,0,6.85-6.64,10.69-13,10.69-4.82,0-5.7-1.31-8-1.31-1.1,0-1.64.65-1.86,2.79h-.17l-2.36-14.36h.22c4.28,8,6.8,12.55,12.23,12.55C688.76,177.09,691.66,175.94,691.66,173.36Z"/><path class="cls-8" d="M730.64,174.3c-2.3,1.48-5.7,3.12-8.88,3.12-3.73,0-5-1.75-5.1-6.74-1.2,3.89-3.72,6.74-8.49,6.74-3.84,0-7.19-2.47-7.19-7.18,0-4.44,3.29-6.85,9.49-10,5.54-2.79,6.41-2.52,6.41-5.86,0-3.07-1.7-5.71-4.16-5.71-3.51,0-.94,2.64-.94,5.87a5.62,5.62,0,0,1-5.81,6c-3,0-4.88-1.81-4.88-4.45,0-4.49,8-8.16,16-8.16,5.92,0,10.63,2.74,10.47,9.92l-.22,10.85c0,3.79-.38,5.1,3.34,5.38Zm-14-4V170l.17-12.66a9.47,9.47,0,0,0-5.37,8.77C711.46,170,714.25,171.5,716.66,170.29Z"/><path class="cls-8" d="M746.71,149.24v.22c-2.36.28-3.67,1.76-2.63,4.11L749.94,167l1.92-4.55c4.44-10.41-.33-12.71-4.27-13v-.22h14.52v.22c-1.64.55-4.76,1.32-8.11,9.16l-8.55,19.79c-4.77,11.13-9.6,11.29-12.5,11.29-3.51,0-7.9-2.25-7.9-6.63,0-2.85,2.31-4.94,5.43-4.94,3.95,0,4.77,2.86,5.15,6.09.22,1.7,0,3.29,1.81,3.29,2.58,0,7.24-3.67,3.35-12.72l-9.27-21.49c-1.09-2.52-1.92-3.46-3.56-3.84v-.22Z"/><path class="cls-8" d="M787,173.36c0-2.9-3-3.94-6.53-4.55l-1-.16c-7-1.15-10.69-6.14-10.69-11,0-6.35,6.9-9.75,12.39-9.75,2.9,0,5,1.31,6.79,1.31,1.27,0,1.81-.66,2-2.79h.17l2.35,13.26h-.27c-4.82-8-7-11.46-11.07-11.46-2.91,0-4.94,1.43-4.94,3.62,0,2.53,2.25,4.22,6.53,4.94l1,.16c7.62,1.26,11,5.21,11,9.76,0,6.85-6.63,10.69-13,10.69-4.83,0-5.7-1.31-8-1.31-1.09,0-1.64.65-1.86,2.79h-.16l-2.36-14.36h.22c4.27,8,6.8,12.55,12.22,12.55C784.1,177.09,787,175.94,787,173.36Z"/><path class="cls-8" d="M796.11,176.71v-.22c2.19-.88,2.19-3.56,2.19-11V149.13c0-6.63,0-7.78-2.19-9v-.22a37,37,0,0,0,13.21-7.08v32.73c0,7.41,0,10.09,2.19,11v.22Z"/><path class="cls-8" d="M829.28,177.42c-8,0-16.28-5-16.28-14.75s8.27-14.74,16.28-14.74,16.28,5,16.28,14.74S837.28,177.42,829.28,177.42Zm-4.17-14c1.43,7.78,2.91,13.65,6.14,13.65,2.14,0,3.29-1.76,3.29-5.7a56.8,56.8,0,0,0-1.09-9.38c-1.43-7.78-2.91-13.65-6.14-13.65-2.14,0-3.29,1.75-3.29,5.7A55.85,55.85,0,0,0,825.11,163.39Z"/><path class="cls-8" d="M881.69,149.24v.22c3.95.27,8.78,2.58,4.28,13l-1.92,4.5-5.86-13.38c-1.05-2.36.27-3.84,2.63-4.11v-.22H843.43v.22c1.64.38,2.46,1.31,3.56,3.84l10.09,23.41h4.55l7.07-16.29,7,16.29h4.55l7.56-17.6c3.62-8.34,6.86-9.27,8.39-9.65v-.22ZM865.41,167l-5.86-13.43c-.94-2.14-1.27-4.06,1.86-4.06,2.47,0,3.23,1.54,4.22,3.79l2.85,6.58Z"/><path class="cls-8" d="M897.81,165.3a6.14,6.14,0,0,0-6.46,6c0,6.52,7.56,4.22,7.56,7.89,0,2.31-3,5.27-6.25,7.57l.22.38c6.36-4.22,11.08-9.86,11.08-14.58S901.05,165.3,897.81,165.3Z"/><path class="cls-8" d="M931.21,149.24v.22c3.94.27,8.71,2.58,4.27,13L933.56,167l-5.86-13.43c-1.05-2.36.27-3.84,2.63-4.11v-.22H911.58v.22c1.64.38,2.47,1.31,3.56,3.84l9.27,21.49c3.89,9-.77,12.72-3.35,12.72-1.81,0-1.59-1.59-1.81-3.29-.38-3.24-1.2-6.09-5.15-6.09-3.13,0-5.43,2.09-5.43,4.94,0,4.38,4.39,6.63,7.9,6.63,2.9,0,7.73-.16,12.5-11.29l8.55-19.8c3.34-7.84,6.47-8.6,8.11-9.15v-.22Z"/><path class="cls-8" d="M958.62,147.92c-8,0-16.28,5-16.28,14.75s8.27,14.75,16.28,14.75,16.28-5,16.28-14.75S966.62,147.92,958.62,147.92Zm2,29.12c-3.23,0-4.71-5.87-6.14-13.66a55.63,55.63,0,0,1-1.09-9.37c0-3.95,1.15-5.7,3.29-5.7,3.23,0,4.71,5.86,6.14,13.65a56.81,56.81,0,0,1,1.09,9.37C963.88,175.28,962.73,177,960.59,177Z"/><path class="cls-8" d="M1006.32,167.17V148l-13.6,3.9v.22c2.25.71,2.58,2.35,2.58,7.12v10.36a5,5,0,0,1-2.3.55c-3.13,0-3.4-2.57-3.4-8.88V148l-13.6,3.9v.22c2.25.71,2.58,2.35,2.58,7.12v7.07c0,8.06,2.46,11.08,7.23,11.08,3.35,0,7.24-1.92,9.49-7.62v7.89a43.65,43.65,0,0,1,13.59-3.18v-.22C1006.65,173.58,1006.32,171.94,1006.32,167.17Z"/><path class="cls-8" d="M1044.64,150.94c1.37-1.1,3.57,2.14,6.25,2.14a3.74,3.74,0,0,0,3.68-3.84c0-1.92-1-3.89-3.79-3.89-2.3,0-4.77,2.24-6.63,5.64a17.67,17.67,0,0,0-9.92-3.07c-6.91,0-13.66,3.79-13.66,10.15,0,4.44,3.29,7.62,7.57,9.1-5,1.48-8.72,4.49-8.72,8.22s2.8,6.09,7.08,6.63c-2.86,0-6,1.16-6,3,0,3,4.93,4.71,12.77,4.71,8.72,0,18.59-5,18.59-13,0-6.14-5.15-8.72-13.87-6.91l-5.26,1.1a29.34,29.34,0,0,1-5.21.82c-1.32,0-2.14-.39-2.14-1.37,0-.83.55-1.76,3.12-3a19.38,19.38,0,0,0,5.71.88c6.9,0,13.65-3.78,13.65-10.14a8.49,8.49,0,0,0-3.46-6.91C1044.48,151.1,1044.53,151,1044.64,150.94Zm-12.5,30.81,5.76-1.15c3.67-.71,5.65.71,5.65,3.4,0,3.29-3.29,5.15-9.71,5.15-4.77,0-8-1.64-8-4.55a3.22,3.22,0,0,1,1.2-2.52A18.52,18.52,0,0,0,1032.14,181.75Zm4.22-14c-1.75,0-3.29-2.86-4.93-8.89a29.69,29.69,0,0,1-1.32-7.29c0-2.36.88-3.12,2-3.12,1.75,0,3.29,2.85,4.93,8.88a29.69,29.69,0,0,1,1.32,7.29C1038.34,167,1037.46,167.72,1036.36,167.72Z"/><path class="cls-8" d="M1068.88,147.92c-8,0-16.29,5-16.29,14.75s8.28,14.75,16.29,14.75,16.28-5,16.28-14.75S1076.88,147.92,1068.88,147.92Zm2,29.12c-3.23,0-4.71-5.87-6.14-13.66a55.77,55.77,0,0,1-1.1-9.37c0-3.95,1.16-5.7,3.29-5.7,3.24,0,4.72,5.86,6.14,13.65a55.89,55.89,0,0,1,1.1,9.37C1074.14,175.28,1073,177,1070.85,177Z"/><path class="cls-8" d="M1116.74,165.52V159c.06-8.06-2.46-11.08-7.23-11.08-3.35,0-7.24,1.92-9.49,7.62v-8.38a37.1,37.1,0,0,1-13.21,7.07v.22c2.19,1.26,2.19,2.41,2.19,9v2c0,7.4,0,10.09-2.19,11v.22h15.4v-.22c-2.19-.88-2.19-3.57-2.19-11v-9.81a5,5,0,0,1,2.3-.55c3.13,0,3.4,2.63,3.4,8.88v1.48c0,7.4,0,10.09-2.19,11v.22h15.41v-.22C1116.74,175.61,1116.74,172.92,1116.74,165.52Z"/><path class="cls-8" d="M1150.41,165.52V159c0-8.06-2.47-11.08-7.24-11.08-3.34,0-7.24,1.92-9.49,7.62v-8.38a37.1,37.1,0,0,1-13.21,7.07v.22c2.2,1.26,2.2,2.41,2.2,9v2c0,7.4,0,10.09-2.2,11v.22h15.41v-.22c-2.2-.88-2.2-3.57-2.2-11v-9.81a5,5,0,0,1,2.31-.55c3.12,0,3.4,2.63,3.4,8.88v1.48c0,7.4,0,10.09-2.2,11v.22h15.41v-.22C1150.41,175.61,1150.41,172.92,1150.41,165.52Z"/><path class="cls-8" d="M1180.51,168.7l.22-10.85c.16-7.19-4.55-9.93-10.48-9.93-8,0-16,3.68-16,8.17,0,2.63,1.92,4.44,4.88,4.44a5.61,5.61,0,0,0,5.81-6c0-3.24-2.57-5.87.93-5.87,2.47,0,4.17,2.63,4.17,5.7,0,3.35-.88,3.07-6.41,5.87-6.2,3.12-9.49,5.54-9.49,10a6.82,6.82,0,0,0,7.18,7.18c4.77,0,7.3-2.85,8.5-6.74.06,5,1.37,6.74,5.1,6.74,3.18,0,6.58-1.65,8.88-3.13v-.21C1180.12,173.8,1180.45,172.49,1180.51,168.7ZM1169.87,170v.27c-2.41,1.21-5.21-.33-5.21-4.16a9.5,9.5,0,0,1,5.38-8.78Z"/><path class="cls-8" d="M1216.36,149.79v-.55h-10.08v-8.77h-.22l-3.24,2.63-7.56,6.14h-6v.55h6v19.08c0,5.37,3.29,8.16,7.56,8.51.3,0,.61,0,.93,0,5.38,0,8.28-2.41,9.93-6.2l-.11-.05a3.88,3.88,0,0,1-3.46,1.86c-2.68,0-3.83-1.86-3.83-5.86V149.79Z"/><path class="cls-8" d="M662.17,203.69c-3.84.87-4.94,3.56-4.94,11v16.67c0,7.4,1.1,10.09,4.94,11v.22H640.24v-.22c3.83-.87,4.93-3.56,4.93-11V214.65c0-7.4-1.1-10.09-4.93-11v-.22h21.93Z"/><path class="cls-8" d="M691.66,239.16c0-2.91-3-3.95-6.52-4.55l-1-.17c-7-1.15-10.69-6.14-10.69-11,0-6.36,6.91-9.76,12.39-9.76,2.91,0,5,1.32,6.8,1.32,1.26,0,1.81-.66,2-2.8h.16l2.36,13.27h-.27c-4.83-7.95-7-11.46-11.08-11.46-2.91,0-4.93,1.42-4.93,3.62,0,2.52,2.24,4.22,6.52,4.93l1,.17c7.62,1.26,11,5.2,11,9.75,0,6.86-6.64,10.7-13,10.7-4.82,0-5.7-1.32-8-1.32-1.1,0-1.64.66-1.86,2.8h-.17l-2.36-14.37h.22c4.28,7.95,6.8,12.56,12.23,12.56C688.76,242.89,691.66,241.74,691.66,239.16Z"/><path class="cls-8" d="M730.64,240.09c-2.3,1.48-5.7,3.13-8.88,3.13-3.73,0-5-1.76-5.1-6.75-1.2,3.89-3.72,6.75-8.49,6.75A6.82,6.82,0,0,1,701,236c0-4.44,3.29-6.85,9.49-10,5.54-2.8,6.41-2.53,6.41-5.87,0-3.07-1.7-5.7-4.16-5.7-3.51,0-.94,2.63-.94,5.86a5.62,5.62,0,0,1-5.81,6c-3,0-4.88-1.81-4.88-4.44,0-4.5,8-8.17,16-8.17,5.92,0,10.63,2.74,10.47,9.92l-.22,10.86c0,3.78-.38,5.1,3.34,5.37Zm-14-4v-.28l.17-12.66a9.47,9.47,0,0,0-5.37,8.77C711.46,235.76,714.25,237.29,716.66,236.09Z"/><path class="cls-8" d="M746.71,215v.21c-2.36.28-3.67,1.76-2.63,4.12l5.86,13.43,1.92-4.55c4.44-10.42-.33-12.72-4.27-13V215h14.52v.21c-1.64.55-4.76,1.32-8.11,9.16l-8.55,19.79c-4.77,11.13-9.6,11.3-12.5,11.3-3.51,0-7.9-2.25-7.9-6.64,0-2.85,2.31-4.93,5.43-4.93,3.95,0,4.77,2.85,5.15,6.08.22,1.7,0,3.29,1.81,3.29,2.58,0,7.24-3.67,3.35-12.72l-9.27-21.49c-1.09-2.52-1.92-3.45-3.56-3.84V215Z"/><path class="cls-8" d="M768.75,242.5v-.22c2.19-.87,2.19-3.56,2.19-11V214.93c0-6.64,0-7.79-2.19-9.05v-.22A37.1,37.1,0,0,0,782,198.59v22.75c2.25-5.7,6.14-7.62,9.49-7.62,4.77,0,7.29,3,7.23,11.07v6.53c0,7.4,0,10.09,2.2,11v.22H785.47v-.22c2.19-.87,2.19-3.56,2.19-11v-1.48c0-6.25-.27-8.88-3.39-8.88a5.11,5.11,0,0,0-2.31.54v9.82c0,7.4,0,10.09,2.2,11v.22Z"/><path class="cls-8" d="M802.2,228.63a14.64,14.64,0,0,1,14.36-14.91c7,0,11.84,4.22,12.94,9.27H812.12c.49,8.38,5.92,12.61,11.46,12.61,2.9,0,5.21-1,6.47-2.64l.16.11c-1.92,5.38-5.32,10.15-13.27,10.15C808.28,243.22,802.2,237.79,802.2,228.63Zm9.86-6h1.21c3.84,0,5.59-2.25,5.59-4.71,0-1.92-.82-3.79-3-3.79s-3.84,1.7-3.84,7.62Z"/><path class="cls-8" d="M846.61,215v.21c-2.36.28-3.68,1.76-2.64,4.12l5.87,13.43,1.92-4.55c4.44-10.42-.33-12.72-4.28-13V215H862v.21c-1.64.55-4.77,1.32-8.11,9.16l-8.56,19.79c-4.77,11.13-9.59,11.3-12.5,11.3-3.5,0-7.89-2.25-7.89-6.64,0-2.85,2.3-4.93,5.43-4.93,3.94,0,4.77,2.85,5.15,6.08.22,1.7,0,3.29,1.81,3.29,2.58,0,7.24-3.67,3.34-12.72l-9.26-21.49c-1.1-2.52-1.92-3.45-3.57-3.84V215Z"/><path class="cls-8" d="M869.8,238.34c0,4.71-4.72,10.36-11.08,14.58l-.22-.38c3.24-2.31,6.25-5.27,6.25-7.57,0-3.67-7.56-1.37-7.56-7.89a6.14,6.14,0,0,1,6.47-6C866.89,231.1,869.8,233.62,869.8,238.34Z"/><path class="cls-8" d="M903.35,203.68v-.21H881.42v.21c3.84.88,4.94,3.57,4.94,11v16.67c0,7.4-1.1,10.08-4.94,11v.22h21.93v-.22c-3.84-.88-4.93-3.56-4.93-11V214.65C898.42,207.25,899.51,204.56,903.35,203.68Z"/><path class="cls-8" d="M949.13,215v.22c4,.28,8.77,2.58,4.28,13l-1.92,4.49-5.87-13.38c-1-2.35.28-3.83,2.63-4.11V215H910.86v.22c1.65.39,2.47,1.32,3.57,3.84l10.08,23.41h4.56l7.07-16.28,7,16.28h4.55l7.56-17.6c3.62-8.33,6.86-9.26,8.39-9.65V215ZM932.85,232.8,927,219.36c-.93-2.13-1.26-4.05,1.87-4.05,2.46,0,3.23,1.53,4.22,3.78l2.85,6.58Z"/><path class="cls-8" d="M987,234.5l.22-10.86c.16-7.18-4.55-9.92-10.47-9.92-7.95,0-16,3.67-16,8.17,0,2.63,1.92,4.44,4.88,4.44a5.62,5.62,0,0,0,5.81-6c0-3.23-2.57-5.86.94-5.86,2.46,0,4.16,2.63,4.16,5.7,0,3.34-.88,3.07-6.41,5.86-6.2,3.13-9.49,5.54-9.49,10a6.81,6.81,0,0,0,7.18,7.18c4.77,0,7.3-2.85,8.5-6.74.06,5,1.37,6.74,5.1,6.74,3.18,0,6.58-1.64,8.88-3.12v-.22C986.63,239.59,987,238.28,987,234.5Zm-10.64,1.31v.28c-2.41,1.2-5.21-.33-5.21-4.17a9.48,9.48,0,0,1,5.38-8.77Z"/><path class="cls-8" d="M1021,231.32v-6.53c0-8.06-2.47-11.07-7.24-11.07-3.34,0-7.24,1.92-9.49,7.62V213A37.1,37.1,0,0,1,991,220v.22c2.19,1.26,2.19,2.41,2.19,9v2c0,7.4,0,10.08-2.19,11v.22h15.41v-.22c-2.2-.88-2.2-3.56-2.2-11V221.5a5,5,0,0,1,2.31-.55c3.12,0,3.4,2.64,3.4,8.89v1.48c0,7.4,0,10.08-2.2,11v.22h15.41v-.22C1021,241.4,1021,238.72,1021,231.32Z"/><path class="cls-8" d="M1047.77,215.58V215h-10.09v-8.77h-.22l-10.8,8.77h-6v.55h6v19.08c0,5.76,3.78,8.55,8.5,8.55,5.37,0,8.28-2.41,9.92-6.19L1045,237a3.89,3.89,0,0,1-3.45,1.87c-2.69,0-3.84-1.87-3.84-5.87V215.58Z"/><path class="cls-8" d="M1070.36,215v.22c3.94.28,8.71,2.58,4.27,13l-1.92,4.55-5.86-13.44c-1-2.35.27-3.83,2.63-4.11V215h-18.75v.22c1.65.39,2.47,1.32,3.56,3.84l9.27,21.49c3.89,9-.77,12.72-3.35,12.72-1.8,0-1.58-1.59-1.8-3.29-.39-3.23-1.21-6.08-5.16-6.08-3.12,0-5.43,2.08-5.43,4.93,0,4.39,4.39,6.63,7.9,6.63,2.91,0,7.73-.16,12.5-11.29l8.55-19.79c3.35-7.84,6.47-8.61,8.12-9.16V215Z"/><path class="cls-8" d="M1097.77,213.72c-8,0-16.28,5-16.28,14.75s8.28,14.74,16.28,14.74,16.28-5,16.28-14.74S1105.78,213.72,1097.77,213.72Zm2,29.11c-3.24,0-4.72-5.87-6.15-13.65a56.8,56.8,0,0,1-1.09-9.38c0-3.94,1.15-5.7,3.29-5.7,3.23,0,4.71,5.87,6.14,13.65a55.85,55.85,0,0,1,1.09,9.38C1103,241.08,1101.88,242.83,1099.75,242.83Z"/><path class="cls-8" d="M1145.47,233V213.83l-13.6,3.89v.22c2.25.71,2.58,2.36,2.58,7.13v10.36a5,5,0,0,1-2.3.55c-3.13,0-3.4-2.58-3.4-8.89V213.83l-13.6,3.89v.22c2.25.71,2.58,2.36,2.58,7.13v7.07c0,8.06,2.47,11.07,7.24,11.07,3.34,0,7.23-1.92,9.48-7.62v7.9a43.37,43.37,0,0,1,13.6-3.18v-.22C1145.8,239.38,1145.47,237.73,1145.47,233Z"/><path class="cls-8" d="M1183.8,216.73c1.37-1.09,3.56,2.14,6.25,2.14a3.73,3.73,0,0,0,3.67-3.84c0-1.92-1-3.89-3.78-3.89-2.31,0-4.77,2.25-6.64,5.65a17.57,17.57,0,0,0-9.92-3.07c-6.91,0-13.65,3.78-13.65,10.14,0,4.44,3.29,7.62,7.56,9.1-5,1.48-8.71,4.5-8.71,8.22s2.79,6.09,7.07,6.64c-2.85,0-6,1.15-6,3,0,3,4.94,4.71,12.78,4.71,8.71,0,18.58-5,18.58-13,0-6.14-5.15-8.72-13.87-6.91l-5.26,1.1a28.31,28.31,0,0,1-5.21.82c-1.31,0-2.14-.38-2.14-1.37,0-.82.55-1.75,3.13-3a19.65,19.65,0,0,0,5.7.87c6.91,0,13.65-3.78,13.65-10.14a8.51,8.51,0,0,0-3.45-6.91A.91.91,0,0,1,1183.8,216.73Zm-12.5,30.81,5.75-1.15c3.68-.71,5.65.72,5.65,3.4,0,3.29-3.29,5.16-9.7,5.16-4.77,0-8-1.65-8-4.55a3.2,3.2,0,0,1,1.21-2.53A18.16,18.16,0,0,0,1171.3,247.54Zm4.22-14c-1.76,0-3.29-2.85-4.94-8.88a30.06,30.06,0,0,1-1.31-7.29c0-2.36.87-3.13,2-3.13,1.76,0,3.29,2.85,4.93,8.88a29.69,29.69,0,0,1,1.32,7.29C1177.49,232.74,1176.61,233.51,1175.52,233.51Z"/><path class="cls-8" d="M1202.82,199.74a6.72,6.72,0,0,0-2.57-.5,7,7,0,0,0,0,14.09,6.91,6.91,0,0,0,2.57-.49,7,7,0,0,0,0-13.1Zm3.18,31.58V213c-1,.85-2.1,1.64-3.18,2.36a35.83,35.83,0,0,1-10,4.71v.22c2.19,1.26,2.19,2.41,2.19,9v2c0,7.4,0,10.08-2.19,11v.22h15.4v-.22C1206,241.4,1206,238.72,1206,231.32Z"/><path class="cls-8" d="M659,289.93h-8.22l-.44,1.15c-4.17,11.19,2.9,16.72,8.55,17v.22H637.27v-.22c3.18-.28,7.9-4.44,11.24-13.27l6-15.84-3.62-8.83c5.65-.39,8.77-1.87,10.36-7h.17l16.83,41.06c1,2.58,2.41,3.4,5.21,3.84v.22H661.07v-.22c4-.39,5-1,3.4-5Zm-.22-.55-4.06-9.87L651,289.38Z"/><path class="cls-8" d="M682.67,308.3v-.22c2.19-.88,2.19-3.57,2.19-11v-2c0-6.63,0-7.78-2.19-9v-.22a37.1,37.1,0,0,0,13.21-7.07v8.38c2.25-5.7,6.14-7.62,9.49-7.62,4.77,0,7.29,3,7.24,11.08v6.52c0,7.4,0,10.09,2.19,11v.22H699.39v-.22c2.2-.88,2.2-3.57,2.2-11v-1.48c0-6.25-.28-8.88-3.4-8.88a5,5,0,0,0-2.31.55v9.81c0,7.4,0,10.09,2.2,11v.22Z"/><path class="cls-8" d="M746,298.76c0,4.77.33,6.41,2.57,7.12v.22A43.65,43.65,0,0,0,735,309.28V301.5c-1.15,3.23-3.73,7.51-8.67,7.51-5.37,0-10.14-4.39-10.14-12.77,0-11.19,8.12-16.73,15.3-16.73a20.31,20.31,0,0,1,3.51.33v-.11c0-6.85-.72-7-2.8-8.06v-.22A36.79,36.79,0,0,0,746,264.38Zm-12.56,2.68a4.82,4.82,0,0,0,1.54-.22V287c0-5.53-2-7.18-4.17-7.18s-3.62,3.73-3.62,9.27S728.89,301.44,733.44,301.44Z"/><path class="cls-8" d="M774.34,280.83v.22c-2.35.27-3.67,1.75-2.63,4.11l5.87,13.43L779.5,294c4.44-10.41-.33-12.72-4.28-13v-.22h14.53v.22c-1.65.55-4.77,1.31-8.11,9.15L773.08,310c-4.77,11.13-9.59,11.29-12.5,11.29-3.51,0-7.89-2.25-7.89-6.63,0-2.85,2.3-4.94,5.43-4.94,3.94,0,4.77,2.85,5.15,6.09.22,1.7,0,3.29,1.81,3.29,2.57,0,7.23-3.68,3.34-12.72l-9.26-21.49c-1.1-2.53-1.92-3.46-3.57-3.84v-.22Z"/><path class="cls-8" d="M802.64,309c-8,0-16.29-5-16.29-14.75s8.28-14.75,16.29-14.75,16.28,5,16.28,14.75S810.64,309,802.64,309Zm-4.17-14c1.42,7.79,2.9,13.66,6.14,13.66,2.14,0,3.29-1.76,3.29-5.71a55.89,55.89,0,0,0-1.1-9.37c-1.42-7.79-2.9-13.65-6.14-13.65-2.14,0-3.29,1.75-3.29,5.7A55.77,55.77,0,0,0,798.47,295Z"/><path class="cls-8" d="M820,283.74v-.22l13.59-3.9v13.27c0,6.31.28,8.88,3.4,8.88a4.94,4.94,0,0,0,2.3-.55V290.86c0-4.77-.32-6.41-2.57-7.12v-.22l13.59-3.9v19.14c0,4.77.33,6.41,2.58,7.12v.22a43.71,43.71,0,0,0-13.6,3.18v-7.89c-2.24,5.7-6.14,7.62-9.48,7.62-4.77,0-7.24-3-7.24-11.07v-7.08C822.59,286.09,822.26,284.45,820,283.74Z"/><path class="cls-8" d="M878.79,288.56l-1-.17c-4.27-.71-6.52-2.41-6.52-4.93,0-2.19,2-3.62,4.93-3.62,4.11,0,6.25,3.51,11.08,11.46h.27L885.2,278H885c-.22,2.14-.77,2.8-2,2.8-1.81,0-3.89-1.32-6.8-1.32-5.48,0-12.39,3.4-12.39,9.76,0,4.82,3.73,9.81,10.69,11l1,.16C879.06,301,882,302,882,305c0,2.58-2.9,3.73-5.15,3.73-5.43,0-8-4.61-12.23-12.56h-.21l2.35,14.37H867c.22-2.14.76-2.8,1.86-2.8,2.3,0,3.18,1.32,8,1.32,6.36,0,13-3.84,13-10.69C889.81,293.77,886.41,289.82,878.79,288.56Z"/><path class="cls-8" d="M914.37,281.38v-.55H904.29v-8.77h-.22l-10.8,8.77h-6v.55h6v19.07c0,5.76,3.78,8.56,8.49,8.56,5.38,0,8.28-2.42,9.93-6.2l-.11-.05a3.89,3.89,0,0,1-3.46,1.86c-2.68,0-3.83-1.86-3.83-5.86V281.38Z"/><path class="cls-8" d="M938.11,300.29l.22-10.86c.17-7.18-4.55-9.92-10.47-9.92-8,0-16,3.67-16,8.17,0,2.63,1.92,4.44,4.88,4.44a5.61,5.61,0,0,0,5.81-6c0-3.24-2.58-5.87.93-5.87,2.47,0,4.17,2.63,4.17,5.7,0,3.35-.88,3.07-6.42,5.87-6.19,3.12-9.48,5.53-9.48,10A6.81,6.81,0,0,0,919,309c4.77,0,7.29-2.85,8.5-6.75,0,5,1.37,6.75,5.1,6.75,3.18,0,6.58-1.65,8.88-3.13v-.22C937.73,305.39,938.06,304.07,938.11,300.29Zm-10.63,1.32v.27c-2.41,1.21-5.21-.33-5.21-4.17a9.48,9.48,0,0,1,5.37-8.77Z"/><path class="cls-8" d="M958.4,280.83v.22c4,.27,8.72,2.57,4.28,13l-1.92,4.55-5.87-13.43c-1-2.36.28-3.84,2.63-4.11v-.22H938.77v.22c1.65.38,2.47,1.31,3.57,3.83l9.26,21.5c3.89,9-.77,12.71-3.34,12.71-1.81,0-1.59-1.58-1.81-3.28-.39-3.24-1.21-6.09-5.16-6.09-3.12,0-5.42,2.08-5.42,4.93,0,4.39,4.38,6.64,7.89,6.64,2.91,0,7.73-.17,12.5-11.3l8.55-19.79c3.35-7.84,6.47-8.61,8.12-9.15v-.22Z"/><path class="cls-8" d="M992.78,297.11V264.38a37.22,37.22,0,0,1-13.22,7.07v.22c2.2,1.26,2.2,2.41,2.2,9.05v16.39c0,7.4,0,10.09-2.2,11v.21H995v-.21C992.78,307.2,992.78,304.51,992.78,297.11Z"/><path class="cls-8" d="M1004.18,265a7,7,0,1,0,7.07,7.07A7.08,7.08,0,0,0,1004.18,265Zm5.76,32.07V278.74a36.93,36.93,0,0,1-13.22,7.08V286c2.2,1.26,2.2,2.41,2.2,9v2c0,7.4,0,10.09-2.2,11v.21h15.41v-.21C1009.94,307.2,1009.94,304.51,1009.94,297.11Z"/><path class="cls-8" d="M1048.7,280.83H1028v.22c3.73.44,8.28,2.35,8.28,5.59,0,2.85-3.56,5.59-9.32,6.91l8.77,14.74h12.39l-12-20.12c3-2.85,9.32-6.52,12.56-7.12Zm-21.82,16.28V264.38a37.1,37.1,0,0,1-13.21,7.07v.22c2.19,1.26,2.19,2.41,2.19,9.05v16.39c0,7.4,0,10.09-2.19,11v.21h15.4v-.21C1026.88,307.2,1026.88,304.51,1026.88,297.11Z"/><path class="cls-8" d="M1073.87,298.76c-1.27,1.64-3.57,2.63-6.47,2.63-5.54,0-11-4.22-11.46-12.61h17.38c-1.1-5-5.92-9.27-12.94-9.27A14.65,14.65,0,0,0,1046,294.42c0,9.16,6.09,14.59,14.75,14.59,8,0,11.35-4.77,13.27-10.15Zm-18-11.24c0-5.93,1.65-7.62,3.84-7.62s3,1.86,3,3.78c0,2.47-1.75,4.71-5.59,4.71h-1.21Z"/><path class="cls-8" d="M1096.4,280.83v-8.77h-.22l-10.8,8.77h-6v.55h6v19.07c0,5.76,3.78,8.56,8.5,8.56,5.37,0,8.28-2.42,9.92-6.2l-.11-.05a3.88,3.88,0,0,1-3.45,1.86c-2.69,0-3.84-1.86-3.84-5.86V281.38h10.09v-.55Z"/><path class="cls-8" d="M1133.08,297.11v-6.52c.05-8.06-2.47-11.08-7.24-11.08-3.34,0-7.23,1.92-9.48,7.62V264.38a37.1,37.1,0,0,1-13.21,7.07v.22c2.19,1.26,2.19,2.41,2.19,9.05v16.39c0,7.4,0,10.09-2.19,11v.21h15.4v-.21c-2.19-.88-2.19-3.57-2.19-11V287.3a5,5,0,0,1,2.3-.55c3.13,0,3.4,2.63,3.4,8.88v1.48c0,7.4,0,10.09-2.19,11v.21h15.4v-.21C1133.08,307.2,1133.08,304.51,1133.08,297.11Z"/><path class="cls-8" d="M1163.18,300.29l.22-10.86c.16-7.18-4.55-9.92-10.47-9.92-8,0-16,3.67-16,8.17,0,2.63,1.92,4.44,4.88,4.44a5.62,5.62,0,0,0,5.82-6c0-3.24-2.58-5.87.93-5.87,2.46,0,4.16,2.63,4.16,5.7,0,3.35-.87,3.07-6.41,5.87-6.2,3.12-9.48,5.53-9.48,10a6.81,6.81,0,0,0,7.18,7.18c4.77,0,7.29-2.85,8.5-6.75,0,5,1.37,6.75,5.09,6.75,3.18,0,6.58-1.65,8.89-3.13v-.22C1162.8,305.39,1163.13,304.07,1163.18,300.29Zm-10.63,1.32v.27c-2.42,1.21-5.21-.33-5.21-4.17a9.48,9.48,0,0,1,5.37-8.77Z"/><path class="cls-8" d="M1190.16,281.38v-.55h-10.09v-8.77h-.22l-10.8,8.77h-6v.55h6v19.07c0,5.76,3.78,8.56,8.5,8.56,5.37,0,8.27-2.42,9.92-6.2l-.11-.05a3.88,3.88,0,0,1-3.45,1.86c-2.69,0-3.84-1.86-3.84-5.86V281.38Z"/><path class="cls-8" d="M646.76,347.67c2-2,5.59-.61,7.73-2.75h-2.14c-3.18,0-6.14.77-7.56,3.62a3.82,3.82,0,1,1,0-7.56c1.42,2.85,4.38,3.62,7.56,3.62h2.3l0-.06c-2.25-2.25-5.81-.82-7.84-2.85a3.68,3.68,0,1,1,5.21-5.21c2,2,.6,5.59,2.79,7.79V342c0-3.18-.76-6.09-3.56-7.57a4,4,0,0,1,3.73-4.27,4.1,4.1,0,0,1,3.78,4.27c-2.85,1.48-3.62,4.39-3.62,7.57v2.3c2.25-2.25.83-5.81,2.85-7.84a3.68,3.68,0,1,1,5.21,5.21c-2,2-5.59.6-7.84,2.85l0,.06h2.35c3.18,0,6.09-.77,7.57-3.62a4.12,4.12,0,0,1,4.28,3.78,4,4,0,0,1-4.28,3.73c-1.48-2.8-4.39-3.57-7.57-3.57h-2.19c2.25,2.09,5.76.77,7.73,2.75a3.68,3.68,0,1,1-5.21,5.2c-2-2-.6-5.59-2.85-7.84v2.25c0,3.18.77,6.14,3.62,7.57a3.81,3.81,0,1,1-7.56,0c2.85-1.43,3.61-4.39,3.61-7.57v-2.19c-2.19,2.25-.76,5.76-2.79,7.78a3.68,3.68,0,1,1-5.21-5.2Z"/><path class="cls-8" d="M679.11,347.67c2-2,5.59-.61,7.73-2.75H684.7c-3.18,0-6.14.77-7.57,3.62a3.81,3.81,0,1,1,0-7.56c1.43,2.85,4.39,3.62,7.57,3.62H687l0-.06c-2.25-2.25-5.81-.82-7.84-2.85a3.68,3.68,0,1,1,5.21-5.21c2,2,.6,5.59,2.79,7.79V342c0-3.18-.76-6.09-3.56-7.57a4,4,0,0,1,3.73-4.27,4.11,4.11,0,0,1,3.78,4.27c-2.85,1.48-3.62,4.39-3.62,7.57v2.3c2.25-2.25.82-5.81,2.85-7.84a3.68,3.68,0,1,1,5.21,5.21c-2,2-5.59.6-7.84,2.85l0,.06H690c3.18,0,6.09-.77,7.57-3.62a4.12,4.12,0,0,1,4.28,3.78,4,4,0,0,1-4.28,3.73c-1.48-2.8-4.39-3.57-7.57-3.57h-2.19c2.25,2.09,5.76.77,7.73,2.75a3.68,3.68,0,1,1-5.21,5.2c-2-2-.6-5.59-2.85-7.84v2.25c0,3.18.77,6.14,3.62,7.57a3.82,3.82,0,1,1-7.57,0c2.86-1.43,3.62-4.39,3.62-7.57v-2.19c-2.19,2.25-.76,5.76-2.79,7.78a3.68,3.68,0,1,1-5.21-5.2Z"/><path class="cls-8" d="M711.46,347.67c2-2,5.59-.61,7.73-2.75h-2.14c-3.18,0-6.14.77-7.57,3.62a3.81,3.81,0,1,1,0-7.56c1.43,2.85,4.39,3.62,7.57,3.62h2.3l-.05-.06c-2.25-2.25-5.81-.82-7.84-2.85a3.68,3.68,0,1,1,5.21-5.21c2,2,.6,5.59,2.79,7.79V342c0-3.18-.77-6.09-3.56-7.57a4,4,0,0,1,3.73-4.27,4.12,4.12,0,0,1,3.78,4.27c-2.85,1.48-3.62,4.39-3.62,7.57v2.3c2.25-2.25.82-5.81,2.85-7.84a3.68,3.68,0,1,1,5.21,5.21c-2,2-5.59.6-7.84,2.85l-.06.06h2.36c3.18,0,6.09-.77,7.57-3.62a4.1,4.1,0,0,1,4.27,3.78,4,4,0,0,1-4.27,3.73c-1.48-2.8-4.39-3.57-7.57-3.57h-2.19c2.25,2.09,5.76.77,7.73,2.75a3.68,3.68,0,1,1-5.21,5.2c-2-2-.6-5.59-2.85-7.84v2.25c0,3.18.77,6.14,3.62,7.57a3.82,3.82,0,1,1-7.57,0c2.85-1.43,3.62-4.39,3.62-7.57v-2.19c-2.19,2.25-.77,5.76-2.79,7.78a3.68,3.68,0,1,1-5.21-5.2Z"/><path class="cls-8" d="M745.61,374.09v-.22c2.2-.88,2.2-3.56,2.2-11v-16.4c0-6.63,0-7.78-2.2-9v-.22a37.05,37.05,0,0,0,13.22-7.07v32.73c0,7.4,0,10.08,2.19,11v.22Z"/><path class="cls-8" d="M762.78,374.09v-.22c2.19-.88,2.19-3.56,2.19-11v-2c0-6.64,0-7.79-2.19-9.05v-.22A37.1,37.1,0,0,0,776,344.54v18.37c0,7.4,0,10.08,2.19,11v.22Zm7.45-43.26a7,7,0,1,1-7,7.08A7.09,7.09,0,0,1,770.23,330.83Z"/><path class="cls-8" d="M779.72,374.09v-.22c2.19-.88,2.19-3.56,2.19-11v-16.4c0-6.63,0-7.78-2.19-9v-.22a37.1,37.1,0,0,0,13.21-7.07v32.73c0,7.4,0,10.08,2.19,11v.22Zm34.48,0H801.81L793,359.34c5.76-1.31,9.32-4,9.32-6.9,0-3.24-4.55-5.16-8.28-5.6v-.22h20.67v.22c-3.23.61-9.54,4.28-12.55,7.13Z"/><path class="cls-8" d="M812.07,360.22a14.64,14.64,0,0,1,14.36-14.91c7,0,11.84,4.22,12.94,9.26H822c.49,8.39,5.92,12.61,11.46,12.61,2.9,0,5.21-1,6.47-2.63l.16.11c-1.92,5.37-5.32,10.14-13.27,10.14C818.15,374.8,812.07,369.38,812.07,360.22Zm9.86-6h1.21c3.84,0,5.59-2.25,5.59-4.71,0-1.92-.82-3.79-3-3.79s-3.84,1.7-3.84,7.62Z"/><path class="cls-8" d="M879.89,362.91v-6.53c.05-8.06-2.47-11.07-7.24-11.07-3.35,0-7.24,1.91-9.49,7.62V330.17A37,37,0,0,1,850,337.25v.22c2.19,1.26,2.19,2.41,2.19,9v16.4c0,7.4,0,10.08-2.19,11v.22h15.41v-.22c-2.2-.88-2.2-3.56-2.2-11v-9.82a5,5,0,0,1,2.31-.55c3.12,0,3.4,2.63,3.4,8.88v1.49c0,7.4,0,10.08-2.2,11v.22h15.41v-.22C879.89,373,879.89,370.31,879.89,362.91Z"/><path class="cls-8" d="M911.25,364.55c-1.26,1.64-3.57,2.63-6.47,2.63-5.54,0-11-4.22-11.46-12.61H910.7c-1.1-5-5.92-9.26-12.94-9.26a14.64,14.64,0,0,0-14.36,14.91c0,9.15,6.08,14.58,14.74,14.58,8,0,11.35-4.77,13.27-10.14Zm-18-11.24c0-5.92,1.65-7.62,3.84-7.62s3,1.86,3,3.78c0,2.47-1.75,4.72-5.59,4.72h-1.21Z"/><path class="cls-8" d="M938.39,366.08l.22-10.85c.16-7.18-4.55-9.92-10.48-9.92-8,0-16,3.67-16,8.16,0,2.64,1.92,4.45,4.88,4.45a5.62,5.62,0,0,0,5.81-6c0-3.23-2.57-5.87.93-5.87,2.47,0,4.17,2.64,4.17,5.71,0,3.34-.88,3.07-6.41,5.86-6.2,3.13-9.49,5.54-9.49,10a6.82,6.82,0,0,0,7.18,7.18c4.77,0,7.3-2.85,8.5-6.74.06,5,1.37,6.74,5.1,6.74,3.18,0,6.58-1.64,8.88-3.12v-.22C938,371.18,938.33,369.87,938.39,366.08Zm-10.64,1.32v.27c-2.41,1.21-5.21-.32-5.21-4.16a9.48,9.48,0,0,1,5.38-8.77Z"/><path class="cls-8" d="M958.67,346.62v.22c4,.28,8.78,2.58,4.28,13L961,364.39,955.17,351c-1-2.35.27-3.83,2.63-4.11v-.22H939.05v.22c1.64.38,2.46,1.32,3.56,3.84l10.09,23.41h4.55l8-18.37c3-7,6.41-8.6,8-8.88v-.22Z"/><path class="cls-8" d="M997.6,364.55c-1.26,1.64-3.56,2.63-6.47,2.63-5.54,0-11-4.22-11.46-12.61h17.38c-1.09-5-5.92-9.26-12.94-9.26a14.64,14.64,0,0,0-14.36,14.91c0,9.15,6.09,14.58,14.75,14.58,8,0,11.35-4.77,13.27-10.14Zm-18-11.24c0-5.92,1.64-7.62,3.84-7.62s3,1.86,3,3.78c0,2.47-1.76,4.72-5.6,4.72h-1.2Z"/><path class="cls-8" d="M1028.3,362.91v-6.53c.06-8.06-2.46-11.07-7.23-11.07-3.35,0-7.24,1.91-9.49,7.62v-8.39a37.1,37.1,0,0,1-13.21,7.07v.22c2.19,1.26,2.19,2.41,2.19,9.05v2c0,7.4,0,10.08-2.19,11v.22h15.41v-.22c-2.2-.88-2.2-3.56-2.2-11v-9.82a5,5,0,0,1,2.3-.55c3.13,0,3.4,2.63,3.4,8.88v1.49c0,7.4,0,10.08-2.19,11v.22h15.41v-.22C1028.3,373,1028.3,370.31,1028.3,362.91Z"/><path class="cls-8" d="M662.17,401.07c-3.84.88-4.94,3.56-4.94,11V428.7c0,7.4,1.1,10.09,4.94,11v.22H640.24v-.22c3.83-.88,4.93-3.57,4.93-11V412c0-7.4-1.1-10.08-4.93-11v-.22h21.93Z"/><path class="cls-8" d="M683.22,419.16c0,9.21,5.7,13.82,11.51,13.82,2.91,0,5.21-1,6.47-2.63l.17.11c-1.92,5.37-5.32,10.14-13.27,10.14-8.66,0-14.75-5.43-14.75-14.58a14.64,14.64,0,0,1,14.37-14.92c6.46,0,11.73,2.85,11.73,8.17a5.27,5.27,0,0,1-5.27,5.48c-4.82,0-6.08-4.33-5.59-8.6.33-2.85.66-4.72-1.53-4.72S683.22,413.62,683.22,419.16Z"/><path class="cls-8" d="M731.63,437.47c-2.3,1.48-5.7,3.13-8.88,3.13-3.73,0-5-1.76-5.1-6.75-1.2,3.9-3.73,6.75-8.5,6.75a6.82,6.82,0,0,1-7.18-7.18c0-4.44,3.29-6.86,9.49-10,5.53-2.8,6.41-2.52,6.41-5.87,0-3.07-1.7-5.7-4.17-5.7-3.5,0-.93,2.63-.93,5.87a5.61,5.61,0,0,1-5.81,6c-3,0-4.88-1.81-4.88-4.44,0-4.49,8-8.17,16-8.17,5.92,0,10.63,2.74,10.47,9.92l-.22,10.86c-.06,3.78-.39,5.1,3.34,5.37Zm-14-4v-.27l.17-12.67a9.5,9.5,0,0,0-5.38,8.77C712.44,433.14,715.24,434.68,717.65,433.47Z"/><path class="cls-8" d="M732.29,439.89v-.22c2.19-.88,2.19-3.57,2.19-11v-2c0-6.63,0-7.78-2.19-9v-.22a37,37,0,0,0,13.21-7.08v8.39c2.25-5.7,6.14-7.62,9.49-7.62,4.77,0,7.29,3,7.23,11.08v6.52c0,7.4,0,10.09,2.2,11v.22H749v-.22c2.2-.88,2.2-3.57,2.2-11v-1.48c0-6.25-.28-8.88-3.4-8.88a5,5,0,0,0-2.31.55v9.81c0,7.4,0,10.09,2.2,11v.22Z"/><path class="cls-8" d="M793.48,436.54c0-2.9-3-4-6.53-4.55l-1-.16c-7-1.16-10.69-6.14-10.69-11,0-6.36,6.9-9.76,12.39-9.76,2.9,0,5,1.32,6.79,1.32,1.27,0,1.81-.66,2-2.8h.17L799,422.89h-.27c-4.82-7.95-7-11.46-11.07-11.46-2.91,0-4.94,1.43-4.94,3.62,0,2.52,2.25,4.22,6.53,4.93l1,.17c7.62,1.26,11,5.21,11,9.76,0,6.85-6.63,10.69-13,10.69-4.83,0-5.7-1.32-8-1.32-1.09,0-1.64.66-1.86,2.8h-.16l-2.36-14.37h.22c4.27,8,6.8,12.56,12.22,12.56C790.57,440.27,793.48,439.12,793.48,436.54Z"/><path class="cls-8" d="M802.53,426a14.64,14.64,0,0,1,14.36-14.92c7,0,11.84,4.22,12.94,9.27H812.45c.49,8.39,5.92,12.61,11.46,12.61,2.9,0,5.21-1,6.47-2.63l.16.11c-1.92,5.37-5.32,10.14-13.27,10.14C808.61,440.6,802.53,435.17,802.53,426Zm9.86-6h1.21c3.84,0,5.59-2.24,5.59-4.71,0-1.92-.82-3.78-3-3.78s-3.84,1.7-3.84,7.62Z"/><path class="cls-8" d="M830.93,426a14.64,14.64,0,0,1,14.36-14.92c7,0,11.84,4.22,12.94,9.27H840.85c.49,8.39,5.92,12.61,11.46,12.61,2.9,0,5.21-1,6.47-2.63l.16.11c-1.92,5.37-5.32,10.14-13.27,10.14C837,440.6,830.93,435.17,830.93,426Zm9.86-6H842c3.84,0,5.59-2.24,5.59-4.71,0-1.92-.82-3.78-3-3.78s-3.84,1.7-3.84,7.62Z"/><path class="cls-8" d="M884.71,412.42v.22c3.95.27,8.72,2.57,4.28,13l-1.92,4.55-5.87-13.43c-1-2.36.28-3.84,2.63-4.11v-.22H865.08v.22c1.65.38,2.47,1.31,3.57,3.83L877.91,438c3.89,9.05-.77,12.72-3.34,12.72-1.81,0-1.59-1.59-1.81-3.29-.38-3.23-1.21-6.08-5.15-6.08-3.13,0-5.43,2.08-5.43,4.93,0,4.39,4.38,6.64,7.89,6.64,2.91,0,7.73-.17,12.5-11.3l8.56-19.79c3.34-7.84,6.46-8.61,8.11-9.15v-.22Z"/><path class="cls-8" d="M912.13,411.1c-8,0-16.29,5-16.29,14.75s8.28,14.75,16.29,14.75,16.28-5,16.28-14.75S920.13,411.1,912.13,411.1Zm2,29.11c-3.24,0-4.72-5.86-6.14-13.65a55.89,55.89,0,0,1-1.1-9.37c0-3.95,1.15-5.71,3.29-5.71,3.24,0,4.72,5.87,6.14,13.66a55.77,55.77,0,0,1,1.1,9.37C917.39,438.46,916.24,440.21,914.1,440.21Z"/><path class="cls-8" d="M959.82,430.34V411.21l-13.59,3.89v.22c2.25.71,2.57,2.36,2.57,7.13v10.36a4.94,4.94,0,0,1-2.3.55c-3.12,0-3.4-2.58-3.4-8.88V411.21l-13.59,3.89v.22c2.24.71,2.57,2.36,2.57,7.13v7.07c0,8.06,2.47,11.08,7.24,11.08,3.34,0,7.24-1.92,9.48-7.63v7.9a43.44,43.44,0,0,1,13.6-3.18v-.22C960.15,436.76,959.82,435.11,959.82,430.34Z"/><path class="cls-8" d="M999.79,431.88,1000,421c.17-7.18-4.55-9.92-10.47-9.92-7.95,0-15.95,3.67-15.95,8.17,0,2.63,1.92,4.44,4.88,4.44a5.62,5.62,0,0,0,5.81-6c0-3.23-2.58-5.86.93-5.86,2.47,0,4.17,2.63,4.17,5.7,0,3.34-.88,3.07-6.42,5.87-6.19,3.12-9.48,5.53-9.48,10a6.81,6.81,0,0,0,7.18,7.19c4.77,0,7.29-2.85,8.5-6.75.05,5,1.37,6.75,5.1,6.75,3.18,0,6.58-1.65,8.88-3.13v-.22C999.41,437,999.74,435.66,999.79,431.88Zm-10.63,1.31v.28c-2.41,1.21-5.21-.33-5.21-4.17a9.47,9.47,0,0,1,5.37-8.77Z"/><path class="cls-8" d="M1016.85,428.7V396a37.22,37.22,0,0,1-13.22,7.07v.22c2.2,1.26,2.2,2.41,2.2,9.05V428.7c0,7.4,0,10.09-2.2,11v.22H1019v-.22C1016.85,438.79,1016.85,436.1,1016.85,428.7Z"/><path class="cls-8" d="M1033.79,428.7V396a37.13,37.13,0,0,1-13.22,7.07v.22c2.2,1.26,2.2,2.41,2.2,9.05V428.7c0,7.4,0,10.09-2.2,11v.22H1036v-.22C1033.79,438.79,1033.79,436.1,1033.79,428.7Z"/><path class="cls-8" d="M1044.2,428.48a6.14,6.14,0,0,0-6.46,6c0,6.52,7.56,4.22,7.56,7.89,0,2.3-3,5.26-6.25,7.57l.22.38c6.36-4.22,11.07-9.87,11.07-14.58S1047.44,428.48,1044.2,428.48Z"/><path class="cls-8" d="M1076.72,420.15l-1-.17c-4.28-.71-6.52-2.41-6.52-4.93,0-2.2,2-3.62,4.93-3.62,4.11,0,6.25,3.51,11.07,11.46h.28l-2.36-13.27H1083c-.22,2.14-.77,2.8-2,2.8-1.81,0-3.89-1.32-6.8-1.32-5.48,0-12.39,3.4-12.39,9.76,0,4.82,3.73,9.81,10.69,11l1,.17c3.56.6,6.52,1.64,6.52,4.55,0,2.58-2.9,3.73-5.15,3.73-5.43,0-8-4.61-12.23-12.56h-.22l2.36,14.37h.16c.22-2.14.77-2.8,1.87-2.8,2.3,0,3.18,1.32,8,1.32,6.36,0,13-3.84,13-10.7C1087.74,425.35,1084.34,421.41,1076.72,420.15Z"/><path class="cls-8" d="M1116.85,430.34c-1.26,1.65-3.56,2.63-6.47,2.63-5.54,0-11-4.22-11.46-12.6h17.38c-1.09-5.05-5.92-9.27-12.94-9.27A14.64,14.64,0,0,0,1089,426c0,9.16,6.08,14.59,14.75,14.59,8,0,11.35-4.77,13.26-10.15Zm-18-11.24c0-5.92,1.64-7.62,3.84-7.62s3,1.87,3,3.79c0,2.46-1.76,4.71-5.6,4.71h-1.2Z"/><path class="cls-8" d="M1145.25,430.34c-1.26,1.65-3.56,2.63-6.47,2.63-5.54,0-11-4.22-11.46-12.6h17.38c-1.09-5.05-5.92-9.27-12.94-9.27A14.64,14.64,0,0,0,1117.4,426c0,9.16,6.08,14.59,14.75,14.59,7.95,0,11.35-4.77,13.27-10.15Zm-18-11.24c0-5.92,1.64-7.62,3.84-7.62s3,1.87,3,3.79c0,2.46-1.76,4.71-5.6,4.71h-1.2Z"/><path class="cls-8" d="M1171.18,412.42v.22c4,.27,8.72,2.57,4.28,13l-1.92,4.55-5.86-13.43c-1-2.36.27-3.84,2.63-4.11v-.22h-18.75v.22c1.64.38,2.46,1.31,3.56,3.83l9.27,21.49c3.89,9.05-.77,12.72-3.35,12.72-1.81,0-1.59-1.59-1.81-3.29-.38-3.23-1.2-6.08-5.15-6.08-3.13,0-5.43,2.08-5.43,4.93,0,4.39,4.39,6.64,7.9,6.64,2.9,0,7.73-.17,12.5-11.3l8.55-19.79c3.34-7.84,6.47-8.61,8.11-9.15v-.22Z"/><path class="cls-8" d="M1196.63,411.48c3.23,0,4.71,5.87,6.13,13.66l.06.34v-13.9a18.77,18.77,0,0,0-4.22-.48c-8,0-16.28,5-16.28,14.75s8.27,14.75,16.28,14.75a18.77,18.77,0,0,0,4.22-.48v-1a2.67,2.67,0,0,1-2.25,1.07c-3.23,0-4.71-5.86-6.14-13.65a55.74,55.74,0,0,1-1.09-9.37C1193.34,413.24,1194.49,411.48,1196.63,411.48Z"/><path class="cls-8" d="M659,487.31h-8.22l-.44,1.15c-4.17,11.19,2.9,16.73,8.55,17v.22H637.27v-.22c3.18-.27,7.9-4.44,11.24-13.27l6-15.84-3.62-8.83c5.65-.38,8.77-1.86,10.36-7h.17l16.83,41.06c1,2.58,2.41,3.4,5.21,3.84v.22H661.07v-.22c4-.38,5-1,3.4-5Zm-.22-.55-4.06-9.86L651,486.76Z"/><path class="cls-8" d="M682.67,505.68v-.22c2.19-.88,2.19-3.56,2.19-11v-2c0-6.64,0-7.79-2.19-9.05v-.22a37.1,37.1,0,0,0,13.21-7.07v8.39c2.25-5.71,6.14-7.62,9.49-7.62,4.77,0,7.29,3,7.24,11.07v6.52c0,7.41,0,10.09,2.19,11v.22H699.39v-.22c2.2-.88,2.2-3.56,2.2-11V493c0-6.26-.28-8.89-3.4-8.89a5,5,0,0,0-2.31.55v9.81c0,7.41,0,10.09,2.2,11v.22Z"/><path class="cls-8" d="M746,496.14c0,4.77.33,6.41,2.57,7.13v.22A43.37,43.37,0,0,0,735,506.67v-7.79c-1.15,3.24-3.73,7.51-8.67,7.51-5.37,0-10.14-4.38-10.14-12.77,0-11.19,8.12-16.72,15.3-16.72a20.31,20.31,0,0,1,3.51.33v-.11c0-6.86-.72-7-2.8-8.06v-.22A36.81,36.81,0,0,0,746,461.76Zm-12.56,2.69a5.12,5.12,0,0,0,1.54-.22v-14.2c0-5.54-2-7.18-4.17-7.18s-3.62,3.72-3.62,9.26S728.89,498.83,733.44,498.83Z"/><path class="cls-8" d="M754.83,478.21h6l10.8-8.77h.22v8.77h10.09v.55H771.82v17.38c0,4,1.15,5.87,3.84,5.87a3.89,3.89,0,0,0,3.45-1.87l.11.06c-1.64,3.78-4.55,6.19-9.92,6.19-4.72,0-8.5-2.79-8.5-8.55V478.76h-6Z"/><path class="cls-8" d="M778.57,505.68v-.22c2.19-.88,2.19-3.56,2.19-11V478.1c0-6.63,0-7.78-2.19-9v-.22a37,37,0,0,0,13.21-7.08v22.76c2.25-5.71,6.14-7.62,9.48-7.62,4.77,0,7.3,3,7.24,11.07v6.52c0,7.41,0,10.09,2.19,11v.22h-15.4v-.22c2.19-.88,2.19-3.56,2.19-11V493c0-6.26-.27-8.89-3.4-8.89a5,5,0,0,0-2.3.55v9.81c0,7.41,0,10.09,2.19,11v.22Z"/><path class="cls-8" d="M812.23,505.68v-.22c2.19-.88,2.19-3.56,2.19-11v-2c0-6.64,0-7.79-2.19-9.05v-.22a37.1,37.1,0,0,0,13.21-7.07v9c1.54-4.93,3.57-8.27,6.91-8.27s4.44,2.85,4.44,5.64-1.42,5.54-4.33,5.54c-2.41,0-4.44-3.4-5.81-3.4-.55,0-.88.44-1.21,1v8.77c0,7.41,0,10.09,2.2,11v.22Z"/><path class="cls-8" d="M853,506.39c-8,0-16.28-5-16.28-14.75S845,476.9,853,476.9s16.28,5,16.28,14.74S861,506.39,853,506.39Zm-4.17-14c1.43,7.78,2.91,13.65,6.14,13.65,2.14,0,3.29-1.76,3.29-5.7a55.73,55.73,0,0,0-1.09-9.38c-1.43-7.78-2.91-13.65-6.14-13.65-2.14,0-3.29,1.75-3.29,5.7A56.91,56.91,0,0,0,848.85,492.36Z"/><path class="cls-8" d="M900.72,496.14V477l-13.6,3.9v.22c2.25.71,2.58,2.35,2.58,7.12V498.6a5,5,0,0,1-2.3.55c-3.13,0-3.4-2.57-3.4-8.88V477l-13.6,3.9v.22c2.25.71,2.58,2.35,2.58,7.12v7.07c0,8.06,2.47,11.08,7.23,11.08,3.35,0,7.24-1.92,9.49-7.62v7.89a43.65,43.65,0,0,1,13.6-3.18v-.22C901.05,502.55,900.72,500.91,900.72,496.14Z"/><path class="cls-8" d="M929.61,479.91c1.37-1.1,3.57,2.14,6.25,2.14a3.74,3.74,0,0,0,3.68-3.84c0-1.92-1-3.89-3.79-3.89-2.3,0-4.77,2.24-6.63,5.64a17.67,17.67,0,0,0-9.92-3.07c-6.91,0-13.65,3.79-13.65,10.15,0,4.44,3.29,7.62,7.56,9.1-5,1.48-8.72,4.49-8.72,8.22s2.8,6.09,7.08,6.64c-2.85,0-6,1.15-6,3,0,3,4.94,4.71,12.78,4.71,8.71,0,18.58-5,18.58-13,0-6.14-5.15-8.72-13.87-6.91l-5.26,1.1a29.34,29.34,0,0,1-5.21.82c-1.32,0-2.14-.39-2.14-1.37,0-.82.55-1.76,3.13-3a19.26,19.26,0,0,0,5.7.88c6.91,0,13.65-3.78,13.65-10.14a8.49,8.49,0,0,0-3.46-6.91C929.45,480.07,929.5,480,929.61,479.91Zm-12.5,30.81,5.76-1.15c3.67-.71,5.65.71,5.65,3.4,0,3.29-3.29,5.15-9.71,5.15-4.77,0-8-1.64-8-4.55a3.19,3.19,0,0,1,1.21-2.52A18.47,18.47,0,0,0,917.11,510.72Zm4.23-14c-1.76,0-3.29-2.85-4.94-8.89a29.57,29.57,0,0,1-1.31-7.29c0-2.36.87-3.12,2-3.12,1.75,0,3.29,2.85,4.93,8.88a29.69,29.69,0,0,1,1.32,7.29C923.31,495.92,922.43,496.69,921.34,496.69Z"/><path class="cls-8" d="M968.71,494.49V488c0-8.06-2.47-11.08-7.24-11.08-3.34,0-7.24,1.92-9.49,7.62V461.76a37.13,37.13,0,0,1-13.21,7.08v.21c2.19,1.26,2.19,2.42,2.19,9.05v16.39c0,7.4,0,10.09-2.19,11v.22h15.41v-.22c-2.2-.88-2.2-3.57-2.2-11v-9.81a5,5,0,0,1,2.31-.55c3.12,0,3.4,2.63,3.4,8.88v1.48c0,7.4,0,10.09-2.2,11v.22H970.9v-.22C968.71,504.58,968.71,501.89,968.71,494.49Z"/><path class="cls-8" d="M988.5,476.89c-8,0-16.28,5-16.28,14.75s8.28,14.75,16.28,14.75,16.28-5,16.28-14.75S996.5,476.89,988.5,476.89Zm2,29.12c-3.23,0-4.71-5.87-6.14-13.66a55.63,55.63,0,0,1-1.09-9.37c0-4,1.15-5.7,3.29-5.7,3.23,0,4.71,5.86,6.14,13.65a56.81,56.81,0,0,1,1.09,9.37C993.76,504.25,992.61,506,990.47,506Z"/><path class="cls-8" d="M1036.2,496.14V477l-13.6,3.9v.22c2.25.71,2.58,2.35,2.58,7.12V498.6a5,5,0,0,1-2.3.55c-3.13,0-3.4-2.57-3.4-8.88V477l-13.6,3.9v.22c2.25.71,2.58,2.35,2.58,7.12v7.07c0,8.06,2.46,11.08,7.23,11.08,3.35,0,7.24-1.92,9.49-7.62v7.89a43.65,43.65,0,0,1,13.6-3.18v-.22C1036.53,502.55,1036.2,500.91,1036.2,496.14Z"/><path class="cls-8" d="M1063.72,478.76v-.55h-10.09v-8.77h-.21l-10.81,8.77h-6v.55h6v19.08c0,5.75,3.79,8.55,8.5,8.55,5.38,0,8.28-2.41,9.93-6.2l-.11-.05a3.9,3.9,0,0,1-3.46,1.86c-2.68,0-3.84-1.86-3.84-5.86V478.76Z"/><path class="cls-8" d="M1117.23,494.49V488c.06-8.06-2.46-11.08-7.23-11.08-3.35,0-7.35,2-9.65,7.79-.61-5.59-3-7.79-7.08-7.79-3.34,0-7.23,1.92-9.48,7.62v-8.38a37.1,37.1,0,0,1-13.21,7.07v.22c2.19,1.26,2.19,2.41,2.19,9v2c0,7.4,0,10.09-2.19,11v.22H1086v-.22c-2.19-.88-2.19-3.57-2.19-11v-9.81a5,5,0,0,1,2.3-.55c3.13,0,3.4,2.63,3.4,8.88v1.48c0,7.4,0,10.09-2.19,11v.22h15.4v-.22c-2.19-.88-2.19-3.57-2.19-11V488a27.9,27.9,0,0,0-.16-3.18,4.6,4.6,0,0,1,2.46-.66c3.13,0,3.4,2.63,3.4,8.88v1.48c0,7.4,0,10.09-2.19,11v.22h15.41v-.22C1117.23,504.58,1117.23,501.89,1117.23,494.49Z"/><path class="cls-8" d="M1148.59,496.14c-1.26,1.64-3.56,2.63-6.46,2.63-5.54,0-11-4.22-11.46-12.61h17.38c-1.1-5-5.92-9.27-12.94-9.27a14.65,14.65,0,0,0-14.37,14.92c0,9.15,6.09,14.58,14.75,14.58,8,0,11.35-4.77,13.27-10.14Zm-18-11.24c0-5.92,1.65-7.62,3.84-7.62s3,1.86,3,3.78c0,2.47-1.75,4.72-5.59,4.72h-1.21Z"/><path class="cls-8" d="M662.17,598.45c-3.84.88-4.94,3.57-4.94,11v7.29H672v-7.29c0-7.4-1.09-10.09-4.93-11v-.22H689v.22c-3.84.88-4.93,3.57-4.93,11v16.66c0,7.4,1.09,10.09,4.93,11v.22H667.1v-.22c3.84-.88,4.93-3.57,4.93-11v-8.82h-14.8v8.82c0,7.4,1.1,10.09,4.94,11v.22H640.24v-.22c3.83-.88,4.93-3.57,4.93-11V609.42c0-7.4-1.1-10.09-4.93-11v-.22h21.93Z"/><path class="cls-8" d="M688.7,623.4a14.65,14.65,0,0,1,14.37-14.92c7,0,11.84,4.23,12.94,9.27H698.63c.49,8.39,5.92,12.61,11.46,12.61,2.9,0,5.2-1,6.46-2.63l.17.11C714.8,633.21,711.4,638,703.45,638,694.79,638,688.7,632.55,688.7,623.4Zm9.87-6h1.21c3.84,0,5.59-2.25,5.59-4.72,0-1.92-.82-3.78-3-3.78s-3.84,1.7-3.84,7.62Z"/><path class="cls-8" d="M733.11,609.8V610c-2.35.27-3.67,1.75-2.63,4.11l5.87,13.43,1.92-4.55c4.44-10.41-.33-12.72-4.28-13v-.22h14.53V610c-1.65.55-4.77,1.31-8.12,9.16L731.85,639c-4.77,11.13-9.59,11.29-12.5,11.29-3.51,0-7.89-2.25-7.89-6.63,0-2.85,2.3-4.94,5.43-4.94,3.94,0,4.76,2.85,5.15,6.09.22,1.7,0,3.29,1.81,3.29,2.57,0,7.23-3.68,3.34-12.72l-9.26-21.49c-1.1-2.53-1.92-3.46-3.57-3.84v-.22Z"/><path class="cls-8" d="M756.31,633.1c0,4.71-4.72,10.36-11.08,14.58l-.22-.38c3.24-2.3,6.25-5.26,6.25-7.57,0-3.67-7.56-1.37-7.56-7.89a6.14,6.14,0,0,1,6.47-6C753.4,625.86,756.31,628.39,756.31,633.1Z"/><path class="cls-8" d="M782.68,609.8V610c-2.36.27-3.68,1.75-2.63,4.11l5.86,13.43,1.92-4.55c4.44-10.41-.33-12.72-4.27-13v-.22h14.52V610c-1.64.55-4.77,1.31-8.11,9.16L781.42,639c-4.77,11.13-9.6,11.29-12.5,11.29-3.51,0-7.9-2.25-7.9-6.63,0-2.85,2.3-4.94,5.43-4.94,3.95,0,4.77,2.85,5.15,6.09.22,1.7,0,3.29,1.81,3.29,2.58,0,7.24-3.68,3.35-12.72l-9.27-21.49c-1.1-2.53-1.92-3.46-3.56-3.84v-.22Z"/><path class="cls-8" d="M811,638c-8,0-16.28-5-16.28-14.75S803,608.48,811,608.48s16.28,5,16.28,14.75S819,638,811,638Zm-4.17-14c1.43,7.79,2.91,13.66,6.14,13.66,2.14,0,3.29-1.76,3.29-5.71a56.81,56.81,0,0,0-1.09-9.37c-1.43-7.79-2.91-13.65-6.14-13.65-2.14,0-3.29,1.75-3.29,5.7A55.63,55.63,0,0,0,806.8,623.94Z"/><path class="cls-8" d="M828.35,612.71v-.22l13.6-3.9v13.27c0,6.31.27,8.88,3.4,8.88a5,5,0,0,0,2.3-.55V619.83c0-4.77-.33-6.41-2.58-7.12v-.22l13.6-3.9v19.14c0,4.77.33,6.41,2.58,7.12v.22a43.65,43.65,0,0,0-13.6,3.18v-7.89c-2.25,5.7-6.14,7.62-9.49,7.62-4.77,0-7.23-3-7.23-11.08v-7.07C830.93,615.06,830.6,613.42,828.35,612.71Z"/><path class="cls-8" d="M887.12,617.53l-1-.17c-4.28-.71-6.53-2.41-6.53-4.93,0-2.19,2-3.62,4.94-3.62,4.11,0,6.25,3.51,11.07,11.46h.28L893.54,607h-.16c-.22,2.14-.77,2.8-2,2.8-1.81,0-3.9-1.32-6.8-1.32-5.48,0-12.39,3.4-12.39,9.76,0,4.83,3.73,9.81,10.69,11l1,.16c3.56.6,6.52,1.64,6.52,4.55,0,2.58-2.91,3.73-5.15,3.73-5.43,0-8-4.61-12.23-12.56h-.22l2.36,14.37h.16c.22-2.14.77-2.8,1.87-2.8,2.3,0,3.18,1.32,8,1.32,6.36,0,13-3.84,13-10.69C898.14,622.74,894.75,618.79,887.12,617.53Z"/><path class="cls-8" d="M922.71,610.35v-.55H912.62V601h-.22l-10.8,8.77h-6v.55h6v19.08c0,5.75,3.78,8.55,8.5,8.55,5.37,0,8.28-2.41,9.92-6.2l-.11,0a3.88,3.88,0,0,1-3.45,1.86c-2.69,0-3.84-1.86-3.84-5.86V610.35Z"/><path class="cls-8" d="M926.82,594a7,7,0,1,0,7.07,7.07A7.08,7.08,0,0,0,926.82,594Zm5.76,32.07V607.71a37,37,0,0,1-13.21,7.08V615c2.19,1.26,2.19,2.41,2.19,9v2c0,7.4,0,10.09-2.19,11v.21h15.4v-.21C932.58,636.17,932.58,633.48,932.58,626.08Z"/><path class="cls-8" d="M949.52,626.08V593.35a37.1,37.1,0,0,1-13.21,7.07v.22c2.19,1.26,2.19,2.41,2.19,9.05v16.39c0,7.4,0,10.09-2.19,11v.21h15.4v-.21C949.52,636.17,949.52,633.48,949.52,626.08Z"/><path class="cls-8" d="M966.46,626.08V593.35a37.1,37.1,0,0,1-13.21,7.07v.22c2.19,1.26,2.19,2.41,2.19,9.05v16.39c0,7.4,0,10.09-2.19,11v.21h15.4v-.21C966.46,636.17,966.46,633.48,966.46,626.08Z"/><path class="cls-8" d="M992.83,626.08V593.35a37.1,37.1,0,0,1-13.21,7.07v.22c2.19,1.26,2.19,2.41,2.19,9.05v16.39c0,7.4,0,10.09-2.19,11v.21H995v-.21C992.83,636.17,992.83,633.48,992.83,626.08Z"/><path class="cls-8" d="M1004.24,594a7,7,0,1,0,7.07,7.07A7.08,7.08,0,0,0,1004.24,594Zm5.75,32.07V607.71a37,37,0,0,1-13.21,7.08V615c2.19,1.26,2.19,2.41,2.19,9v2c0,7.4,0,10.09-2.19,11v.21h15.41v-.21C1010,636.17,1010,633.48,1010,626.08Z"/><path class="cls-8" d="M1048.75,609.8h-20.66V610c3.72.44,8.27,2.35,8.27,5.59,0,2.85-3.56,5.59-9.32,6.91l8.78,14.74h12.39l-12-20.12c3-2.85,9.32-6.52,12.55-7.12Zm-21.82,16.28V593.35a37.1,37.1,0,0,1-13.21,7.07v.22c2.2,1.26,2.2,2.41,2.2,9.05v16.39c0,7.4,0,10.09-2.2,11v.21h15.41v-.21C1026.93,636.17,1026.93,633.48,1026.93,626.08Z"/><path class="cls-8" d="M1073.92,627.73c-1.26,1.64-3.56,2.63-6.47,2.63-5.54,0-11-4.22-11.46-12.61h17.38c-1.09-5-5.92-9.27-12.94-9.27a14.64,14.64,0,0,0-14.36,14.91c0,9.16,6.09,14.59,14.75,14.59,8,0,11.35-4.77,13.27-10.14Zm-18-11.24c0-5.92,1.64-7.62,3.84-7.62s3,1.86,3,3.78c0,2.47-1.76,4.71-5.6,4.71h-1.2Z"/><path class="cls-8" d="M1105.45,608.48c-4.94,0-7.51,4.28-8.66,7.51V593.35a37.22,37.22,0,0,1-13.22,7.07v.22c2.2,1.26,2.2,2.41,2.2,9.05v28.89l6.74-2.63a21.91,21.91,0,0,0,7.78,2c7.19,0,15.3-5.65,15.3-16.83C1115.59,614.07,1111.26,608.48,1105.45,608.48Zm-4.77,29.17c-1.87,0-3.89-1.65-3.89-7.18v-14.2a4.76,4.76,0,0,1,1.53-.22c4.55,0,6.25,6.91,6.25,12.33S1103.2,637.65,1100.68,637.65Z"/><path class="cls-8" d="M1144.92,627.73c-1.26,1.64-3.56,2.63-6.47,2.63-5.53,0-11-4.22-11.45-12.61h17.38c-1.1-5-5.93-9.27-12.94-9.27a14.65,14.65,0,0,0-14.37,14.91c0,9.16,6.09,14.59,14.75,14.59,8,0,11.35-4.77,13.27-10.14Zm-18-11.24c0-5.92,1.65-7.62,3.84-7.62s3,1.86,3,3.78c0,2.47-1.76,4.71-5.59,4.71h-1.21Z"/><path class="cls-8" d="M1173.32,627.73c-1.26,1.64-3.56,2.63-6.47,2.63-5.53,0-11-4.22-11.45-12.61h17.38c-1.1-5-5.93-9.27-12.94-9.27a14.65,14.65,0,0,0-14.37,14.91c0,9.16,6.09,14.59,14.75,14.59,8,0,11.35-4.77,13.27-10.14Zm-18-11.24c0-5.92,1.65-7.62,3.84-7.62s3,1.86,3,3.78c0,2.47-1.76,4.71-5.59,4.71h-1.21Z"/><path class="cls-8" d="M1194.21,608.48c-3.34,0-5.37,3.35-6.91,8.28v-9a37,37,0,0,1-13.21,7.08V615c2.2,1.26,2.2,2.41,2.2,9v2c0,7.4,0,10.09-2.2,11v.21h15.41v-.21c-2.2-.88-2.2-3.57-2.2-11v-8.77c.33-.6.66-1,1.21-1,1.37,0,3.4,3.4,5.81,3.4,2.91,0,4.33-2.85,4.33-5.54S1197.61,608.48,1194.21,608.48Z"/><path class="cls-8" d="M1198.44,602.12a4.92,4.92,0,0,0,4.38,5V595.8C1199.87,597.47,1198.44,599.8,1198.44,602.12Z"/><path class="cls-8" d="M660.41,704.43h-.22l-17.05-36.35c-1.15-2.57-2.41-3.45-5.21-3.83V664H660.3v.22c-4,.38-5,1.26-3.4,5l9.65,21.66,5.54-11.24c4.44-9-4.28-15.13-9.92-15.4V664h22.75v.22c-3.18.27-7.13,4.88-11.24,13.26Z"/><path class="cls-8" d="M685,703.06v-.22c2.2-.87,2.2-3.56,2.2-11v-2c0-6.63,0-7.79-2.2-9.05v-.22a36.89,36.89,0,0,0,13.22-7.07v18.37c0,7.4,0,10.09,2.19,11v.22Zm7.46-43.25a7,7,0,1,1-7,7.07A7.08,7.08,0,0,1,692.43,659.81Z"/><path class="cls-8" d="M731.74,693.52c0,4.77.33,6.42,2.58,7.13v.22a43.37,43.37,0,0,0-13.6,3.18v-7.79c-1.15,3.24-3.73,7.51-8.66,7.51-5.37,0-10.14-4.38-10.14-12.77,0-11.18,8.11-16.72,15.29-16.72a20.31,20.31,0,0,1,3.51.33v-.11c0-6.85-.71-7-2.79-8.06v-.22a36.82,36.82,0,0,0,13.81-7.07Zm-12.55,2.69a5.06,5.06,0,0,0,1.53-.22v-14.2c0-5.54-2-7.18-4.16-7.18s-3.62,3.73-3.62,9.26S714.64,696.21,719.19,696.21Z"/><path class="cls-8" d="M735.58,689.19a14.64,14.64,0,0,1,14.36-14.91c7,0,11.85,4.22,12.94,9.26H745.5c.5,8.39,5.92,12.61,11.46,12.61,2.91,0,5.21-1,6.47-2.63l.17.11c-1.92,5.38-5.32,10.14-13.27,10.14C741.67,703.77,735.58,698.35,735.58,689.19Zm9.87-6h1.2c3.84,0,5.6-2.25,5.6-4.71,0-1.92-.83-3.79-3-3.79s-3.84,1.7-3.84,7.62Z"/><path class="cls-8" d="M780.26,703.77c-8,0-16.28-5-16.28-14.74s8.28-14.75,16.28-14.75,16.29,5,16.29,14.75S788.27,703.77,780.26,703.77Zm-4.16-14c1.42,7.78,2.9,13.65,6.14,13.65,2.14,0,3.29-1.75,3.29-5.7a56,56,0,0,0-1.1-9.38c-1.42-7.78-2.91-13.65-6.14-13.65-2.14,0-3.29,1.76-3.29,5.7A55.87,55.87,0,0,0,776.1,689.74Z"/><path class="cls-8" d="M825.72,699.72c0-2.91-3-4-6.53-4.55l-1-.17c-7-1.15-10.7-6.14-10.7-11,0-6.36,6.91-9.76,12.39-9.76,2.91,0,5,1.32,6.8,1.32,1.26,0,1.81-.66,2-2.8h.17l2.35,13.27H831c-4.83-8-7-11.46-11.08-11.46-2.9,0-4.93,1.42-4.93,3.62,0,2.52,2.25,4.22,6.52,4.93l1,.16c7.62,1.27,11,5.21,11,9.76,0,6.86-6.63,10.69-13,10.69-4.83,0-5.7-1.31-8-1.31-1.09,0-1.64.66-1.86,2.8h-.17l-2.35-14.37h.22c4.27,8,6.8,12.56,12.22,12.56C822.81,703.45,825.72,702.29,825.72,699.72Z"/><path class="cls-8" d="M850.5,715.45v.22h-16v-.22c2.2-.87,2.2-3.56,2.2-11V689.85c0-6.63,0-7.79-2.2-9.05v-.22a37.06,37.06,0,0,0,13.22-7.07v8.28c1.15-3.23,3.72-7.51,8.66-7.51,5.81,0,10.14,5.59,10.14,12.66,0,11.19-8.11,16.83-15.3,16.83a18.45,18.45,0,0,1-3.5-.32v1C847.76,711.89,847.76,714.58,850.5,715.45Zm-2.74-33.39v14.2c0,5.54,2,7.19,4.16,7.19s3.62-3.73,3.62-9.27-1.7-12.33-6.25-12.33A5,5,0,0,0,847.76,682.06Z"/><path class="cls-8" d="M895.89,693.52c-1.26,1.65-3.56,2.63-6.46,2.63-5.54,0-11-4.22-11.46-12.61h17.38c-1.1-5-5.92-9.26-12.94-9.26A14.65,14.65,0,0,0,868,689.19c0,9.15,6.09,14.58,14.75,14.58,8,0,11.35-4.77,13.27-10.14Zm-18-11.24c0-5.92,1.65-7.62,3.84-7.62s3,1.86,3,3.78c0,2.47-1.75,4.72-5.59,4.72h-1.21Z"/><path class="cls-8" d="M923,695.05l.22-10.85c.17-7.18-4.55-9.92-10.47-9.92-7.95,0-15.95,3.67-15.95,8.17,0,2.63,1.92,4.44,4.88,4.44a5.62,5.62,0,0,0,5.81-6c0-3.23-2.58-5.87.93-5.87,2.47,0,4.17,2.64,4.17,5.71,0,3.34-.88,3.07-6.42,5.86-6.19,3.13-9.48,5.54-9.48,10,0,4.72,3.34,7.18,7.18,7.18,4.77,0,7.29-2.85,8.5-6.74.05,5,1.37,6.74,5.1,6.74,3.18,0,6.58-1.64,8.88-3.12v-.22C922.65,700.15,923,698.84,923,695.05Zm-10.63,1.32v.28c-2.41,1.2-5.21-.33-5.21-4.17a9.48,9.48,0,0,1,5.37-8.77Z"/><path class="cls-8" d="M961.91,675.59H941.24v.22c3.72.44,8.28,2.36,8.28,5.59,0,2.86-3.57,5.6-9.32,6.91L949,703.06h12.39l-12-20.12c3-2.85,9.32-6.52,12.56-7.13Zm-21.82,16.29V659.14a37.09,37.09,0,0,1-13.22,7.08v.22c2.2,1.26,2.2,2.41,2.2,9v16.4c0,7.4,0,10.08-2.2,11v.22h15.41v-.22C940.09,702,940.09,699.28,940.09,691.88Z"/><path class="cls-8" d="M987.07,693.52c-1.26,1.65-3.56,2.63-6.47,2.63-5.53,0-11-4.22-11.46-12.61h17.38c-1.09-5-5.92-9.26-12.93-9.26a14.64,14.64,0,0,0-14.37,14.91c0,9.15,6.09,14.58,14.75,14.58,7.95,0,11.35-4.77,13.27-10.14Zm-18-11.24c0-5.92,1.64-7.62,3.84-7.62s3,1.86,3,3.78c0,2.47-1.76,4.72-5.59,4.72h-1.21Z"/><path class="cls-8" d="M1008,674.28c-3.34,0-5.37,3.34-6.91,8.27v-9a37.1,37.1,0,0,1-13.21,7.07v.22c2.2,1.26,2.2,2.41,2.2,9.05v2c0,7.4,0,10.08-2.2,11v.22h15.41v-.22c-2.2-.88-2.2-3.56-2.2-11V683.1c.33-.6.66-1,1.21-1,1.37,0,3.4,3.4,5.81,3.4,2.91,0,4.33-2.85,4.33-5.54S1011.36,674.28,1008,674.28Z"/><path class="cls-8" d="M1027.75,683.32l-1-.16c-4.28-.71-6.53-2.41-6.53-4.94,0-2.19,2-3.61,4.94-3.61,4.11,0,6.25,3.5,11.07,11.45h.28l-2.36-13.26H1034c-.22,2.13-.77,2.79-2,2.79-1.81,0-3.9-1.31-6.8-1.31-5.48,0-12.39,3.4-12.39,9.76,0,4.82,3.73,9.81,10.69,11l1,.17c3.56.6,6.52,1.64,6.52,4.55,0,2.57-2.91,3.72-5.15,3.72-5.43,0-7.95-4.6-12.23-12.55h-.22l2.36,14.36h.16c.22-2.14.77-2.79,1.87-2.79,2.3,0,3.18,1.31,8,1.31,6.36,0,13-3.84,13-10.69C1038.78,688.53,1035.38,684.58,1027.75,683.32Z"/><path class="cls-8" d="M1052.48,690.4a6.69,6.69,0,0,0,0,13.37,6.69,6.69,0,1,0,0-13.37Zm20.23-20.56c0-6.75-7.62-10.7-19.19-10.7-10.69,0-15.78,4.39-15.78,8.78,0,3,2.19,5.1,5.7,5.1,5,0,6.41-3.46,6.85-6.91s-.71-6.64,2.85-6.64c3.4,0,6.53,3.35,6.53,8.5,0,10.64-13.77,11.46-8.78,20l.55.93h.44l-.6-1.1C1047.6,681.13,1072.71,683.76,1072.71,669.84Z"/><path class="cls-8" d="M646.76,742.43c2-2,5.59-.6,7.73-2.74h-2.14c-3.18,0-6.14.77-7.56,3.62a3.82,3.82,0,1,1,0-7.57c1.42,2.85,4.38,3.62,7.56,3.62h2.3l0-.05c-2.25-2.25-5.81-.83-7.84-2.86a3.68,3.68,0,1,1,5.21-5.2c2,2,.6,5.59,2.79,7.78v-2.25c0-3.18-.76-6.08-3.56-7.56a4,4,0,0,1,3.73-4.28,4.11,4.11,0,0,1,3.78,4.28c-2.85,1.48-3.62,4.38-3.62,7.56v2.31c2.25-2.25.83-5.82,2.85-7.84a3.68,3.68,0,1,1,5.21,5.2c-2,2-5.59.61-7.84,2.86l0,.05h2.35c3.18,0,6.09-.77,7.57-3.62a4.13,4.13,0,0,1,4.28,3.78,4,4,0,0,1-4.28,3.73c-1.48-2.79-4.39-3.56-7.57-3.56h-2.19c2.25,2.08,5.76.77,7.73,2.74a3.68,3.68,0,1,1-5.21,5.21c-2-2-.6-5.59-2.85-7.84v2.25c0,3.18.77,6.14,3.62,7.56a3.81,3.81,0,1,1-7.56,0c2.85-1.42,3.61-4.38,3.61-7.56v-2.2c-2.19,2.25-.76,5.76-2.79,7.79a3.68,3.68,0,1,1-5.21-5.21Z"/><path class="cls-8" d="M679.11,742.43c2-2,5.59-.6,7.73-2.74H684.7c-3.18,0-6.14.77-7.57,3.62a3.82,3.82,0,1,1,0-7.57c1.43,2.85,4.39,3.62,7.57,3.62H687l0-.05c-2.25-2.25-5.81-.83-7.84-2.86a3.68,3.68,0,1,1,5.21-5.2c2,2,.6,5.59,2.79,7.78v-2.25c0-3.18-.76-6.08-3.56-7.56a4,4,0,0,1,3.73-4.28,4.12,4.12,0,0,1,3.78,4.28c-2.85,1.48-3.62,4.38-3.62,7.56v2.31c2.25-2.25.82-5.82,2.85-7.84a3.68,3.68,0,1,1,5.21,5.2c-2,2-5.59.61-7.84,2.86l0,.05H690c3.18,0,6.09-.77,7.57-3.62a4.13,4.13,0,0,1,4.28,3.78,4,4,0,0,1-4.28,3.73c-1.48-2.79-4.39-3.56-7.57-3.56h-2.19c2.25,2.08,5.76.77,7.73,2.74a3.68,3.68,0,1,1-5.21,5.21c-2-2-.6-5.59-2.85-7.84v2.25c0,3.18.77,6.14,3.62,7.56a3.82,3.82,0,1,1-7.57,0c2.86-1.42,3.62-4.38,3.62-7.56v-2.2c-2.19,2.25-.76,5.76-2.79,7.79a3.68,3.68,0,1,1-5.21-5.21Z"/><path class="cls-8" d="M711.46,742.43c2-2,5.59-.6,7.73-2.74h-2.14c-3.18,0-6.14.77-7.57,3.62a3.82,3.82,0,1,1,0-7.57c1.43,2.85,4.39,3.62,7.57,3.62h2.3l-.05-.05c-2.25-2.25-5.81-.83-7.84-2.86a3.68,3.68,0,1,1,5.21-5.2c2,2,.6,5.59,2.79,7.78v-2.25c0-3.18-.77-6.08-3.56-7.56a4,4,0,0,1,3.73-4.28,4.13,4.13,0,0,1,3.78,4.28c-2.85,1.48-3.62,4.38-3.62,7.56v2.31c2.25-2.25.82-5.82,2.85-7.84a3.68,3.68,0,1,1,5.21,5.2c-2,2-5.59.61-7.84,2.86l-.06.05h2.36c3.18,0,6.09-.77,7.57-3.62a4.12,4.12,0,0,1,4.27,3.78,4,4,0,0,1-4.27,3.73c-1.48-2.79-4.39-3.56-7.57-3.56h-2.19c2.25,2.08,5.76.77,7.73,2.74a3.68,3.68,0,1,1-5.21,5.21c-2-2-.6-5.59-2.85-7.84v2.25c0,3.18.77,6.14,3.62,7.56a3.82,3.82,0,1,1-7.57,0c2.85-1.42,3.62-4.38,3.62-7.56v-2.2c-2.19,2.25-.77,5.76-2.79,7.79a3.68,3.68,0,1,1-5.21-5.21Z"/></g></g></svg>