<svg xmlns="http://www.w3.org/2000/svg" viewBox="0 0 1110.41 710.24"><defs><style>.cls-1,.cls-10{fill:#edb34f;}.cls-1,.cls-12{stroke:#fff;}.cls-1{stroke-width:16px;}.cls-2{fill:#0f0f0f;}.cls-3{fill:#ff6477;}.cls-16,.cls-4{fill:#4c96d9;}.cls-12,.cls-14,.cls-5{fill:#fff;}.cls-15,.cls-6{fill:#c5403a;}.cls-7,.cls-8,.cls-9{fill:none;stroke-linecap:round;}.cls-7{stroke:#ff4050;}.cls-7,.cls-9{stroke-linejoin:round;stroke-width:6.98px;}.cls-8{stroke:#144970;stroke-miterlimit:10;stroke-width:4.59px;}.cls-9{stroke:#ff6477;}.cls-11{fill:#c84784;stroke-width:8px;}.cls-11,.cls-14,.cls-15,.cls-16,.cls-17{stroke:#000;}.cls-12{stroke-width:2px;}.cls-13{fill:#ad66b4;}.cls-14{stroke-width:5px;}.cls-15,.cls-16{stroke-width:3px;}.cls-17{stroke-width:1.36px;}</style></defs><g id="Calque_2" data-name="Calque 2"><g id="Calque_11" data-name="Calque 11"><path class="cls-1" d="M87.45,534.51c55.06-21.25,113.15-4.06,129.51,38.32S201.82,667,146.77,688.22s-113.16,4-129.52-38.34,15.14-94.14,70.19-115.39Zm-1.78-4.61C28,552.17-4.71,606.67,12.66,651.66s78.2,63.39,135.88,41.13S238.92,616,221.55,571,143.36,507.64,85.67,529.9Z"/><path class="cls-2" d="M143.52,682.34c49.93-19.27,78.77-65.06,64.41-102.28s-66.49-51.75-116.42-32.48S12.74,612.64,27.1,649.85,93.59,701.61,143.52,682.34Z"/><path class="cls-3" d="M199.24,650a65.4,65.4,0,0,1,2.17,6.7,125.45,125.45,0,0,1-15.7,14.87A143.28,143.28,0,0,1,106.85,702a124.29,124.29,0,0,1-21.91-.5q-1-.1-2-.24-1.32-2.64-2.4-5.46a63.24,63.24,0,0,1-4.27-21.92c0-1.53,0-3,.1-4.58a63.66,63.66,0,0,1,108.93-40.92c.8.81,1.59,1.65,2.35,2.52A63.39,63.39,0,0,1,199.24,650Z"/><path class="cls-4" d="M92.58,547.16h0a11.23,11.23,0,0,0-6.44,14.51l13.38,34.68A11.23,11.23,0,0,0,114,602.77h0a11.23,11.23,0,0,0,6.45-14.51L107.1,553.58A11.23,11.23,0,0,0,92.58,547.16Z"/><path class="cls-5" d="M138.85,642.24l-17,6.58a6.83,6.83,0,0,0-3.92,8.84l9.84,25.51a6.85,6.85,0,0,0,8.85,3.92l17-6.58a6.84,6.84,0,0,0,3.93-8.84l-9.85-25.51A6.84,6.84,0,0,0,138.85,642.24Z"/><path class="cls-5" d="M173.69,628.8l-17,6.58a6.84,6.84,0,0,0-3.92,8.84l9.84,25.51a6.85,6.85,0,0,0,8.85,3.91l17-6.57a6.85,6.85,0,0,0,3.92-8.85l-9.84-25.51A6.84,6.84,0,0,0,173.69,628.8Z"/><path class="cls-5" d="M104,655.69l-17,6.57a6.85,6.85,0,0,0-3.93,8.85l9.85,25.51a6.84,6.84,0,0,0,8.85,3.91l17-6.57a6.85,6.85,0,0,0,3.93-8.85l-9.85-25.51A6.84,6.84,0,0,0,104,655.69Z"/><path class="cls-5" d="M85.32,555.38l-17,6.57a6.85,6.85,0,0,0-3.92,8.85l9.85,25.51a6.83,6.83,0,0,0,8.84,3.91l17-6.57A6.84,6.84,0,0,0,104,584.8l-9.84-25.51A6.84,6.84,0,0,0,85.32,555.38Z"/><path class="cls-5" d="M120.15,541.93l-17,6.58a6.84,6.84,0,0,0-3.93,8.84L109,582.86a6.84,6.84,0,0,0,8.85,3.92l17-6.58a6.84,6.84,0,0,0,3.93-8.84L129,545.85A6.85,6.85,0,0,0,120.15,541.93Z"/><path class="cls-5" d="M155,528.49l-17,6.58a6.85,6.85,0,0,0-3.93,8.84l9.85,25.51a6.84,6.84,0,0,0,8.85,3.91l17-6.57a6.84,6.84,0,0,0,3.93-8.84l-9.85-25.52A6.84,6.84,0,0,0,155,528.49Z"/><path class="cls-5" d="M50.49,568.82l-17,6.58a6.84,6.84,0,0,0-3.92,8.84l9.84,25.51a6.84,6.84,0,0,0,8.85,3.91l17-6.57a6.84,6.84,0,0,0,3.92-8.84l-9.84-25.52A6.85,6.85,0,0,0,50.49,568.82Z"/><path class="cls-6" d="M212.8,554.55a73.9,73.9,0,0,0-12.72-13.31,89.88,89.88,0,0,0-33.14-16.8,118.25,118.25,0,0,0-39.33-3.87A143.3,143.3,0,0,0,48.75,551,118.88,118.88,0,0,0,22.21,580.3,90.12,90.12,0,0,0,9,615a74.65,74.65,0,0,0-.48,18.41A69.77,69.77,0,0,0,21.83,668a74.59,74.59,0,0,0,12.71,13.32,90,90,0,0,0,33.14,16.79,111.31,111.31,0,0,0,15.43,3.13l2,.24A124.32,124.32,0,0,0,107,702a143.18,143.18,0,0,0,78.86-30.43,124.76,124.76,0,0,0,15.7-14.87l.2-.22a112.25,112.25,0,0,0,10.62-14.21,89.92,89.92,0,0,0,13.27-34.7,74.15,74.15,0,0,0,.47-18.41,69.89,69.89,0,0,0-13.35-34.59ZM187,626l-.12.21c-.45.71-.91,1.42-1.39,2.11-10.56,15.63-27.36,28.44-47.6,36.26-20.87,8-42.62,9.71-61.34,4.68l-.71-.2-.23-.07C58.44,664.16,46.14,654.12,41,640.73s-2.79-29.24,6.78-44.42c10.45-16.59,27.84-30.21,49-38.38s43.17-9.74,62.07-4.48c17.29,4.82,29.68,14.9,34.86,28.34S196.46,610.9,187,626Z"/><path class="cls-6" d="M101.86,630.74s-7,5.63-13.3,17.7Z"/><path class="cls-7" d="M101.86,630.74s-7,5.63-13.3,17.7"/><path class="cls-6" d="M164,621.57s-7.62-4.7-21.12-6.66Z"/><path class="cls-7" d="M164,621.57s-7.62-4.7-21.12-6.66"/><path class="cls-8" d="M103.7,597a7.12,7.12,0,0,0,9.14,2.39,7.23,7.23,0,0,0,2.58-2.24"/><path class="cls-9" d="M24.78,620.58S14.91,647.67,39.27,665"/><path class="cls-9" d="M208.07,598.65s8.12-27.68-17.3-43.38"/><path class="cls-10" d="M87.45,534.51c55.06-21.25,113.15-4.06,129.51,38.32S201.82,667,146.77,688.22s-113.16,4-129.52-38.34,15.14-94.14,70.19-115.39Zm-1.78-4.61C28,552.17-4.71,606.67,12.66,651.66s78.2,63.39,135.88,41.13S238.92,616,221.55,571,143.36,507.64,85.67,529.9Z"/><polygon class="cls-11" points="1063.64 353.14 1084.99 382.99 1049.24 374.72 1046.41 411.3 1024.34 381.99 998.66 408.2 1000.6 371.55 964.08 375.13 989.11 348.3 958.85 327.56 995.27 323.1 985.41 287.76 1016.17 307.76 1031.34 274.35 1042.05 309.44 1075.15 293.6 1060.8 327.37 1096.34 336.5 1063.64 353.14"/><path class="cls-12" d="M1107.59,335.26l-41.29-10.61L1083,285.42l-38.45,18.4-12.45-40.77-17.62,38.82-35.74-23.23,11.45,41.06-42.31,5.18L983,349l-29.09,31.17L996.36,376l-2.25,42.57L1024,388.11l25.63,34.06,3.29-42.51,41.53,9.61-24.81-34.67ZM964.08,375.13l25-26.83-30.26-20.74,36.42-4.46-9.86-35.34,30.76,20,15.17-33.41,10.71,35.09,33.1-15.84-14.35,33.77,35.54,9.13-32.7,16.64L1085,383l-35.75-8.27-2.83,36.58L1024.34,382,998.66,408.2l1.94-36.65Z"/><path class="cls-13" d="M1037,324.67l15.52-7.43-6.73,15.84-.91,2.14,2.26.58,16.66,4.28-15.33,7.81-2.08,1.05,1.36,1.89,10,14L1041,361l-2.26-.53-.18,2.32-1.32,17.16-10.36-13.75-1.39-1.85-1.63,1.66-12,12.29.91-17.19.13-2.32-2.32.23-17.13,1.67,11.75-12.58,1.58-1.7-1.92-1.31-14.19-9.73,17.08-2.09L1010,333l-.63-2.24-4.62-16.58,14.43,9.38,1.95,1.27,1-2.12,7.11-15.67,5,16.46.67,2.22Z"/><path d="M1038.83,385.33l-13.53-18-15.75,16.07,1.19-22.47h0l-22.39,2.19,15.35-16.45L985.13,334l22.34-2.73-6.05-21.68,18.87,12.26,9.3-20.49,6.57,21.53,20.29-9.72-8.8,20.71,21.8,5.6-20.06,10.21,13.1,18.3-21.93-5.07Zm-13.14-24.09,10,13.23,1.27-16.52,16.14,3.73-9.64-13.47,14.77-7.51-16-4.13,6.48-15.24-10.74,5.14-.87-1.8.87,1.8-4.2,2-4.84-15.84L1022,327.72l-13.89-9,4.45,16-16.45,2,13.67,9.37-11.3,12.11,16.49-1.62-.88,16.55Z"/><circle class="cls-14" cx="582.72" cy="45.02" r="42.52"/><path class="cls-15" d="M605.91,44.84a23.2,23.2,0,1,1-23.19-23A23.1,23.1,0,0,1,605.91,44.84Z"/><circle class="cls-16" cx="582.35" cy="44.65" r="16.63"/><circle class="cls-17" cx="582.72" cy="45.02" r="11.17"/><ellipse class="cls-5" cx="590.01" cy="35.36" rx="7.84" ry="8.02"/></g></g></svg>