<svg xmlns="http://www.w3.org/2000/svg" xmlns:xlink="http://www.w3.org/1999/xlink" viewBox="0 0 1099.59 700.49"><defs><style>.cls-1,.cls-10,.cls-8,.cls-9{fill:none;}.cls-2{clip-path:url(#clip-path);}.cls-3{fill:#0f0f0f;}.cls-4{fill:#ff6477;}.cls-16,.cls-5{fill:#4c96d9;}.cls-14,.cls-6{fill:#fff;}.cls-15,.cls-7{fill:#c5403a;}.cls-8{stroke:#ff4050;}.cls-10,.cls-8,.cls-9{stroke-linecap:round;}.cls-10,.cls-8{stroke-linejoin:round;stroke-width:6.98px;}.cls-9{stroke:#144970;stroke-miterlimit:10;stroke-width:4.59px;}.cls-10{stroke:#ff6477;}.cls-11{fill:#edb34f;}.cls-12{fill:#c84784;}.cls-12,.cls-13,.cls-14,.cls-15,.cls-16,.cls-17{stroke:#000;}.cls-12,.cls-13{stroke-width:4px;}.cls-13{fill:#ad66b4;}.cls-14,.cls-15,.cls-16,.cls-17{stroke-width:1.36px;}</style><clipPath id="clip-path" transform="translate(-26.77)"><rect class="cls-1" x="23.91" y="522.2" width="224.19" height="174.58" transform="translate(-210.33 89.85) rotate(-21.1)"/></clipPath></defs><g id="Calque_2" data-name="Calque 2"><g id="Calque_11" data-name="Calque 11"><g class="cls-2"><path class="cls-3" d="M162.29,680.52c49.94-19.27,78.77-65.06,64.41-102.27s-66.48-51.76-116.42-32.49S31.51,610.82,45.87,648,112.36,699.79,162.29,680.52Z" transform="translate(-26.77)"/><path class="cls-4" d="M218,648.22a63,63,0,0,1,2.17,6.7,124,124,0,0,1-15.7,14.87,143.19,143.19,0,0,1-78.86,30.44,125.29,125.29,0,0,1-21.91-.51l-2-.24q-1.32-2.64-2.4-5.45a63.29,63.29,0,0,1-4.27-21.93c0-1.53,0-3.05.11-4.58A63.65,63.65,0,0,1,204.09,626.6c.8.81,1.59,1.65,2.35,2.52A63.19,63.19,0,0,1,218,648.22Z" transform="translate(-26.77)"/><path class="cls-5" d="M111.36,545.34h0a11.22,11.22,0,0,0-6.44,14.51l13.38,34.67A11.23,11.23,0,0,0,132.81,601h0a11.23,11.23,0,0,0,6.44-14.51l-13.38-34.68A11.23,11.23,0,0,0,111.36,545.34Z" transform="translate(-26.77)"/><path class="cls-6" d="M157.63,640.43l-17,6.57a6.84,6.84,0,0,0-3.92,8.84l9.84,25.51a6.84,6.84,0,0,0,8.85,3.92l17-6.58a6.84,6.84,0,0,0,3.92-8.84l-9.84-25.51A6.84,6.84,0,0,0,157.63,640.43Z" transform="translate(-26.77)"/><path class="cls-6" d="M192.46,627l-17,6.58a6.84,6.84,0,0,0-3.93,8.84l9.85,25.51a6.84,6.84,0,0,0,8.85,3.91l17-6.57a6.85,6.85,0,0,0,3.93-8.84l-9.85-25.51A6.84,6.84,0,0,0,192.46,627Z" transform="translate(-26.77)"/><path class="cls-6" d="M122.79,653.87l-17,6.57a6.84,6.84,0,0,0-3.92,8.85l9.84,25.51a6.84,6.84,0,0,0,8.85,3.91l17-6.57a6.85,6.85,0,0,0,3.93-8.85l-9.85-25.51A6.84,6.84,0,0,0,122.79,653.87Z" transform="translate(-26.77)"/><path class="cls-6" d="M104.09,553.56l-17,6.57A6.85,6.85,0,0,0,83.13,569L93,594.49a6.84,6.84,0,0,0,8.85,3.91l17-6.57a6.85,6.85,0,0,0,3.93-8.85l-9.85-25.51A6.84,6.84,0,0,0,104.09,553.56Z" transform="translate(-26.77)"/><path class="cls-6" d="M138.92,540.12l-17,6.57a6.84,6.84,0,0,0-3.93,8.84l9.85,25.52a6.84,6.84,0,0,0,8.85,3.91l17-6.58a6.84,6.84,0,0,0,3.93-8.84L147.77,544A6.84,6.84,0,0,0,138.92,540.12Z" transform="translate(-26.77)"/><path class="cls-6" d="M173.76,526.67l-17,6.58a6.84,6.84,0,0,0-3.92,8.84l9.84,25.51a6.84,6.84,0,0,0,8.85,3.91l17-6.57a6.84,6.84,0,0,0,3.92-8.84l-9.84-25.51A6.84,6.84,0,0,0,173.76,526.67Z" transform="translate(-26.77)"/><path class="cls-6" d="M69.26,567l-17,6.58a6.84,6.84,0,0,0-3.93,8.84l9.85,25.51A6.84,6.84,0,0,0,67,611.85l17-6.58A6.83,6.83,0,0,0,88,596.43l-9.84-25.51A6.84,6.84,0,0,0,69.26,567Z" transform="translate(-26.77)"/><path class="cls-7" d="M231.57,552.73a74.19,74.19,0,0,0-12.71-13.31,90,90,0,0,0-33.15-16.8,118.25,118.25,0,0,0-39.33-3.87,143.37,143.37,0,0,0-78.86,30.44A118.64,118.64,0,0,0,41,578.48a90,90,0,0,0-13.27,34.7,74.16,74.16,0,0,0-.47,18.41A69.72,69.72,0,0,0,40.6,666.18,74.29,74.29,0,0,0,53.32,679.5a89.71,89.71,0,0,0,33.14,16.79,109.44,109.44,0,0,0,15.42,3.13q1,.14,2,.24a125.31,125.31,0,0,0,21.91.51,143.19,143.19,0,0,0,78.86-30.44,124,124,0,0,0,15.7-14.87l.2-.22a111.3,111.3,0,0,0,10.62-14.21,89.86,89.86,0,0,0,13.27-34.7,74.64,74.64,0,0,0,.48-18.41,69.9,69.9,0,0,0-13.36-34.59Zm-25.8,71.47-.12.2c-.45.71-.91,1.42-1.38,2.12-10.57,15.62-27.36,28.44-47.61,36.25-20.87,8.05-42.62,9.71-61.34,4.68l-.71-.2-.23-.06c-17.17-4.85-29.47-14.89-34.64-28.28S57,609.67,66.53,594.49c10.44-16.58,27.83-30.21,49-38.37s43.18-9.75,62.07-4.49c17.29,4.82,29.68,14.9,34.87,28.34s2.79,29.11-6.67,44.24Z" transform="translate(-26.77)"/><path class="cls-7" d="M120.64,628.92s-7,5.63-13.31,17.7Z" transform="translate(-26.77)"/><path class="cls-8" d="M120.64,628.92s-7,5.63-13.31,17.7" transform="translate(-26.77)"/><path class="cls-7" d="M182.77,619.75s-7.62-4.7-21.11-6.66Z" transform="translate(-26.77)"/><path class="cls-8" d="M182.77,619.75s-7.62-4.7-21.11-6.66" transform="translate(-26.77)"/><path class="cls-9" d="M122.47,595.14a7.11,7.11,0,0,0,2.52,2.29,7,7,0,0,0,3.3.86,7.08,7.08,0,0,0,5.9-3" transform="translate(-26.77)"/><path class="cls-10" d="M43.55,618.76S33.68,645.85,58,663.15" transform="translate(-26.77)"/><path class="cls-10" d="M226.84,596.83s8.12-27.68-17.29-43.38" transform="translate(-26.77)"/><path class="cls-11" d="M106.22,532.69c55.06-21.25,113.16-4.06,129.51,38.32s-15.14,94.15-70.19,115.39S52.38,690.45,36,648.07s15.15-94.15,70.2-115.4Zm-1.77-4.61c-57.69,22.27-90.38,76.77-73,121.76s78.2,63.39,135.88,41.13,90.38-76.77,73-121.75S162.13,505.82,104.45,528.08Z" transform="translate(-26.77)"/></g><path class="cls-12" d="M1064.16,303.81l33.68-16.12-14.61,34.36-.91,2.14,2.26.58,36.16,9.29L1087.46,351l-2.07,1.06,1.35,1.89,21.73,30.36-36.38-8.41-2.26-.53-.18,2.32-2.88,37.23-22.45-29.83-1.4-1.86-1.63,1.66-26.13,26.67,2-37.28.12-2.33-2.31.23-37.16,3.63,25.48-27.29,1.58-1.7-1.92-1.32-30.8-21.1,37.06-4.53,2.31-.28-.62-2.24-10-36,31.3,20.35,1.95,1.27,1-2.12,15.43-34,10.9,35.71.68,2.23Z" transform="translate(-26.77)"/><path class="cls-13" d="M1055.79,322.85l15.53-7.43-6.73,15.84-.91,2.14,2.25.58,16.66,4.28-15.33,7.81-2.07,1.05,1.35,1.89,10,14-16.76-3.88-2.27-.52-.18,2.32L1056,378.08l-10.35-13.75-1.4-1.85-1.63,1.66-12,12.29.9-17.18.13-2.33-2.32.23-17.12,1.67,11.74-12.58,1.58-1.7-1.91-1.31-14.2-9.73,17.08-2.09,2.31-.28-.63-2.24-4.62-16.58,14.43,9.38,2,1.27,1-2.12,7.11-15.67,5,16.46.68,2.23Z" transform="translate(-26.77)"/><circle class="cls-14" cx="574.72" cy="43.2" r="42.52"/><path class="cls-15" d="M624.69,43a23.2,23.2,0,1,1-23.2-23A23.11,23.11,0,0,1,624.69,43Z" transform="translate(-26.77)"/><circle class="cls-16" cx="574.35" cy="42.84" r="16.63"/><circle class="cls-17" cx="574.72" cy="43.2" r="11.17"/><ellipse class="cls-6" cx="582.01" cy="33.54" rx="7.84" ry="8.02"/></g></g></svg>