<svg xmlns="http://www.w3.org/2000/svg" xmlns:xlink="http://www.w3.org/1999/xlink" viewBox="0 0 1110.41 710.24"><defs><style>.cls-1,.cls-10,.cls-11,.cls-9{fill:none;}.cls-2{clip-path:url(#clip-path);}.cls-12,.cls-3{fill:#edb34f;}.cls-14,.cls-3{stroke:#fff;}.cls-3{stroke-width:16px;}.cls-4{fill:#0f0f0f;}.cls-5{fill:#ff6477;}.cls-18,.cls-6{fill:#4c96d9;}.cls-14,.cls-16,.cls-7{fill:#fff;}.cls-17,.cls-8{fill:#c5403a;}.cls-9{stroke:#ff4050;}.cls-10,.cls-11,.cls-9{stroke-linecap:round;}.cls-11,.cls-9{stroke-linejoin:round;stroke-width:6.98px;}.cls-10{stroke:#144970;stroke-miterlimit:10;stroke-width:4.59px;}.cls-11{stroke:#ff6477;}.cls-13{fill:#c84784;stroke-width:8px;}.cls-13,.cls-16,.cls-17,.cls-18,.cls-19{stroke:#000;}.cls-14{stroke-width:2px;}.cls-15{fill:#ad66b4;}.cls-16{stroke-width:5px;}.cls-17,.cls-18{stroke-width:3px;}.cls-19{stroke-width:1.36px;}</style><clipPath id="clip-path" transform="translate(-18.77)"><rect class="cls-1" x="23.91" y="524.02" width="224.19" height="174.58" transform="translate(-210.99 89.97) rotate(-21.1)"/></clipPath></defs><g id="Calque_2" data-name="Calque 2"><g id="Calque_11" data-name="Calque 11"><g class="cls-2"><path class="cls-3" d="M106.22,534.51c55.06-21.25,113.16-4.06,129.51,38.32S220.59,667,165.54,688.22,52.38,692.27,36,649.88s15.15-94.14,70.2-115.39Zm-1.77-4.61c-57.69,22.27-90.38,76.77-73,121.76s78.2,63.39,135.88,41.13S257.69,616,240.33,571,162.13,507.64,104.45,529.9Z" transform="translate(-18.77)"/><path class="cls-4" d="M162.29,682.34c49.94-19.27,78.77-65.06,64.41-102.28s-66.48-51.75-116.42-32.48S31.51,612.64,45.87,649.85,112.36,701.61,162.29,682.34Z" transform="translate(-18.77)"/><path class="cls-5" d="M218,650a63,63,0,0,1,2.17,6.7,124.76,124.76,0,0,1-15.7,14.87A143.26,143.26,0,0,1,125.62,702a124.32,124.32,0,0,1-21.91-.5q-1-.1-2-.24-1.32-2.64-2.4-5.46a63.24,63.24,0,0,1-4.27-21.92c0-1.53,0-3,.11-4.58a63.65,63.65,0,0,1,108.92-40.92c.8.81,1.59,1.65,2.35,2.52A63.19,63.19,0,0,1,218,650Z" transform="translate(-18.77)"/><path class="cls-6" d="M111.36,547.16h0a11.23,11.23,0,0,0-6.44,14.51l13.38,34.68a11.23,11.23,0,0,0,14.52,6.42h0a11.23,11.23,0,0,0,6.44-14.51l-13.38-34.68A11.23,11.23,0,0,0,111.36,547.16Z" transform="translate(-18.77)"/><path class="cls-7" d="M157.63,642.24l-17,6.58a6.84,6.84,0,0,0-3.92,8.84l9.84,25.51a6.85,6.85,0,0,0,8.85,3.92l17-6.58a6.84,6.84,0,0,0,3.92-8.84l-9.84-25.51A6.84,6.84,0,0,0,157.63,642.24Z" transform="translate(-18.77)"/><path class="cls-7" d="M192.46,628.8l-17,6.58a6.84,6.84,0,0,0-3.93,8.84l9.85,25.51a6.84,6.84,0,0,0,8.85,3.91l17-6.57a6.85,6.85,0,0,0,3.93-8.85l-9.85-25.51A6.84,6.84,0,0,0,192.46,628.8Z" transform="translate(-18.77)"/><path class="cls-7" d="M122.79,655.69l-17,6.57a6.84,6.84,0,0,0-3.92,8.85l9.84,25.51a6.84,6.84,0,0,0,8.85,3.91l17-6.57a6.85,6.85,0,0,0,3.93-8.85l-9.85-25.51A6.84,6.84,0,0,0,122.79,655.69Z" transform="translate(-18.77)"/><path class="cls-7" d="M104.09,555.38l-17,6.57a6.85,6.85,0,0,0-3.93,8.85L93,596.31a6.84,6.84,0,0,0,8.85,3.91l17-6.57a6.85,6.85,0,0,0,3.93-8.85l-9.85-25.51A6.84,6.84,0,0,0,104.09,555.38Z" transform="translate(-18.77)"/><path class="cls-7" d="M138.92,541.93l-17,6.58a6.84,6.84,0,0,0-3.93,8.84l9.85,25.51a6.84,6.84,0,0,0,8.85,3.92l17-6.58a6.84,6.84,0,0,0,3.93-8.84l-9.85-25.51A6.85,6.85,0,0,0,138.92,541.93Z" transform="translate(-18.77)"/><path class="cls-7" d="M173.76,528.49l-17,6.58a6.84,6.84,0,0,0-3.92,8.84l9.84,25.51a6.84,6.84,0,0,0,8.85,3.91l17-6.57a6.84,6.84,0,0,0,3.92-8.84l-9.84-25.52A6.84,6.84,0,0,0,173.76,528.49Z" transform="translate(-18.77)"/><path class="cls-7" d="M69.26,568.82l-17,6.58a6.84,6.84,0,0,0-3.93,8.84l9.85,25.51A6.83,6.83,0,0,0,67,613.66l17-6.57A6.83,6.83,0,0,0,88,598.25l-9.84-25.52A6.84,6.84,0,0,0,69.26,568.82Z" transform="translate(-18.77)"/><path class="cls-8" d="M231.57,554.55a74.19,74.19,0,0,0-12.71-13.31,90,90,0,0,0-33.15-16.8,118.25,118.25,0,0,0-39.33-3.87A143.3,143.3,0,0,0,67.52,551,118.64,118.64,0,0,0,41,580.3,90,90,0,0,0,27.72,615a74.16,74.16,0,0,0-.47,18.41A69.76,69.76,0,0,0,40.6,668a74.29,74.29,0,0,0,12.72,13.32,89.87,89.87,0,0,0,33.14,16.79,110.87,110.87,0,0,0,15.42,3.13l2,.24a124.34,124.34,0,0,0,21.91.5,143.18,143.18,0,0,0,78.86-30.43,124.76,124.76,0,0,0,15.7-14.87l.2-.22a111.3,111.3,0,0,0,10.62-14.21,89.92,89.92,0,0,0,13.27-34.7,74.64,74.64,0,0,0,.48-18.41,69.9,69.9,0,0,0-13.36-34.59ZM205.77,626l-.12.21c-.45.71-.91,1.42-1.38,2.11-10.57,15.63-27.36,28.44-47.61,36.26-20.87,8-42.62,9.71-61.34,4.68l-.71-.2-.23-.07c-17.17-4.84-29.47-14.88-34.64-28.27S57,611.49,66.53,596.31c10.44-16.59,27.83-30.21,49-38.38s43.18-9.74,62.07-4.48c17.29,4.82,29.68,14.9,34.87,28.34s2.79,29.11-6.67,44.23Z" transform="translate(-18.77)"/><path class="cls-8" d="M120.64,630.74s-7,5.63-13.31,17.7Z" transform="translate(-18.77)"/><path class="cls-9" d="M120.64,630.74s-7,5.63-13.31,17.7" transform="translate(-18.77)"/><path class="cls-8" d="M182.77,621.57s-7.62-4.7-21.11-6.66Z" transform="translate(-18.77)"/><path class="cls-9" d="M182.77,621.57s-7.62-4.7-21.11-6.66" transform="translate(-18.77)"/><path class="cls-10" d="M122.47,597a7.12,7.12,0,0,0,9.14,2.39,7.15,7.15,0,0,0,2.58-2.24" transform="translate(-18.77)"/><path class="cls-11" d="M43.55,620.58S33.68,647.67,58,665" transform="translate(-18.77)"/><path class="cls-11" d="M226.84,598.65S235,571,209.55,555.27" transform="translate(-18.77)"/><path class="cls-12" d="M106.22,534.51c55.06-21.25,113.16-4.06,129.51,38.32S220.59,667,165.54,688.22,52.38,692.27,36,649.88s15.15-94.14,70.2-115.39Zm-1.77-4.61c-57.69,22.27-90.38,76.77-73,121.76s78.2,63.39,135.88,41.13S257.69,616,240.33,571,162.13,507.64,104.45,529.9Z" transform="translate(-18.77)"/></g><polygon class="cls-13" points="1063.64 353.14 1084.99 382.99 1049.24 374.72 1046.41 411.3 1024.34 381.99 998.66 408.2 1000.6 371.55 964.08 375.13 989.11 348.3 958.85 327.56 995.27 323.1 985.41 287.76 1016.17 307.76 1031.34 274.35 1042.05 309.44 1075.15 293.6 1060.8 327.37 1096.34 336.5 1063.64 353.14"/><path class="cls-14" d="M1126.37,335.26l-41.29-10.61,16.67-39.23-38.45,18.4-12.45-40.77-17.62,38.82-35.74-23.23,11.45,41.06-42.31,5.18L1001.8,349l-29.09,31.17,42.43-4.15-2.25,42.57,29.84-30.45,25.63,34.06,3.29-42.51,41.53,9.61-24.81-34.67ZM982.86,375.13l25-26.83-30.26-20.74,36.42-4.46-9.86-35.34,30.76,20,15.17-33.41,10.71,35.09,33.1-15.84-14.35,33.77,35.54,9.13-32.7,16.64L1103.77,383,1068,374.72l-2.83,36.58L1043.12,382l-25.68,26.21,1.94-36.65Z" transform="translate(-18.77)"/><path class="cls-15" d="M1055.79,324.67l15.53-7.43-6.73,15.84-.91,2.14,2.25.58,16.66,4.28-15.33,7.81-2.07,1.05,1.35,1.89,10,14L1059.79,361l-2.27-.53-.18,2.32L1056,379.9l-10.35-13.75-1.4-1.85-1.63,1.66-12,12.29.9-17.19.13-2.32-2.32.23-17.12,1.67,11.74-12.58,1.58-1.7-1.91-1.31-14.2-9.73,17.08-2.09,2.31-.28-.63-2.24-4.62-16.58,14.43,9.38,2,1.27,1-2.12L1048,307l5,16.46.68,2.22Z" transform="translate(-18.77)"/><path d="M1057.6,385.33l-13.53-18-15.75,16.07,1.19-22.47h0l-22.4,2.19,15.36-16.45L1003.9,334l22.34-2.73-6-21.68,18.87,12.26,9.3-20.49,6.57,21.53,20.3-9.72-8.8,20.71,21.79,5.6-20,10.21,13.09,18.3-21.92-5.07Zm-13.13-24.09,10,13.23,1.28-16.52,16.14,3.73-9.65-13.47L1077,340.7l-16-4.13,6.47-15.24-10.74,5.14-.86-1.8.86,1.8-4.2,2-4.83-15.84-6.85,15.08-13.89-9,4.45,16-16.44,2,13.66,9.37-11.3,12.11,16.49-1.62-.88,16.55Z" transform="translate(-18.77)"/><circle class="cls-16" cx="582.72" cy="45.02" r="42.52"/><path class="cls-17" d="M624.69,44.84a23.2,23.2,0,1,1-23.2-23A23.11,23.11,0,0,1,624.69,44.84Z" transform="translate(-18.77)"/><circle class="cls-18" cx="582.35" cy="44.65" r="16.63"/><circle class="cls-19" cx="582.72" cy="45.02" r="11.17"/><ellipse class="cls-7" cx="590.01" cy="35.36" rx="7.84" ry="8.02"/></g></g></svg>