<svg xmlns="http://www.w3.org/2000/svg" viewBox="0 0 885.88 629.62"><defs><style>.cls-1,.cls-20,.cls-22,.cls-3,.cls-5{fill:#fff;}.cls-11,.cls-14,.cls-2,.cls-21,.cls-25{fill:#c3413e;}.cls-11,.cls-18,.cls-19,.cls-20,.cls-21,.cls-28,.cls-29,.cls-3,.cls-32,.cls-4{stroke:#fff;}.cls-17,.cls-18,.cls-19,.cls-20,.cls-21,.cls-22,.cls-23,.cls-24,.cls-25,.cls-26,.cls-3,.cls-30,.cls-31,.cls-32,.cls-5,.cls-6{stroke-linecap:round;}.cls-19,.cls-20,.cls-21,.cls-22,.cls-23,.cls-24,.cls-25,.cls-26,.cls-3,.cls-30,.cls-32,.cls-5,.cls-6{stroke-linejoin:round;}.cls-3{stroke-width:7.97px;}.cls-11,.cls-12,.cls-13,.cls-14,.cls-15,.cls-16,.cls-17,.cls-18,.cls-28,.cls-29,.cls-31,.cls-4,.cls-8,.cls-9{stroke-miterlimit:10;}.cls-4{stroke-width:3.87px;}.cls-12,.cls-13,.cls-14,.cls-15,.cls-16,.cls-17,.cls-22,.cls-23,.cls-24,.cls-25,.cls-26,.cls-30,.cls-31,.cls-5,.cls-6,.cls-8,.cls-9{stroke:#000;}.cls-5,.cls-6{stroke-width:2.28px;}.cls-17,.cls-18,.cls-19,.cls-24,.cls-31,.cls-6{fill:none;}.cls-7,.cls-8,.cls-9{fill:#43a060;}.cls-8{stroke-width:3.38px;}.cls-9{stroke-width:4.23px;}.cls-10,.cls-12,.cls-13,.cls-26{fill:#e8ae4e;}.cls-11{stroke-width:10.1px;}.cls-12{stroke-width:3.14px;}.cls-13,.cls-14,.cls-17,.cls-18{stroke-width:3.37px;}.cls-15{stroke-width:1.12px;}.cls-16{stroke-width:2.25px;}.cls-19,.cls-20,.cls-21{stroke-width:8.59px;}.cls-22,.cls-23,.cls-24,.cls-25,.cls-26{stroke-width:3.21px;}.cls-23{fill:#f2f2f2;}.cls-27,.cls-28,.cls-30,.cls-32{fill:#5097d7;}.cls-28,.cls-29{stroke-width:5.91px;}.cls-30{stroke-width:2.53px;}.cls-31{stroke-width:0.14px;}.cls-32{stroke-width:4.22px;}</style></defs><g id="Calque_2" data-name="Calque 2"><g id="Calque_10" data-name="Calque 10"><path class="cls-1" d="M517.75,279q-4.59,17.82-23.73,25.37T451.69,306a79.78,79.78,0,0,1-11.46-3.89,75,75,0,0,1-10.79-5.62,38.58,38.58,0,0,0-11.15,3.67c-2.6,1.47-4.16,3.24-4.7,5.32a4.82,4.82,0,0,0,1,4.78c1.19,1.25,3.26,2.26,6.23,3a53.51,53.51,0,0,0,7.75,1.28q4.62.48,14.27.82l22.53,1q27.94,1.24,41,12.54t8.21,30q-5.73,22.28-32.48,31.67t-56.6,1.73q-24.06-6.18-36.67-14.88t-10.32-17.61q1.32-5.13,9.56-6.69a40.7,40.7,0,0,1,17.81.9q-12.9-5.22-18.76-14.32a24.32,24.32,0,0,1-3.05-20q2.74-10.69,14.61-17.14t29.39-7.18q-13-8.55-18.72-20.48a34.7,34.7,0,0,1-2.52-24.39q4.57-17.82,23.73-25.37t42.32-1.6a75.83,75.83,0,0,1,20.75,8.89A63.2,63.2,0,0,1,510,246.41q8.53-9.21,17.35-13.47t15.5-2.55q7.35,1.89,10.27,7.15t1,12.61a16.13,16.13,0,0,1-7.06,9.94,14.38,14.38,0,0,1-11.86,1.82,17.78,17.78,0,0,1-5.51-2.6,44.56,44.56,0,0,1-7.27-6.85q-4.48-4.71-6.49-5.71a4.23,4.23,0,0,0-3.9-.05l-1.12.66a37.52,37.52,0,0,1,7.27,15.17A35.56,35.56,0,0,1,517.75,279ZM408,354.87a13.75,13.75,0,0,0-4.84,3.62,13.47,13.47,0,0,0-2.69,5.37q-2.24,8.68,5.31,15.85t22.47,11q19.16,4.92,30.67,2.18t14.14-13q2.18-8.47-3-13.72t-16.39-6l-24.59-1.32a66.91,66.91,0,0,1-10.51-1.16A74.27,74.27,0,0,1,408,354.87ZM450.11,265q.31,20,2.88,29.95t7.91,11.29a6.81,6.81,0,0,0,6.84-1.68q2.83-2.71,4.44-9A73.9,73.9,0,0,0,474,282.77q.56-7.69.4-18.18-.33-20-2.88-29.95t-7.9-11.29a6.85,6.85,0,0,0-6.85,1.69q-2.83,2.72-4.43,9a73.94,73.94,0,0,0-1.87,12.82Q450,254.51,450.11,265Z"/><path class="cls-2" d="M506.35,328.94q-13-11.28-41-12.53l-22.53-1q-9.64-.35-14.27-.82a54.92,54.92,0,0,1-7.75-1.28c-3-.76-5-1.77-6.23-3a4.79,4.79,0,0,1-1-4.78q.79-3.12,4.69-5.32a38.58,38.58,0,0,1,11.15-3.67l0,0a8.31,8.31,0,0,1-.82-.59c-.29-.2-.35-.33-.62-.5q-17.52.74-29.38,7.18t-14.61,17.14a24.29,24.29,0,0,0,3.05,20q5.85,9.11,18.76,14.32a40.56,40.56,0,0,0-17.81-.9q-8.24,1.56-9.56,6.69-2.28,8.91,10.32,17.61t36.67,14.88q29.83,7.67,56.6-1.74T514.56,359Q519.36,340.24,506.35,328.94Zm-47.41,63.94q-11.51,2.75-30.66-2.18-14.92-3.82-22.47-11t-5.31-15.85a13.59,13.59,0,0,1,2.68-5.37,13.74,13.74,0,0,1,4.86-3.62,74,74,0,0,0,10.54,2.83,67.17,67.17,0,0,0,10.52,1.16l24.59,1.32q11.21.75,16.39,6t3,13.72Q470.45,390.14,458.94,392.88Z"/><path class="cls-3" d="M555.43,333.47a16.66,16.66,0,0,1,4.79,1.81,24.27,24.27,0,0,1,9.07,8.41,20.53,20.53,0,0,1,2.49,8.59,16.89,16.89,0,0,1-.65,7,10.08,10.08,0,0,1-4.24,5.49,13.31,13.31,0,0,1-4.23,1.43,34.91,34.91,0,0,1-13.32.12c4.45,4.57,9.12,9.6,10,15.91A20.64,20.64,0,0,1,555,398.14a23.81,23.81,0,0,1-17.21,8.91,22.19,22.19,0,0,1-17.43-6.73c.26,4.53-3.12,8.7-7.28,10.51s-9.26,1.62-13.84.7a10.35,10.35,0,0,0-3-.15c-.75.08-1.34.18-1.55,1a11.65,11.65,0,0,1-10.31,8.5c-1.55.09-3.17-.13-4.61.47-1.27.53-2.22,1.62-3.43,2.28a5.84,5.84,0,0,1-5.17.55,16.39,16.39,0,0,1-5.6-4.12,4.08,4.08,0,0,1-.76-3.68c.92-2.53,4.2-2.8,5.36-5a7.29,7.29,0,0,0,.6-2.06,19,19,0,0,1,21.37-14.88c-5-2.91-10.45-6.36-11.54-12a13.18,13.18,0,0,1,3.08-10.63,22.8,22.8,0,0,1,9.37-6.35c5.08-2,11-2.79,15.92-.38-4.09-4.75-4.78-12.8-1.06-17.84a21.11,21.11,0,0,1,7.19-5.78,19.37,19.37,0,0,1,9.8-1.94c4.2.08,7.12.24,10.48,1.71,7.59,3.3,13.22,10.27,21,13.07,2.35.85,5.57,1,6.75-1.22,1.63-3.05.69-6.32-1.16-9.24a13.62,13.62,0,0,0-8.4-5.65c-.91-.21-1.83-.35-2.76-.49l-3.71-.55a2.56,2.56,0,0,1-2.21-2.52,1.91,1.91,0,0,1,.36-1.12c.75-1,2.24-.74,3.5-.79A33,33,0,0,1,555.43,333.47Z"/><path class="cls-4" d="M470.51,421.09l-3.74,3.12c-.22.19-.42.33-.57.44a1.39,1.39,0,0,0-.63.71c-.41.9-.81,1.89-1.24,3a1.13,1.13,0,0,1-1.27.72l-.19-.05a1.14,1.14,0,0,1-.67-1.47c.32-.85.63-1.63.94-2.35l-2.05.23a1,1,0,0,1-.34,0,1.14,1.14,0,0,1,.09-2.25l3.73-.42a1.06,1.06,0,0,1,.31,0c.14-.1.28-.2.43-.33l3.74-3.12a1.14,1.14,0,1,1,1.46,1.75Z"/><path d="M470.51,421.09l-3.74,3.12c-.22.19-.42.33-.57.44a1.39,1.39,0,0,0-.63.71c-.41.9-.81,1.89-1.24,3a1.13,1.13,0,0,1-1.27.72l-.19-.05a1.14,1.14,0,0,1-.67-1.47c.32-.85.63-1.63.94-2.35l-2.05.23a1,1,0,0,1-.34,0,1.14,1.14,0,0,1,.09-2.25l3.73-.42a1.06,1.06,0,0,1,.31,0c.14-.1.28-.2.43-.33l3.74-3.12a1.14,1.14,0,1,1,1.46,1.75Z"/><path class="cls-5" d="M555.43,333.47a16.66,16.66,0,0,1,4.79,1.81,24.27,24.27,0,0,1,9.07,8.41,20.53,20.53,0,0,1,2.49,8.59,16.89,16.89,0,0,1-.65,7,10.08,10.08,0,0,1-4.24,5.49,13.31,13.31,0,0,1-4.23,1.43,34.91,34.91,0,0,1-13.32.12c4.45,4.57,9.12,9.6,10,15.91A20.64,20.64,0,0,1,555,398.14a23.81,23.81,0,0,1-17.21,8.91,22.19,22.19,0,0,1-17.43-6.73c.26,4.53-3.12,8.7-7.28,10.51s-9.26,1.62-13.84.7a10.35,10.35,0,0,0-3-.15c-.75.08-1.34.18-1.55,1a11.65,11.65,0,0,1-10.31,8.5c-1.55.09-3.17-.13-4.61.47-1.27.53-2.22,1.62-3.43,2.28a5.84,5.84,0,0,1-5.17.55,16.39,16.39,0,0,1-5.6-4.12,4.08,4.08,0,0,1-.76-3.68c.92-2.53,4.2-2.8,5.36-5a7.29,7.29,0,0,0,.6-2.06,19,19,0,0,1,21.37-14.88c-5-2.91-10.45-6.36-11.54-12a13.18,13.18,0,0,1,3.08-10.63,22.8,22.8,0,0,1,9.37-6.35c5.08-2,11-2.79,15.92-.38-4.09-4.75-4.78-12.8-1.06-17.84a21.11,21.11,0,0,1,7.19-5.78,19.37,19.37,0,0,1,9.8-1.94c4.2.08,7.12.24,10.48,1.71,7.59,3.3,13.22,10.27,21,13.07,2.35.85,5.57,1,6.75-1.22,1.63-3.05.69-6.32-1.16-9.24a13.62,13.62,0,0,0-8.4-5.65c-.91-.21-1.83-.35-2.76-.49l-3.71-.55a2.56,2.56,0,0,1-2.21-2.52,1.91,1.91,0,0,1,.36-1.12c.75-1,2.24-.74,3.5-.79A33,33,0,0,1,555.43,333.47Z"/><path class="cls-6" d="M549.24,366.25c-3.11-2.65-7-4.17-10.72-5.88s-7.47-3.77-9.82-7.12"/><path class="cls-6" d="M508.87,365c5.11,2.57,10.68,4.46,15,8.15,2.29,1.94,4.18,4.31,6.41,6.33s4.95,3.72,7.95,3.84"/><path class="cls-6" d="M520.35,400.85a16.24,16.24,0,0,0-5.08-13.44,63.12,63.12,0,0,0-6.62-4.68c-2.21-1.56-4.29-3.53-5.14-6.1"/><path class="cls-6" d="M490.85,394a8.68,8.68,0,0,0,2.81.85,16.13,16.13,0,0,0,4.42.54,5.63,5.63,0,0,0,4-1.78"/><ellipse class="cls-2" cx="483.61" cy="415.03" rx="3.44" ry="2.51" transform="translate(-153.16 440.68) rotate(-42.94)"/><circle cx="483.25" cy="415.88" r="2.68"/><circle cx="468.07" cy="418.33" r="0.68"/><circle cx="471.94" cy="421.31" r="0.68"/><circle class="cls-1" cx="484.16" cy="415.83" r="0.68"/><path class="cls-1" d="M115.63,590.06l.33.86L55.67,614.2l-.33-.86q4.39-3.92,3.55-11.23t-11.54-35L22.58,503q-8.61-22.31-12-26.67T.33,470.87L0,470a145.21,145.21,0,0,0,22.42-21.1A163.79,163.79,0,0,0,41,422.37L90.48,550.46q10.68,27.69,15,33.67T115.63,590.06Zm-2.39-88.57,77.39,60.6-48.49,18.73L85.52,536.35q15.26-10.32,22.3-21.43t3.74-19.69q-3.15-8.14-14.84-10.66t-26,1.29l-.33-.86,80.89-31.23.33.86q-8.57,5.28-20.61,20T113.24,501.49Z"/><path class="cls-7" d="M151.27,453.77l.33.86q-8.55,5.28-20.61,20t-17.7,26.71a7.43,7.43,0,0,0-.69.35,16,16,0,0,0-1-6.5q-3.15-8.14-14.84-10.66t-26,1.29l-.33-.86Z"/><path class="cls-1" d="M160.84,625.8c-.86-.84-8.52-8.35-11-12.74a24.21,24.21,0,0,1-2.5-6.3c-4.7-3.35-11.42-8.61-12.8-9.69l-12.38-9.72,15,4.53L148,595.16a27.57,27.57,0,0,1,3.42-6c-1.8-6.1-4.06-15.23-4.08-15.33l-3.75-15.24,14.46,20.51c.67-1.84,1-3.95,0-5.66-.76-1.36-2.23-2.37-3.93-3.54a29.46,29.46,0,0,1-3.56-2.74,24.47,24.47,0,0,1-4.87-7.19,46.79,46.79,0,0,1-3.58-10.23,8.08,8.08,0,0,1,.28-5.53,5.09,5.09,0,0,1,1.71-2,4.89,4.89,0,0,1,2.81-.9,5.5,5.5,0,0,1,4.76,3.06,10.86,10.86,0,0,1,.95,2.86c.05.21.09.41.14.61a10.37,10.37,0,0,0,2.88,5c2.33,2.22,5.69,3.38,8.95,4.5s6.7,2.3,9.69,4.54c4.82-3,10.19-6.17,10.25-6.21l5.73-3.36a18.24,18.24,0,0,1-3.12-4.38,14.35,14.35,0,0,1-1.07-9.17l-23.67-30L176,516.65c.1.06,9.4,5.52,17.28,10.47,4.71-3.88,10.59-5.89,15.84-7.69,5.08-1.75,10.85-3.73,14.83-7.51A18.46,18.46,0,0,0,229,503.2c.08-.32.15-.65.22-1a16,16,0,0,1,1.36-4.14,7,7,0,0,1,6-3.94,6,6,0,0,1,3.48,1.14,6.54,6.54,0,0,1,2.13,2.52c1.4,2.89.71,5.88.3,7.67A72.31,72.31,0,0,1,237,521.31c-1.76,3.61-4,7.72-7.36,10.91a44.22,44.22,0,0,1-5.45,4.19c-2.76,1.9-5.37,3.69-6.78,6.2-2.41,4.3-.76,9.56,1.18,13.38l19.23-27.27-3.54,14.92c0,.14-3.8,15.46-6.7,25.11A41.25,41.25,0,0,1,233.82,580l33.65-10.18-12.16,9.65c-.12.1-12.67,10-20.86,15.78a36.82,36.82,0,0,1-3.94,10.18c-3.9,6.88-16.63,19.31-17.17,19.83l-.85.83-17.65.19v.1l-33.13.25Zm13.36-43.25c-3.22,3.59-4.87,8-4.43,11.84a15.93,15.93,0,0,0,.59,3c.24-.23.48-.45.73-.66a24.73,24.73,0,0,1,10.26-5.11Zm5.38-7.1c6.7,4,14.35,8.73,18.56,11.72,2.17-2.22,3.42-5.5,4-10.32.79-7.06-2.39-15-8.51-21.27l-.94-.94-12.74,16.15A10.12,10.12,0,0,1,179.58,575.45Z"/><path class="cls-1" d="M236.6,497.1a3.07,3.07,0,0,1,1.78.6,3.56,3.56,0,0,1,1.16,1.39c.89,1.83.52,3.84.09,5.72A70,70,0,0,1,234.32,520a34.44,34.44,0,0,1-6.74,10.05c-4.12,3.91-10,6.14-12.77,11.09-3.54,6.31-.55,14.29,3.55,20.26l13-18.47c-.14.61-4.25,17.22-7.09,26.37,3,4,5.75,8,7.07,12.76.16.54.29,1.09.4,1.65l21.71-6.56c-.49.39-13.82,10.87-21.69,16.36A33.55,33.55,0,0,1,227.93,604c-3.73,6.6-16.65,19.17-16.65,19.17l-19.41.22a.45.45,0,0,1,0,.08l-24.82.19H165l-2,0s-8.14-7.93-10.49-12.08A21,21,0,0,1,150,605c-5-3.46-13.36-10-13.67-10.3L150,598.85a8.31,8.31,0,0,1,.25-1,24.43,24.43,0,0,1,4.45-8c-1.79-5.76-4.37-16.22-4.47-16.6l8.21,11.63C161,581,162.9,576,160.67,572c-1.74-3.13-5.44-4.52-8-7a21.58,21.58,0,0,1-4.25-6.34,43.22,43.22,0,0,1-3.35-9.58,5.33,5.33,0,0,1,.05-3.59,2.22,2.22,0,0,1,.73-.88,1.92,1.92,0,0,1,1.13-.38,2.62,2.62,0,0,1,2.15,1.49,12.06,12.06,0,0,1,.83,2.8,13.31,13.31,0,0,0,3.71,6.39c2.74,2.61,6.44,3.91,10,5.15s7.28,2.5,10,5.09l.33.32c5.2-3.31,12-7.32,12-7.32l-9.35,11.85a7.45,7.45,0,0,1-.32,5.4,6.78,6.78,0,0,1-.68,1.13c6.57,3.93,18.3,11,22.29,14.16l.22.19c3.91-2.66,6.05-7,6.81-13.74,1-8.72-3.2-17.41-9.34-23.68-2.12-2.17-4.53-4.18-5.86-6.91a11.87,11.87,0,0,1-.51-8.58L174.49,519.2s10.85,6.37,19.1,11.63c.17-.18.34-.35.52-.51,4.39-4.1,10.27-6.14,16-8.09s11.55-4,15.91-8.17a21.2,21.2,0,0,0,5.89-10.14,18.73,18.73,0,0,1,1.32-4.45,4.16,4.16,0,0,1,3.41-2.37M170,602.49a15.32,15.32,0,0,1,3-3.51c4.1-3.51,9.14-4.75,13.37-5.28l.33-.05-.08-.11-12.19-15.47c-.57.6-1.17,1.15-1.73,1.74-3.87,4-6.5,9.42-5.88,14.91.4,3.58,1.42,6.08,3.2,7.77m83.44-25.32h0m-16.88-86a9.93,9.93,0,0,0-8.63,5.51,18.58,18.58,0,0,0-1.64,4.89c-.06.31-.13.62-.21.92a15.32,15.32,0,0,1-4.23,7.28c-3.5,3.33-8.71,5.12-13.75,6.85-4.87,1.67-10.29,3.53-15,6.89-7.41-4.61-15.23-9.2-15.61-9.42l-27.1-15.91,19.45,24.68L183,539.54a16.94,16.94,0,0,0,1.53,9.65,17.77,17.77,0,0,0,1.32,2.27l-2.77,1.63c-.22.13-4.38,2.58-8.67,5.23a42.54,42.54,0,0,0-8.81-3.81c-3-1-6-2.07-7.86-3.84a7.42,7.42,0,0,1-2.06-3.54l-.12-.53a13.73,13.73,0,0,0-1.22-3.6,8.45,8.45,0,0,0-7.38-4.64,7.87,7.87,0,0,0-4.53,1.45,8.12,8.12,0,0,0-2.68,3.2,9.31,9.31,0,0,0-.9,3.72l-1.77-2.51,7.41,30.34c0,.1,2,8,3.72,14.1a31.46,31.46,0,0,0-1.77,2.92L138,589l-30.2-9.13,24.84,19.46,0,0c1.31,1,7.37,5.77,12,9.14a27.36,27.36,0,0,0,2.51,6c2.64,4.66,10.06,12,11.53,13.41l1.74,1.7,2.43,0,2.05,0h2.1l24.83-.19,5.87,0v-.11l13.54-.15,2.37,0,1.7-1.65c1.38-1.35,13.64-13.38,17.67-20.51a39.1,39.1,0,0,0,4-9.87c8.23-5.89,20-15.13,20.08-15.22l24.32-19.29-29.71,9-16.17,4.89a46.68,46.68,0,0,0-4.78-8.2c2.85-9.72,6.3-23.74,6.33-23.87l7-29.77-2.54,3.61a76.32,76.32,0,0,0,3.77-12c.46-2,1.33-5.77-.53-9.6a9.51,9.51,0,0,0-3.08-3.65,9,9,0,0,0-5.19-1.68Zm-17.21,58.5a8.06,8.06,0,0,1,.58-5.62c1.07-1.91,3.3-3.44,5.88-5.21.77-.54,1.56-1.08,2.34-1.65l-1.65,2.34-7.15,10.14Zm-36.42,22,7.75-9.83,2.13-2.7c4.6,5.34,6.94,11.72,6.31,17.37a19.16,19.16,0,0,1-1.72,6.57c-4-2.65-9.42-6-14.54-9.11a13.51,13.51,0,0,0,.07-2.3Zm70.51-.44Zm-80.74,20.68a12.42,12.42,0,0,1,1.55-4.48l2.11,2.67a28.31,28.31,0,0,0-3.66,1.81Z"/><path class="cls-8" d="M136.32,594.71c.31.24,8.71,6.84,13.67,10.3a21,21,0,0,0,2.42,6.59c2.35,4.16,10.49,12.08,10.49,12.08l29-.22s-.28-2-.56-4.81c-.35-3.63-1.55-7.83-4.32-10.2a15.88,15.88,0,0,0-8.63-3.36l9.83-12.47s-13.38,7.85-16.94,10.64l-.14.12c-2.47-1.68-3.81-4.41-4.29-8.66-.62-5.49,2-11,5.88-14.91a18,18,0,0,0,3.69-4.35,7.48,7.48,0,0,0,.33-5.41l9.34-11.85s-6.84,4-12,7.32c-.11-.11-.21-.22-.32-.32-2.78-2.58-6.48-3.87-10.06-5.09s-7.28-2.54-10-5.15a13.24,13.24,0,0,1-3.71-6.39,12.57,12.57,0,0,0-.83-2.8c-.61-1.14-2-2-3.29-1.11a2.37,2.37,0,0,0-.72.88,5.39,5.39,0,0,0-.05,3.59,43.92,43.92,0,0,0,3.35,9.58,21.75,21.75,0,0,0,4.24,6.34c2.6,2.46,6.3,3.86,8,7,2.24,4,.35,9-2.23,12.76l-8.2-11.63c.09.38,2.68,10.84,4.46,16.6a24.67,24.67,0,0,0-4.45,8c-.1.35-.18.69-.25,1Z"/><path class="cls-9" d="M253.47,577.17c-.49.39-13.82,10.87-21.69,16.36A33.55,33.55,0,0,1,227.93,604c-3.73,6.6-16.65,19.17-16.65,19.17l-46.33.51s.76-4,1.2-8.49c.57-5.76,2.46-12.43,6.86-16.2,4.21-3.6,9.42-4.82,13.7-5.33l-15.59-19.8s21.24,12.47,26.89,16.89l.22.19c3.91-2.66,6.05-7,6.81-13.74,1-8.72-3.2-17.41-9.34-23.68-2.12-2.17-4.53-4.18-5.86-6.91a11.87,11.87,0,0,1-.51-8.58L174.49,519.2s10.85,6.37,19.1,11.63c.17-.18.34-.35.52-.51,4.39-4.1,10.27-6.14,16-8.09s11.55-4,15.91-8.17a21.2,21.2,0,0,0,5.89-10.14,18.73,18.73,0,0,1,1.32-4.45c1-1.81,3.14-3.24,5.21-1.76a3.63,3.63,0,0,1,1.15,1.4c.88,1.82.51,3.82.08,5.7A70,70,0,0,1,234.32,520a34.44,34.44,0,0,1-6.74,10.05c-4.12,3.91-10,6.14-12.77,11.09-3.54,6.31-.55,14.29,3.55,20.26l13-18.47c-.14.61-4.25,17.22-7.09,26.37,3,4,5.75,8,7.07,12.76.16.54.29,1.09.4,1.65Z"/><path class="cls-1" d="M729,532.57l-.35.85-59.57-25.08.36-.84q5.88.22,10.35-5.63t16-33.2l3.3-7.84q9.27-22.05,9.85-27.55t-3.61-11l.36-.85a144.92,144.92,0,0,0,30.79.36,163.22,163.22,0,0,0,31.81-6.2L754.63,448q11.48-11.88,24.34-15.46A36.71,36.71,0,0,1,803.7,434q12.51,5.26,16,15.35t-1.32,26.26q11.79-12,25-15.69a37,37,0,0,1,25,1.3q14.63,6.15,17,19.4t-7.08,35.2L867.69,541q-11.51,27.36-12.58,34.64c-.72,4.85.36,8.63,3.21,11.33l-.35.85L798.4,562.78l.36-.85q5.88.24,10.35-5.62t16-33.2l2.41-5.73q9.28-22,9.12-29.35t-7.8-10.52a26,26,0,0,0-5.57-1.6,10.68,10.68,0,0,0-5,.13c-.64,1.89-1.31,3.9-2,6s-1.56,4.29-2.51,6.55L803,513.83q-11.52,27.34-12.58,34.63t3.21,11.33l-.36.85-59.57-25.08.36-.85q5.89.24,10.36-5.62t16-33.2l2.41-5.72q9.28-22.05,9.11-29.36t-7.8-10.52a25.16,25.16,0,0,0-5-1.48,14.07,14.07,0,0,0-4.8-.15l-16,37.95Q726.88,514,725.8,521.24T729,532.57Z"/><path class="cls-10" d="M793.67,559.79l-.35.85-59.57-25.08.36-.84q5.88.22,10.35-5.63t16-33.2l2.41-5.72q9.28-22.05,9.12-29.36t-7.8-10.52a24.8,24.8,0,0,0-5-1.48,14.39,14.39,0,0,0-4.72-.16,1.34,1.34,0,0,0,0-.2v-.08c.06-.12.12-.24.19-.36q11.49-11.86,24.33-15.44A36.74,36.74,0,0,1,803.71,434q12.49,5.26,16,15.34,3.25,9.45-.76,24.28a2.55,2.55,0,0,0-.31,1v-.07a2,2,0,0,1,0,.24c-.07.28-.15.55-.23.84,0-.05.07-.07.1-.11,0,.16-.06.33-.1.49l-.18,0q-.94,2.83-2,6t-2.51,6.55L803,513.83q-11.5,27.34-12.58,34.63C789.74,553.31,790.82,557.09,793.67,559.79Z"/><path class="cls-11" d="M797.53,383.56q-16.39,7-30.22,13.82c2.2,2.81,4.67,6.45,5,9,.65,4.71,7.19,8.08,8.62,13.9s1.6,12.54-5.5,12.28c-4.7-.16-8.66-3.9-10.8-6.42-8-3.66-14.11-11.19-18.24-17.91q-6.2,3.4-11.78,6.7c.66,3.9,1,8.54,1.19,10.65.27,3.14-.56,9.17-.89,11.33-.06,4.64-2,10.26-7.53,10-4.59-.17-7.34-4.95-8.93-9.64-3.1,1.67-8.07,2.45-15-2-21.23,15.66-29.24,26-29.24,26-8.33-9.09-2.78-36.12-2.78-36.12a120.61,120.61,0,0,1,16.21-14.17c-.73-2.2-1.28-4.11-1.66-5.53a2.55,2.55,0,0,1,.22-1.85,3.39,3.39,0,0,1-2.85-2.05,27.38,27.38,0,0,1-2.41-9.35,5.07,5.07,0,0,1,1-2.85,3.46,3.46,0,0,0,.5-1.28,6.6,6.6,0,0,1,1.14-2.64,3.55,3.55,0,0,0,.58-1.39,6.64,6.64,0,0,1,1.44-3.12,3.16,3.16,0,0,0,.77-1.7A2.93,2.93,0,0,1,687,378a3.47,3.47,0,0,0,.71-2,37.83,37.83,0,0,1,1.6-9.64,3.42,3.42,0,0,0-.11-2.34,60.51,60.51,0,0,1-3.78-12.16,3.39,3.39,0,0,1,0-1.23c.54-2.74,3.54-13,17.89-9.47a3.47,3.47,0,0,1,2,1.42c1.34,2,4.24,6.34,5.82,8.89a3.4,3.4,0,0,0,2.09,1.52,6.91,6.91,0,0,1,2.46,1.06,3.46,3.46,0,0,0,1.69.69,10.75,10.75,0,0,1,4.81,1.61,3.41,3.41,0,0,0,2.13.66,9.07,9.07,0,0,1,5.22,1.13,3.34,3.34,0,0,0,2.95.46,15.33,15.33,0,0,1,4.55-.9,3.63,3.63,0,0,0,1.19-.13,6.34,6.34,0,0,1,2.89-.22,3.39,3.39,0,0,0,1.23-.06,24.34,24.34,0,0,1,6.23-.72,3.58,3.58,0,0,0,1.22-.08,6.6,6.6,0,0,1,2.68-.29,3.64,3.64,0,0,0,1.54,0,5.75,5.75,0,0,1,2.37-.12,3.42,3.42,0,0,0,1.62,0c1.17-.28,3.09-.61,4.21-.08a3.36,3.36,0,0,0,2.37.26c1.31-.36,3.07-.66,3.94,0a3.45,3.45,0,0,0,2.48.71,14.78,14.78,0,0,1,3.76-.09c1.34.34,1.68.9,1.91,1.58.15.46,3.66-.41,6.09.48,9-4,14.69-6.38,14.69-6.38Z"/><path class="cls-12" d="M735.1,437.7s1.35-8.25,1-12.13-1.21-16.33-3.64-17S716.75,421,716.75,421s5.51,17.17,9.24,18.86S735.1,437.7,735.1,437.7Z"/><path class="cls-13" d="M763.22,423.89s5.42,8.42,12.52,8.67,6.93-6.46,5.5-12.28-8-9.19-8.61-13.9-8.57-13.2-8.57-13.2L748.5,405.39S762.89,421.11,763.22,423.89Z"/><path class="cls-14" d="M671.78,425.24s-5.55,27,2.78,36.12c0,0,29.05-37.64,123.27-77.8V352.49S702.6,391.9,671.78,425.24Z"/><path class="cls-13" d="M689,403a3.42,3.42,0,0,1-5.26-1.32,27.67,27.67,0,0,1-2.41-9.35,5.07,5.07,0,0,1,1-2.85,3.46,3.46,0,0,0,.5-1.28,6.55,6.55,0,0,1,1.14-2.64,3.55,3.55,0,0,0,.58-1.39A6.64,6.64,0,0,1,686,381a3.16,3.16,0,0,0,.77-1.7,2.93,2.93,0,0,1,.6-1.36,3.55,3.55,0,0,0,.72-2,37.29,37.29,0,0,1,1.59-9.64,3.31,3.31,0,0,0-.11-2.34,60.51,60.51,0,0,1-3.78-12.16,3.39,3.39,0,0,1,0-1.23c.54-2.74,3.54-13,17.9-9.47a3.44,3.44,0,0,1,2,1.42c1.34,2,4.24,6.34,5.82,8.89a3.46,3.46,0,0,0,2.1,1.52,6.87,6.87,0,0,1,2.45,1.06,3.46,3.46,0,0,0,1.69.69,10.71,10.71,0,0,1,4.81,1.61,3.41,3.41,0,0,0,2.14.65,9.15,9.15,0,0,1,5.21,1.14,3.38,3.38,0,0,0,3,.47,15.05,15.05,0,0,1,4.56-.91,3.36,3.36,0,0,0,1.18-.14,6.63,6.63,0,0,1,2.89-.22,3.18,3.18,0,0,0,1.23-.05,24.4,24.4,0,0,1,6.23-.72,3.35,3.35,0,0,0,1.22-.09,6.77,6.77,0,0,1,2.68-.28,3.64,3.64,0,0,0,1.54,0,5.75,5.75,0,0,1,2.37-.12,3.46,3.46,0,0,0,1.63,0c1.16-.28,3.09-.61,4.2-.08a3.36,3.36,0,0,0,2.37.26c1.31-.36,3.08-.66,3.94,0a3.42,3.42,0,0,0,2.48.72,14.79,14.79,0,0,1,3.76-.09c1.35.34,1.68.9,1.91,1.58s7.52-1.46,8.31,3c0,0,.4,2.37.54,5a3.41,3.41,0,0,1-4.3,3.5,22.06,22.06,0,0,0-3.24-.59,3.43,3.43,0,0,0-3.62,2.28,21.88,21.88,0,0,1-3.84,7,3.41,3.41,0,0,1-5.82-1.12.65.65,0,0,1,0-.13,3.53,3.53,0,0,0-1.43-1.93l-.14-.1a3.41,3.41,0,0,0-3.49-.34,7.17,7.17,0,0,1-6.36.24,3.38,3.38,0,0,0-2.75-.09,2.79,2.79,0,0,1-1.93.11,3.5,3.5,0,0,0-3.09.42,290.51,290.51,0,0,1-33.79,20.18,3.42,3.42,0,0,0-1.87,3.36,13,13,0,0,1-1.55,7.86,3.5,3.5,0,0,0-.5,1.54,7.6,7.6,0,0,1-2.37,4.72,3.41,3.41,0,0,1-5.73-1.42,28.47,28.47,0,0,1-.93-4.79,3.39,3.39,0,0,0-1-2C696.41,403.28,692.5,400.15,689,403Z"/><path class="cls-15" d="M688.35,402.38a2.54,2.54,0,0,0-2,3.16c1.64,6.22,6.59,22,16,28.79s15.59,4.05,18.43,1.61a2.54,2.54,0,0,0,.5-3.27h0a2.58,2.58,0,0,0-2.55-1.19c-2.76.41-8.8-.37-14.65-12.15a2.54,2.54,0,0,0-.16-.28c-.63-.93-4.44-6.86-4.52-13.06C699.34,401.13,692.32,401.68,688.35,402.38Z"/><path class="cls-15" d="M748.07,383.46c0,1.54,1.18,14.49,24,4.1l.17-.09c1-.65,11.56-7.47,13.35-15.22,1.6-6.89-6.48-4.41-9-3.48a1.36,1.36,0,0,0-.86,1c-.5,2.47-2.65,10.61-9.47,13.87-8,3.83-11.36,5.35-15.82,1.5a1.16,1.16,0,0,1-.28-.34c-.56-1-3-5.09-2.13-1.66A1.19,1.19,0,0,1,748.07,383.46Z"/><path class="cls-16" d="M724.69,435.06a23.41,23.41,0,0,1-5.29-6.74,1.35,1.35,0,0,0-1.86-.53h0a1.33,1.33,0,0,0-.68,1.36c.52,3.73,3,17.51,10.83,17.81,6.06.23,7.83-6.59,7.5-11.42a1.37,1.37,0,0,0-2.38-1,11.08,11.08,0,0,1-2.93,2.45c-2.4,1.34-4.49-1.13-5-1.73A1.31,1.31,0,0,0,724.69,435.06Z"/><path class="cls-17" d="M703,380.45s2.87,3.22,3.68,5.75a5,5,0,0,0,1.38,2.21,5,5,0,0,1,1.53,4.82,5.37,5.37,0,0,0,.35,2.91,6.32,6.32,0,0,1,.42,1.63"/><path class="cls-17" d="M742.85,363.77s3.22,9.73,5.65,11"/><path class="cls-17" d="M697.32,384.82c-.11-.22,4.86,10.57,1.5,18.64"/><path class="cls-17" d="M760.58,361.61s-1.11,9.47,2.26,12.76"/><path class="cls-17" d="M758.9,412.88s-1-3.6,7.91-7.49"/><path class="cls-17" d="M731.06,366.47s-.44,11.57,5.08,15.8"/><path class="cls-15" d="M740.27,395.21s10.53,29.58,31,32.88l.09,0c.42.11,4.34.95,4.34-3.83a8.83,8.83,0,0,0-3.27-6.41,1.37,1.37,0,0,0-.9-.29c-2.5.1-14.93-.68-29.74-23.58a1.38,1.38,0,0,0-.46-.44C740.69,393.17,739.15,392.49,740.27,395.21Z"/><path class="cls-18" d="M693.2,412.36s.34,6.73,8.25,15.85"/><path class="cls-18" d="M771.82,384.1c-.58.33,8.33-5.82,10.78-12.22"/><path class="cls-18" d="M754.86,413.84s5.1,6.86,13.36,8.76"/><path class="cls-1" d="M760.61,183.76l-.28.87-61.56-19.7.28-.88q5.9-.28,9.82-6.51t13-34.49l21-65.5q7.29-22.78,7.37-28.31T745.61,18.6l.28-.87a146.46,146.46,0,0,0,30.7-2.37,164,164,0,0,0,31.13-9L765.87,137.14q-9,28.26-9.47,35.61T760.61,183.76Z"/><path class="cls-19" d="M820,100.82c-2.08.62-4.83.2-7.71-1.37-.31-.17-.62-.35-.93-.55"/><path class="cls-19" d="M836.28,107.72c0-.08,0-.16.05-.23"/><path class="cls-19" d="M836.39,107.16c0-.21.07-.42.09-.63"/><path class="cls-19" d="M836.57,105.6c0-.1,0-.2,0-.3"/><path class="cls-19" d="M836.58,105v-.29"/><path class="cls-19" d="M836.52,103.8l0-.3"/><path class="cls-19" d="M835.56,100.38c0-.07-.07-.15-.11-.22l-.14-.27-.28-.47"/><path class="cls-19" d="M834.83,99.11l-.15-.21-.11-.16"/><path class="cls-19" d="M834.09,98.14l-.34-.39"/><path class="cls-19" d="M832.85,96.88l-.21-.18"/><path class="cls-19" d="M832.33,96.45l-.22-.18"/><path class="cls-19" d="M832.1,96.27l-.26-.19-.27-.2"/><path class="cls-19" d="M835.38,100.17a7.76,7.76,0,0,0-.37-.77"/><path class="cls-19" d="M829.9,94.57A11.33,11.33,0,0,1,835,99.38"/><path class="cls-19" d="M785.32,150.76c-.14,0-.15.21-.07.33a3.8,3.8,0,0,0,1.56,1.27,12.62,12.62,0,0,0,5.13,1.42,14.5,14.5,0,0,1,3.55.33"/><path class="cls-20" d="M797.35,171.15s-8,.08-15.54-9.83a17,17,0,0,0-4.66-4.24c-.82-.5-1.8-1.05-3-1.62a19.7,19.7,0,0,0-6.6-1.91c-3.36-.36-9-1.71-9.47-6.64-.68-7.07,6.89-9.33,9.49-9.08,0,0,2-.28,6,2.72L795.26,109l-.29.13c-21.58,9.49-14.27-27.58,2.3-21.8,6.1,2.13,8.66,8.07,13.92,11.44l.14.09c.89.57,1.09.67.93.54-.37-.3-2.71-1.91-2.71-1.91a16.07,16.07,0,0,0,7-1.58,13.29,13.29,0,0,1-2-1.12c-6.21-4.27-7.72-12.84-2.48-20.47s24.47-11.5,24.47-11.5,3.25,19.34-2,27a18.25,18.25,0,0,1-4.68,4.75,11.1,11.1,0,0,0-3-.95,20.17,20.17,0,0,1,2.73,1.13h0a16.9,16.9,0,0,1,1.93,1.13l.27.2.26.19h0l.22.18.31.25.21.18a12.39,12.39,0,0,1,.9.87l.34.39h0l.13.15.16.21a1.09,1.09,0,0,1,.13.17l.05.06.11.16.15.21.18.27v0l0,0,.28.47.14.27c0,.07.07.15.11.22a10.92,10.92,0,0,1,.5,1.23l.06.18a11.08,11.08,0,0,1,.37,1.71l0,.3q0,.45.06.9v.6c0,.1,0,.2,0,.3q0,.47-.09.93c0,.21-.06.42-.09.63l-.06.33a1.55,1.55,0,0,0-.05.23c-.08.34-.16.69-.26,1a10.11,10.11,0,0,1-9.62,7.36,17.64,17.64,0,0,1-6.63-1.39l-26.89,39.09c4.25.32,9.51,1.8,11.68,6.86C808.45,169.79,797.35,171.15,797.35,171.15Z"/><path class="cls-21" d="M829.9,94.57l-.26.18h0a20.17,20.17,0,0,0-2.73-1.13A11.1,11.1,0,0,1,829.9,94.57Z"/><path class="cls-22" d="M797.35,171.15s-8,.08-15.54-9.83a17.12,17.12,0,0,0-4.66-4.24c-.82-.5-1.8-1.05-3-1.62a19.7,19.7,0,0,0-6.6-1.91c-3.36-.36-9-1.71-9.47-6.64-.68-7.07,6.89-9.33,9.49-9.08,0,0,2-.28,6,2.72l30.7-44.64,19.29,13.27-30.7,44.63c4.25.32,9.51,1.8,11.68,6.86C808.45,169.78,797.35,171.15,797.35,171.15Z"/><path class="cls-23" d="M826.4,116.11c-4.73,0-9.8-2.43-13.59-5.52a1.62,1.62,0,0,0-2.53.63c-2.19,5.26-1.37,11.6-4.13,16.64-4.66,6.43-18.09,2.57-14.36-6.35,2.4-4.74,7.54-7.21,11.6-10.58a2.41,2.41,0,0,0-2.15-4.19,45.12,45.12,0,0,0-6.27,2.43c-21.58,9.49-14.27-27.58,2.3-21.8,6.1,2.13,8.66,8.07,13.92,11.44,3.26,2.09-1.64-1.28-1.64-1.28,5.17.3,9.38-3.46,14.52-4a10.38,10.38,0,0,1,2.84.1c3.88,1.31,6.56,3.32,8.1,5.76a11.26,11.26,0,0,1,1,9.37A10.11,10.11,0,0,1,826.4,116.11Z"/><path class="cls-24" d="M826.91,93.62c8.18,2.77,11,8.61,9.11,15.13a10.11,10.11,0,0,1-9.62,7.36c-4.73,0-9.8-2.43-13.59-5.52a1.62,1.62,0,0,0-2.53.63c-2.19,5.26-1.37,11.6-4.13,16.64-4.66,6.43-18.09,2.57-14.36-6.35,2.4-4.74,7.54-7.21,11.6-10.58a2.41,2.41,0,0,0-2.15-4.19,45.12,45.12,0,0,0-6.27,2.43c-21.59,9.49-14.28-27.57,2.3-21.8,6.1,2.13,8.66,8.07,13.92,11.44,3.26,2.09,6.44,2.71,8.78,2"/><path class="cls-24" d="M809.55,97.53c5.17.3,9.38-3.46,14.52-4a11.32,11.32,0,0,1,11.31,6.65"/><path class="cls-24" d="M785.32,150.76c-.14,0-.15.21-.07.33a3.8,3.8,0,0,0,1.56,1.27,12.62,12.62,0,0,0,5.13,1.42,14.5,14.5,0,0,1,3.55.33"/><path class="cls-25" d="M834.58,89.82c-5.24,7.63-13.79,9.28-20,5S806.87,82,812.11,74.36s24.47-11.5,24.47-11.5S839.83,82.2,834.58,89.82Z"/><path class="cls-26" d="M818.23,89.53c-3.5-2.4-3.84-7.14-.82-11.52,1.74-2.53,7.75-5.21,13.59-7.05.06.91.1,1.86.13,2.84.21,8.69-1.36,11.67-1.84,12.38C826.27,90.56,821.73,91.94,818.23,89.53Z"/><path class="cls-1" d="M210.9,117.93a8.1,8.1,0,0,0,5.31,3.35c2.19.39,5.32.15,9.38-.74l.26.89a94.6,94.6,0,0,1-15.79,14.74,53.73,53.73,0,0,1-16.22,8.4q-11.25,3.33-17.56-1.4t-11-19.66q-.21,14.7-6.79,24.08t-19.37,13.17Q126.35,164.54,116,159T101.7,140.41a30.33,30.33,0,0,1,2-22.53Q109,106.83,128,89q3.17-3.09,8.08-7.55t6.64-5.92q4.45-4.42,5.25-7.79t-1.15-10q-2.87-9.7-9.57-14.92t-14-3.06c-3.23,1-5.22,2.23-6,3.8s0,4,2.08,7.42a106.13,106.13,0,0,1,5.78,9.81,37.72,37.72,0,0,1,1.33,3.68q3.2,10.81-1.47,19.38t-14.8,11.58q-8.82,2.61-15.69-.76a17.38,17.38,0,0,1-9.22-11.3q-3.86-13,12.84-28.74t41.61-23.11q20.52-6.08,34.57.92T193.7,59l12,43.93q2.77,10.22,3.55,12A17.11,17.11,0,0,0,210.9,117.93Zm-72-6.52q3.19,10.8,11.18,13.84T164.84,122l-.32-1.1L150.1,69.72A41.59,41.59,0,0,0,138.31,89,40.79,40.79,0,0,0,138.93,111.41Z"/><path class="cls-27" d="M126.48,64.48q3.2,10.8-1.46,19.38t-14.8,11.58q-8.82,2.61-15.69-.75A17.46,17.46,0,0,1,85.3,83.38q-3.84-13,12.85-28.74a93,93,0,0,1,18.9-13.73c.34.51.69,1,1.06,1.51a4.31,4.31,0,0,0-.81,1.15q-1.1,2.37,2.07,7.42a101.32,101.32,0,0,1,5.78,9.81A35.27,35.27,0,0,1,126.48,64.48Z"/><path class="cls-28" d="M192.36,19.65h0v.07l-1.38.07v-.07Z"/><path class="cls-29" d="M191,19.65v.14l1.38-.07v-.14C191.92,19.59,191.45,19.61,191,19.65Z"/><path class="cls-28" d="M201.29,19.87a24.7,24.7,0,0,0-9-1.49,0,0,0,0,1,0,0l-1.4.08c-.94.06-1.91.13-2.85.21-4.68.38-9.52.77-13.86-.8-4.83-1.73-13.25-7.76-15.87-14.12h0a1.25,1.25,0,0,0-1.65-.69A1.28,1.28,0,0,0,156,4.7h0A47.35,47.35,0,0,1,157.09,11,178.32,178.32,0,0,0,163,39c3,9.48,7.13,16.92,12.3,22.11,4.59,4.6,10,7.33,15.55,7.89,9.08.91,18-4,22.72-12.5a24.69,24.69,0,0,0-11.77-36.38ZM191,19.65c.47,0,.94-.06,1.38-.07v.14l-1.38.07v-.14Z"/><path class="cls-30" d="M201.37,21.25a23.44,23.44,0,0,1,11.14,34.56h0c-9.29,16.78-36.53,20-48.28-17.25-5.13-16.27-6-31.67-7.08-34.34,2.72,6.62,11.24,12.91,16.62,14.85s11.71,1,17.21.65l1.38-.07a23.35,23.35,0,0,1,8.5,1.41Z"/><path class="cls-31" d="M192.36,19.65l-1.38.07C191.44,19.68,191.9,19.66,192.36,19.65Z"/><path class="cls-32" d="M186,58.84s13.8,3.62,19.35-10.93"/></g></g></svg>